G04 #@! TF.GenerationSoftware,KiCad,Pcbnew,(5.1.4)-1*
G04 #@! TF.CreationDate,2021-11-29T21:13:24-05:00*
G04 #@! TF.ProjectId,Lights_Board,4c696768-7473-45f4-926f-6172642e6b69,rev?*
G04 #@! TF.SameCoordinates,Original*
G04 #@! TF.FileFunction,Legend,Bot*
G04 #@! TF.FilePolarity,Positive*
%FSLAX46Y46*%
G04 Gerber Fmt 4.6, Leading zero omitted, Abs format (unit mm)*
G04 Created by KiCad (PCBNEW (5.1.4)-1) date 2021-11-29 21:13:24*
%MOMM*%
%LPD*%
G04 APERTURE LIST*
%ADD10O,1.602000X2.122000*%
%ADD11C,0.100000*%
%ADD12C,1.602000*%
%ADD13C,3.102000*%
%ADD14C,3.302000*%
%ADD15O,2.122000X1.602000*%
G04 APERTURE END LIST*
%LPC*%
D10*
X125900000Y-140580000D03*
D11*
G36*
X129460171Y-139520286D02*
G01*
X129486089Y-139524130D01*
X129511506Y-139530497D01*
X129536176Y-139539324D01*
X129559863Y-139550527D01*
X129582337Y-139563998D01*
X129603383Y-139579606D01*
X129622798Y-139597202D01*
X129640394Y-139616617D01*
X129656002Y-139637663D01*
X129669473Y-139660137D01*
X129680676Y-139683824D01*
X129689503Y-139708494D01*
X129695870Y-139733911D01*
X129699714Y-139759829D01*
X129701000Y-139786000D01*
X129701000Y-141374000D01*
X129699714Y-141400171D01*
X129695870Y-141426089D01*
X129689503Y-141451506D01*
X129680676Y-141476176D01*
X129669473Y-141499863D01*
X129656002Y-141522337D01*
X129640394Y-141543383D01*
X129622798Y-141562798D01*
X129603383Y-141580394D01*
X129582337Y-141596002D01*
X129559863Y-141609473D01*
X129536176Y-141620676D01*
X129511506Y-141629503D01*
X129486089Y-141635870D01*
X129460171Y-141639714D01*
X129434000Y-141641000D01*
X128366000Y-141641000D01*
X128339829Y-141639714D01*
X128313911Y-141635870D01*
X128288494Y-141629503D01*
X128263824Y-141620676D01*
X128240137Y-141609473D01*
X128217663Y-141596002D01*
X128196617Y-141580394D01*
X128177202Y-141562798D01*
X128159606Y-141543383D01*
X128143998Y-141522337D01*
X128130527Y-141499863D01*
X128119324Y-141476176D01*
X128110497Y-141451506D01*
X128104130Y-141426089D01*
X128100286Y-141400171D01*
X128099000Y-141374000D01*
X128099000Y-139786000D01*
X128100286Y-139759829D01*
X128104130Y-139733911D01*
X128110497Y-139708494D01*
X128119324Y-139683824D01*
X128130527Y-139660137D01*
X128143998Y-139637663D01*
X128159606Y-139616617D01*
X128177202Y-139597202D01*
X128196617Y-139579606D01*
X128217663Y-139563998D01*
X128240137Y-139550527D01*
X128263824Y-139539324D01*
X128288494Y-139530497D01*
X128313911Y-139524130D01*
X128339829Y-139520286D01*
X128366000Y-139519000D01*
X129434000Y-139519000D01*
X129460171Y-139520286D01*
X129460171Y-139520286D01*
G37*
D12*
X128900000Y-140580000D03*
D13*
X127400000Y-144900000D03*
D14*
X105000000Y-145000000D03*
D15*
X190600000Y-132600000D03*
D11*
G36*
X191420171Y-128800286D02*
G01*
X191446089Y-128804130D01*
X191471506Y-128810497D01*
X191496176Y-128819324D01*
X191519863Y-128830527D01*
X191542337Y-128843998D01*
X191563383Y-128859606D01*
X191582798Y-128877202D01*
X191600394Y-128896617D01*
X191616002Y-128917663D01*
X191629473Y-128940137D01*
X191640676Y-128963824D01*
X191649503Y-128988494D01*
X191655870Y-129013911D01*
X191659714Y-129039829D01*
X191661000Y-129066000D01*
X191661000Y-130134000D01*
X191659714Y-130160171D01*
X191655870Y-130186089D01*
X191649503Y-130211506D01*
X191640676Y-130236176D01*
X191629473Y-130259863D01*
X191616002Y-130282337D01*
X191600394Y-130303383D01*
X191582798Y-130322798D01*
X191563383Y-130340394D01*
X191542337Y-130356002D01*
X191519863Y-130369473D01*
X191496176Y-130380676D01*
X191471506Y-130389503D01*
X191446089Y-130395870D01*
X191420171Y-130399714D01*
X191394000Y-130401000D01*
X189806000Y-130401000D01*
X189779829Y-130399714D01*
X189753911Y-130395870D01*
X189728494Y-130389503D01*
X189703824Y-130380676D01*
X189680137Y-130369473D01*
X189657663Y-130356002D01*
X189636617Y-130340394D01*
X189617202Y-130322798D01*
X189599606Y-130303383D01*
X189583998Y-130282337D01*
X189570527Y-130259863D01*
X189559324Y-130236176D01*
X189550497Y-130211506D01*
X189544130Y-130186089D01*
X189540286Y-130160171D01*
X189539000Y-130134000D01*
X189539000Y-129066000D01*
X189540286Y-129039829D01*
X189544130Y-129013911D01*
X189550497Y-128988494D01*
X189559324Y-128963824D01*
X189570527Y-128940137D01*
X189583998Y-128917663D01*
X189599606Y-128896617D01*
X189617202Y-128877202D01*
X189636617Y-128859606D01*
X189657663Y-128843998D01*
X189680137Y-128830527D01*
X189703824Y-128819324D01*
X189728494Y-128810497D01*
X189753911Y-128804130D01*
X189779829Y-128800286D01*
X189806000Y-128799000D01*
X191394000Y-128799000D01*
X191420171Y-128800286D01*
X191420171Y-128800286D01*
G37*
D12*
X190600000Y-129600000D03*
D13*
X194920000Y-131100000D03*
D15*
X190600000Y-118400000D03*
D11*
G36*
X191420171Y-114600286D02*
G01*
X191446089Y-114604130D01*
X191471506Y-114610497D01*
X191496176Y-114619324D01*
X191519863Y-114630527D01*
X191542337Y-114643998D01*
X191563383Y-114659606D01*
X191582798Y-114677202D01*
X191600394Y-114696617D01*
X191616002Y-114717663D01*
X191629473Y-114740137D01*
X191640676Y-114763824D01*
X191649503Y-114788494D01*
X191655870Y-114813911D01*
X191659714Y-114839829D01*
X191661000Y-114866000D01*
X191661000Y-115934000D01*
X191659714Y-115960171D01*
X191655870Y-115986089D01*
X191649503Y-116011506D01*
X191640676Y-116036176D01*
X191629473Y-116059863D01*
X191616002Y-116082337D01*
X191600394Y-116103383D01*
X191582798Y-116122798D01*
X191563383Y-116140394D01*
X191542337Y-116156002D01*
X191519863Y-116169473D01*
X191496176Y-116180676D01*
X191471506Y-116189503D01*
X191446089Y-116195870D01*
X191420171Y-116199714D01*
X191394000Y-116201000D01*
X189806000Y-116201000D01*
X189779829Y-116199714D01*
X189753911Y-116195870D01*
X189728494Y-116189503D01*
X189703824Y-116180676D01*
X189680137Y-116169473D01*
X189657663Y-116156002D01*
X189636617Y-116140394D01*
X189617202Y-116122798D01*
X189599606Y-116103383D01*
X189583998Y-116082337D01*
X189570527Y-116059863D01*
X189559324Y-116036176D01*
X189550497Y-116011506D01*
X189544130Y-115986089D01*
X189540286Y-115960171D01*
X189539000Y-115934000D01*
X189539000Y-114866000D01*
X189540286Y-114839829D01*
X189544130Y-114813911D01*
X189550497Y-114788494D01*
X189559324Y-114763824D01*
X189570527Y-114740137D01*
X189583998Y-114717663D01*
X189599606Y-114696617D01*
X189617202Y-114677202D01*
X189636617Y-114659606D01*
X189657663Y-114643998D01*
X189680137Y-114630527D01*
X189703824Y-114619324D01*
X189728494Y-114610497D01*
X189753911Y-114604130D01*
X189779829Y-114600286D01*
X189806000Y-114599000D01*
X191394000Y-114599000D01*
X191420171Y-114600286D01*
X191420171Y-114600286D01*
G37*
D12*
X190600000Y-115400000D03*
D13*
X194920000Y-116900000D03*
D15*
X190600000Y-104500000D03*
D11*
G36*
X191420171Y-100700286D02*
G01*
X191446089Y-100704130D01*
X191471506Y-100710497D01*
X191496176Y-100719324D01*
X191519863Y-100730527D01*
X191542337Y-100743998D01*
X191563383Y-100759606D01*
X191582798Y-100777202D01*
X191600394Y-100796617D01*
X191616002Y-100817663D01*
X191629473Y-100840137D01*
X191640676Y-100863824D01*
X191649503Y-100888494D01*
X191655870Y-100913911D01*
X191659714Y-100939829D01*
X191661000Y-100966000D01*
X191661000Y-102034000D01*
X191659714Y-102060171D01*
X191655870Y-102086089D01*
X191649503Y-102111506D01*
X191640676Y-102136176D01*
X191629473Y-102159863D01*
X191616002Y-102182337D01*
X191600394Y-102203383D01*
X191582798Y-102222798D01*
X191563383Y-102240394D01*
X191542337Y-102256002D01*
X191519863Y-102269473D01*
X191496176Y-102280676D01*
X191471506Y-102289503D01*
X191446089Y-102295870D01*
X191420171Y-102299714D01*
X191394000Y-102301000D01*
X189806000Y-102301000D01*
X189779829Y-102299714D01*
X189753911Y-102295870D01*
X189728494Y-102289503D01*
X189703824Y-102280676D01*
X189680137Y-102269473D01*
X189657663Y-102256002D01*
X189636617Y-102240394D01*
X189617202Y-102222798D01*
X189599606Y-102203383D01*
X189583998Y-102182337D01*
X189570527Y-102159863D01*
X189559324Y-102136176D01*
X189550497Y-102111506D01*
X189544130Y-102086089D01*
X189540286Y-102060171D01*
X189539000Y-102034000D01*
X189539000Y-100966000D01*
X189540286Y-100939829D01*
X189544130Y-100913911D01*
X189550497Y-100888494D01*
X189559324Y-100863824D01*
X189570527Y-100840137D01*
X189583998Y-100817663D01*
X189599606Y-100796617D01*
X189617202Y-100777202D01*
X189636617Y-100759606D01*
X189657663Y-100743998D01*
X189680137Y-100730527D01*
X189703824Y-100719324D01*
X189728494Y-100710497D01*
X189753911Y-100704130D01*
X189779829Y-100700286D01*
X189806000Y-100699000D01*
X191394000Y-100699000D01*
X191420171Y-100700286D01*
X191420171Y-100700286D01*
G37*
D12*
X190600000Y-101500000D03*
D13*
X194920000Y-103000000D03*
D15*
X109400000Y-129600000D03*
D11*
G36*
X110220171Y-131800286D02*
G01*
X110246089Y-131804130D01*
X110271506Y-131810497D01*
X110296176Y-131819324D01*
X110319863Y-131830527D01*
X110342337Y-131843998D01*
X110363383Y-131859606D01*
X110382798Y-131877202D01*
X110400394Y-131896617D01*
X110416002Y-131917663D01*
X110429473Y-131940137D01*
X110440676Y-131963824D01*
X110449503Y-131988494D01*
X110455870Y-132013911D01*
X110459714Y-132039829D01*
X110461000Y-132066000D01*
X110461000Y-133134000D01*
X110459714Y-133160171D01*
X110455870Y-133186089D01*
X110449503Y-133211506D01*
X110440676Y-133236176D01*
X110429473Y-133259863D01*
X110416002Y-133282337D01*
X110400394Y-133303383D01*
X110382798Y-133322798D01*
X110363383Y-133340394D01*
X110342337Y-133356002D01*
X110319863Y-133369473D01*
X110296176Y-133380676D01*
X110271506Y-133389503D01*
X110246089Y-133395870D01*
X110220171Y-133399714D01*
X110194000Y-133401000D01*
X108606000Y-133401000D01*
X108579829Y-133399714D01*
X108553911Y-133395870D01*
X108528494Y-133389503D01*
X108503824Y-133380676D01*
X108480137Y-133369473D01*
X108457663Y-133356002D01*
X108436617Y-133340394D01*
X108417202Y-133322798D01*
X108399606Y-133303383D01*
X108383998Y-133282337D01*
X108370527Y-133259863D01*
X108359324Y-133236176D01*
X108350497Y-133211506D01*
X108344130Y-133186089D01*
X108340286Y-133160171D01*
X108339000Y-133134000D01*
X108339000Y-132066000D01*
X108340286Y-132039829D01*
X108344130Y-132013911D01*
X108350497Y-131988494D01*
X108359324Y-131963824D01*
X108370527Y-131940137D01*
X108383998Y-131917663D01*
X108399606Y-131896617D01*
X108417202Y-131877202D01*
X108436617Y-131859606D01*
X108457663Y-131843998D01*
X108480137Y-131830527D01*
X108503824Y-131819324D01*
X108528494Y-131810497D01*
X108553911Y-131804130D01*
X108579829Y-131800286D01*
X108606000Y-131799000D01*
X110194000Y-131799000D01*
X110220171Y-131800286D01*
X110220171Y-131800286D01*
G37*
D12*
X109400000Y-132600000D03*
D13*
X105080000Y-131100000D03*
D15*
X109400000Y-115200000D03*
D11*
G36*
X110220171Y-117400286D02*
G01*
X110246089Y-117404130D01*
X110271506Y-117410497D01*
X110296176Y-117419324D01*
X110319863Y-117430527D01*
X110342337Y-117443998D01*
X110363383Y-117459606D01*
X110382798Y-117477202D01*
X110400394Y-117496617D01*
X110416002Y-117517663D01*
X110429473Y-117540137D01*
X110440676Y-117563824D01*
X110449503Y-117588494D01*
X110455870Y-117613911D01*
X110459714Y-117639829D01*
X110461000Y-117666000D01*
X110461000Y-118734000D01*
X110459714Y-118760171D01*
X110455870Y-118786089D01*
X110449503Y-118811506D01*
X110440676Y-118836176D01*
X110429473Y-118859863D01*
X110416002Y-118882337D01*
X110400394Y-118903383D01*
X110382798Y-118922798D01*
X110363383Y-118940394D01*
X110342337Y-118956002D01*
X110319863Y-118969473D01*
X110296176Y-118980676D01*
X110271506Y-118989503D01*
X110246089Y-118995870D01*
X110220171Y-118999714D01*
X110194000Y-119001000D01*
X108606000Y-119001000D01*
X108579829Y-118999714D01*
X108553911Y-118995870D01*
X108528494Y-118989503D01*
X108503824Y-118980676D01*
X108480137Y-118969473D01*
X108457663Y-118956002D01*
X108436617Y-118940394D01*
X108417202Y-118922798D01*
X108399606Y-118903383D01*
X108383998Y-118882337D01*
X108370527Y-118859863D01*
X108359324Y-118836176D01*
X108350497Y-118811506D01*
X108344130Y-118786089D01*
X108340286Y-118760171D01*
X108339000Y-118734000D01*
X108339000Y-117666000D01*
X108340286Y-117639829D01*
X108344130Y-117613911D01*
X108350497Y-117588494D01*
X108359324Y-117563824D01*
X108370527Y-117540137D01*
X108383998Y-117517663D01*
X108399606Y-117496617D01*
X108417202Y-117477202D01*
X108436617Y-117459606D01*
X108457663Y-117443998D01*
X108480137Y-117430527D01*
X108503824Y-117419324D01*
X108528494Y-117410497D01*
X108553911Y-117404130D01*
X108579829Y-117400286D01*
X108606000Y-117399000D01*
X110194000Y-117399000D01*
X110220171Y-117400286D01*
X110220171Y-117400286D01*
G37*
D12*
X109400000Y-118200000D03*
D13*
X105080000Y-116700000D03*
D15*
X109400000Y-101500000D03*
D11*
G36*
X110220171Y-103700286D02*
G01*
X110246089Y-103704130D01*
X110271506Y-103710497D01*
X110296176Y-103719324D01*
X110319863Y-103730527D01*
X110342337Y-103743998D01*
X110363383Y-103759606D01*
X110382798Y-103777202D01*
X110400394Y-103796617D01*
X110416002Y-103817663D01*
X110429473Y-103840137D01*
X110440676Y-103863824D01*
X110449503Y-103888494D01*
X110455870Y-103913911D01*
X110459714Y-103939829D01*
X110461000Y-103966000D01*
X110461000Y-105034000D01*
X110459714Y-105060171D01*
X110455870Y-105086089D01*
X110449503Y-105111506D01*
X110440676Y-105136176D01*
X110429473Y-105159863D01*
X110416002Y-105182337D01*
X110400394Y-105203383D01*
X110382798Y-105222798D01*
X110363383Y-105240394D01*
X110342337Y-105256002D01*
X110319863Y-105269473D01*
X110296176Y-105280676D01*
X110271506Y-105289503D01*
X110246089Y-105295870D01*
X110220171Y-105299714D01*
X110194000Y-105301000D01*
X108606000Y-105301000D01*
X108579829Y-105299714D01*
X108553911Y-105295870D01*
X108528494Y-105289503D01*
X108503824Y-105280676D01*
X108480137Y-105269473D01*
X108457663Y-105256002D01*
X108436617Y-105240394D01*
X108417202Y-105222798D01*
X108399606Y-105203383D01*
X108383998Y-105182337D01*
X108370527Y-105159863D01*
X108359324Y-105136176D01*
X108350497Y-105111506D01*
X108344130Y-105086089D01*
X108340286Y-105060171D01*
X108339000Y-105034000D01*
X108339000Y-103966000D01*
X108340286Y-103939829D01*
X108344130Y-103913911D01*
X108350497Y-103888494D01*
X108359324Y-103863824D01*
X108370527Y-103840137D01*
X108383998Y-103817663D01*
X108399606Y-103796617D01*
X108417202Y-103777202D01*
X108436617Y-103759606D01*
X108457663Y-103743998D01*
X108480137Y-103730527D01*
X108503824Y-103719324D01*
X108528494Y-103710497D01*
X108553911Y-103704130D01*
X108579829Y-103700286D01*
X108606000Y-103699000D01*
X110194000Y-103699000D01*
X110220171Y-103700286D01*
X110220171Y-103700286D01*
G37*
D12*
X109400000Y-104500000D03*
D13*
X105080000Y-103000000D03*
D10*
X140990000Y-140580000D03*
X143990000Y-140580000D03*
X146990000Y-140580000D03*
X149990000Y-140580000D03*
X152990000Y-140580000D03*
X155990000Y-140580000D03*
X158990000Y-140580000D03*
X161990000Y-140580000D03*
D11*
G36*
X165550171Y-139520286D02*
G01*
X165576089Y-139524130D01*
X165601506Y-139530497D01*
X165626176Y-139539324D01*
X165649863Y-139550527D01*
X165672337Y-139563998D01*
X165693383Y-139579606D01*
X165712798Y-139597202D01*
X165730394Y-139616617D01*
X165746002Y-139637663D01*
X165759473Y-139660137D01*
X165770676Y-139683824D01*
X165779503Y-139708494D01*
X165785870Y-139733911D01*
X165789714Y-139759829D01*
X165791000Y-139786000D01*
X165791000Y-141374000D01*
X165789714Y-141400171D01*
X165785870Y-141426089D01*
X165779503Y-141451506D01*
X165770676Y-141476176D01*
X165759473Y-141499863D01*
X165746002Y-141522337D01*
X165730394Y-141543383D01*
X165712798Y-141562798D01*
X165693383Y-141580394D01*
X165672337Y-141596002D01*
X165649863Y-141609473D01*
X165626176Y-141620676D01*
X165601506Y-141629503D01*
X165576089Y-141635870D01*
X165550171Y-141639714D01*
X165524000Y-141641000D01*
X164456000Y-141641000D01*
X164429829Y-141639714D01*
X164403911Y-141635870D01*
X164378494Y-141629503D01*
X164353824Y-141620676D01*
X164330137Y-141609473D01*
X164307663Y-141596002D01*
X164286617Y-141580394D01*
X164267202Y-141562798D01*
X164249606Y-141543383D01*
X164233998Y-141522337D01*
X164220527Y-141499863D01*
X164209324Y-141476176D01*
X164200497Y-141451506D01*
X164194130Y-141426089D01*
X164190286Y-141400171D01*
X164189000Y-141374000D01*
X164189000Y-139786000D01*
X164190286Y-139759829D01*
X164194130Y-139733911D01*
X164200497Y-139708494D01*
X164209324Y-139683824D01*
X164220527Y-139660137D01*
X164233998Y-139637663D01*
X164249606Y-139616617D01*
X164267202Y-139597202D01*
X164286617Y-139579606D01*
X164307663Y-139563998D01*
X164330137Y-139550527D01*
X164353824Y-139539324D01*
X164378494Y-139530497D01*
X164403911Y-139524130D01*
X164429829Y-139520286D01*
X164456000Y-139519000D01*
X165524000Y-139519000D01*
X165550171Y-139520286D01*
X165550171Y-139520286D01*
G37*
D12*
X164990000Y-140580000D03*
D13*
X143140000Y-144900000D03*
X162840000Y-144900000D03*
D15*
X190600000Y-89000000D03*
X190600000Y-86000000D03*
X190600000Y-83000000D03*
X190600000Y-80000000D03*
X190600000Y-77000000D03*
X190600000Y-74000000D03*
X190600000Y-71000000D03*
X190600000Y-68000000D03*
D11*
G36*
X191420171Y-64200286D02*
G01*
X191446089Y-64204130D01*
X191471506Y-64210497D01*
X191496176Y-64219324D01*
X191519863Y-64230527D01*
X191542337Y-64243998D01*
X191563383Y-64259606D01*
X191582798Y-64277202D01*
X191600394Y-64296617D01*
X191616002Y-64317663D01*
X191629473Y-64340137D01*
X191640676Y-64363824D01*
X191649503Y-64388494D01*
X191655870Y-64413911D01*
X191659714Y-64439829D01*
X191661000Y-64466000D01*
X191661000Y-65534000D01*
X191659714Y-65560171D01*
X191655870Y-65586089D01*
X191649503Y-65611506D01*
X191640676Y-65636176D01*
X191629473Y-65659863D01*
X191616002Y-65682337D01*
X191600394Y-65703383D01*
X191582798Y-65722798D01*
X191563383Y-65740394D01*
X191542337Y-65756002D01*
X191519863Y-65769473D01*
X191496176Y-65780676D01*
X191471506Y-65789503D01*
X191446089Y-65795870D01*
X191420171Y-65799714D01*
X191394000Y-65801000D01*
X189806000Y-65801000D01*
X189779829Y-65799714D01*
X189753911Y-65795870D01*
X189728494Y-65789503D01*
X189703824Y-65780676D01*
X189680137Y-65769473D01*
X189657663Y-65756002D01*
X189636617Y-65740394D01*
X189617202Y-65722798D01*
X189599606Y-65703383D01*
X189583998Y-65682337D01*
X189570527Y-65659863D01*
X189559324Y-65636176D01*
X189550497Y-65611506D01*
X189544130Y-65586089D01*
X189540286Y-65560171D01*
X189539000Y-65534000D01*
X189539000Y-64466000D01*
X189540286Y-64439829D01*
X189544130Y-64413911D01*
X189550497Y-64388494D01*
X189559324Y-64363824D01*
X189570527Y-64340137D01*
X189583998Y-64317663D01*
X189599606Y-64296617D01*
X189617202Y-64277202D01*
X189636617Y-64259606D01*
X189657663Y-64243998D01*
X189680137Y-64230527D01*
X189703824Y-64219324D01*
X189728494Y-64210497D01*
X189753911Y-64204130D01*
X189779829Y-64200286D01*
X189806000Y-64199000D01*
X191394000Y-64199000D01*
X191420171Y-64200286D01*
X191420171Y-64200286D01*
G37*
D12*
X190600000Y-65000000D03*
D13*
X194920000Y-86850000D03*
X194920000Y-67150000D03*
D10*
X163500000Y-60000000D03*
X160500000Y-60000000D03*
X157500000Y-60000000D03*
X154500000Y-60000000D03*
X151500000Y-60000000D03*
X148500000Y-60000000D03*
X145500000Y-60000000D03*
X142500000Y-60000000D03*
D11*
G36*
X140060171Y-58940286D02*
G01*
X140086089Y-58944130D01*
X140111506Y-58950497D01*
X140136176Y-58959324D01*
X140159863Y-58970527D01*
X140182337Y-58983998D01*
X140203383Y-58999606D01*
X140222798Y-59017202D01*
X140240394Y-59036617D01*
X140256002Y-59057663D01*
X140269473Y-59080137D01*
X140280676Y-59103824D01*
X140289503Y-59128494D01*
X140295870Y-59153911D01*
X140299714Y-59179829D01*
X140301000Y-59206000D01*
X140301000Y-60794000D01*
X140299714Y-60820171D01*
X140295870Y-60846089D01*
X140289503Y-60871506D01*
X140280676Y-60896176D01*
X140269473Y-60919863D01*
X140256002Y-60942337D01*
X140240394Y-60963383D01*
X140222798Y-60982798D01*
X140203383Y-61000394D01*
X140182337Y-61016002D01*
X140159863Y-61029473D01*
X140136176Y-61040676D01*
X140111506Y-61049503D01*
X140086089Y-61055870D01*
X140060171Y-61059714D01*
X140034000Y-61061000D01*
X138966000Y-61061000D01*
X138939829Y-61059714D01*
X138913911Y-61055870D01*
X138888494Y-61049503D01*
X138863824Y-61040676D01*
X138840137Y-61029473D01*
X138817663Y-61016002D01*
X138796617Y-61000394D01*
X138777202Y-60982798D01*
X138759606Y-60963383D01*
X138743998Y-60942337D01*
X138730527Y-60919863D01*
X138719324Y-60896176D01*
X138710497Y-60871506D01*
X138704130Y-60846089D01*
X138700286Y-60820171D01*
X138699000Y-60794000D01*
X138699000Y-59206000D01*
X138700286Y-59179829D01*
X138704130Y-59153911D01*
X138710497Y-59128494D01*
X138719324Y-59103824D01*
X138730527Y-59080137D01*
X138743998Y-59057663D01*
X138759606Y-59036617D01*
X138777202Y-59017202D01*
X138796617Y-58999606D01*
X138817663Y-58983998D01*
X138840137Y-58970527D01*
X138863824Y-58959324D01*
X138888494Y-58950497D01*
X138913911Y-58944130D01*
X138939829Y-58940286D01*
X138966000Y-58939000D01*
X140034000Y-58939000D01*
X140060171Y-58940286D01*
X140060171Y-58940286D01*
G37*
D12*
X139500000Y-60000000D03*
D13*
X161350000Y-55680000D03*
X141650000Y-55680000D03*
D15*
X109500000Y-65000000D03*
X109500000Y-68000000D03*
X109500000Y-71000000D03*
X109500000Y-74000000D03*
X109500000Y-77000000D03*
X109500000Y-80000000D03*
X109500000Y-83000000D03*
X109500000Y-86000000D03*
D11*
G36*
X110320171Y-88200286D02*
G01*
X110346089Y-88204130D01*
X110371506Y-88210497D01*
X110396176Y-88219324D01*
X110419863Y-88230527D01*
X110442337Y-88243998D01*
X110463383Y-88259606D01*
X110482798Y-88277202D01*
X110500394Y-88296617D01*
X110516002Y-88317663D01*
X110529473Y-88340137D01*
X110540676Y-88363824D01*
X110549503Y-88388494D01*
X110555870Y-88413911D01*
X110559714Y-88439829D01*
X110561000Y-88466000D01*
X110561000Y-89534000D01*
X110559714Y-89560171D01*
X110555870Y-89586089D01*
X110549503Y-89611506D01*
X110540676Y-89636176D01*
X110529473Y-89659863D01*
X110516002Y-89682337D01*
X110500394Y-89703383D01*
X110482798Y-89722798D01*
X110463383Y-89740394D01*
X110442337Y-89756002D01*
X110419863Y-89769473D01*
X110396176Y-89780676D01*
X110371506Y-89789503D01*
X110346089Y-89795870D01*
X110320171Y-89799714D01*
X110294000Y-89801000D01*
X108706000Y-89801000D01*
X108679829Y-89799714D01*
X108653911Y-89795870D01*
X108628494Y-89789503D01*
X108603824Y-89780676D01*
X108580137Y-89769473D01*
X108557663Y-89756002D01*
X108536617Y-89740394D01*
X108517202Y-89722798D01*
X108499606Y-89703383D01*
X108483998Y-89682337D01*
X108470527Y-89659863D01*
X108459324Y-89636176D01*
X108450497Y-89611506D01*
X108444130Y-89586089D01*
X108440286Y-89560171D01*
X108439000Y-89534000D01*
X108439000Y-88466000D01*
X108440286Y-88439829D01*
X108444130Y-88413911D01*
X108450497Y-88388494D01*
X108459324Y-88363824D01*
X108470527Y-88340137D01*
X108483998Y-88317663D01*
X108499606Y-88296617D01*
X108517202Y-88277202D01*
X108536617Y-88259606D01*
X108557663Y-88243998D01*
X108580137Y-88230527D01*
X108603824Y-88219324D01*
X108628494Y-88210497D01*
X108653911Y-88204130D01*
X108679829Y-88200286D01*
X108706000Y-88199000D01*
X110294000Y-88199000D01*
X110320171Y-88200286D01*
X110320171Y-88200286D01*
G37*
D12*
X109500000Y-89000000D03*
D13*
X105180000Y-67150000D03*
X105180000Y-86850000D03*
D14*
X195000000Y-145000000D03*
X195000000Y-55000000D03*
X105000000Y-55000000D03*
M02*
