%FSLAX45Y45*%
G04 Gerber Fmt 4.5, Leading zero omitted, Abs format (unit mm)*
G04 Created by KiCad (PCBNEW (5.1.4)-1) date 2021-11-29 21:13:27*
%MOMM*%
%LPD*%
G04 APERTURE LIST*
%ADD10C,0.050000*%
%ADD11C,0.200000*%
%ADD12C,0.300000*%
G04 APERTURE END LIST*
D10*
X10000000Y-5000000D02*
X10000000Y-15000000D01*
X20000000Y-5000000D02*
X10000000Y-5000000D01*
X20000000Y-15000000D02*
X20000000Y-5000000D01*
X10000000Y-15000000D02*
X20000000Y-15000000D01*
D11*
X13725000Y-13755000D02*
X13755000Y-13785000D01*
X13755000Y-13755000D02*
X13725000Y-13785000D01*
X13875000Y-12205000D02*
X13905000Y-12235000D01*
X13905000Y-12205000D02*
X13875000Y-12235000D01*
X13995000Y-12245000D02*
X14025000Y-12275000D01*
X14025000Y-12245000D02*
X13995000Y-12275000D01*
X14104999Y-12275000D02*
X14134999Y-12305000D01*
X14134999Y-12275000D02*
X14104999Y-12305000D01*
X14170000Y-13290000D02*
X14200000Y-13320000D01*
X14200000Y-13290000D02*
X14170000Y-13320000D01*
X14175000Y-13755000D02*
X14205000Y-13785000D01*
X14205000Y-13755000D02*
X14175000Y-13785000D01*
X16204375Y-9234375D02*
X16234375Y-9264375D01*
X16234375Y-9234375D02*
X16204375Y-9264375D01*
X16470000Y-11029000D02*
X16500000Y-11059000D01*
X16500000Y-11029000D02*
X16470000Y-11059000D01*
X17155000Y-8735000D02*
X17185000Y-8765000D01*
X17185000Y-8735000D02*
X17155000Y-8765000D01*
X17445000Y-12955000D02*
X17475000Y-12985000D01*
X17475000Y-12955000D02*
X17445000Y-12985000D01*
X17600000Y-8091500D02*
X17630000Y-8121500D01*
X17630000Y-8091500D02*
X17600000Y-8121500D01*
X18075000Y-9195000D02*
X18105000Y-9225000D01*
X18105000Y-9195000D02*
X18075000Y-9225000D01*
X18145000Y-9195000D02*
X18175000Y-9225000D01*
X18175000Y-9195000D02*
X18145000Y-9225000D01*
X18215000Y-9195000D02*
X18245000Y-9225000D01*
X18245000Y-9195000D02*
X18215000Y-9225000D01*
X18285000Y-9195000D02*
X18315000Y-9225000D01*
X18315000Y-9195000D02*
X18285000Y-9225000D01*
X18355000Y-9195000D02*
X18385000Y-9225000D01*
X18385000Y-9195000D02*
X18355000Y-9225000D01*
X18425000Y-9195000D02*
X18455000Y-9225000D01*
X18455000Y-9195000D02*
X18425000Y-9225000D01*
X18495000Y-9195000D02*
X18525000Y-9225000D01*
X18525000Y-9195000D02*
X18495000Y-9225000D01*
X17435000Y-8565000D02*
X17465000Y-8595000D01*
X17465000Y-8565000D02*
X17435000Y-8595000D01*
X17435000Y-8685000D02*
X17465000Y-8715000D01*
X17465000Y-8685000D02*
X17435000Y-8715000D01*
X17555000Y-8565000D02*
X17585000Y-8595000D01*
X17585000Y-8565000D02*
X17555000Y-8595000D01*
X17555000Y-8685000D02*
X17585000Y-8715000D01*
X17585000Y-8685000D02*
X17555000Y-8715000D01*
X17685000Y-8565000D02*
X17715000Y-8595000D01*
X17715000Y-8565000D02*
X17685000Y-8595000D01*
X17685000Y-8685000D02*
X17715000Y-8715000D01*
X17715000Y-8685000D02*
X17685000Y-8715000D01*
X17795000Y-8565000D02*
X17825000Y-8595000D01*
X17825000Y-8565000D02*
X17795000Y-8595000D01*
X17795000Y-8685000D02*
X17825000Y-8715000D01*
X17825000Y-8685000D02*
X17795000Y-8715000D01*
X11220000Y-12500000D02*
G75*
G03X11220000Y-12500000I-20000J0D01*
G01*
X11220000Y-12600000D02*
G75*
G03X11220000Y-12600000I-20000J0D01*
G01*
X11220000Y-12700000D02*
G75*
G03X11220000Y-12700000I-20000J0D01*
G01*
X11220000Y-12800000D02*
G75*
G03X11220000Y-12800000I-20000J0D01*
G01*
X11320000Y-11200000D02*
G75*
G03X11320000Y-11200000I-20000J0D01*
G01*
X11420000Y-11200000D02*
G75*
G03X11420000Y-11200000I-20000J0D01*
G01*
X11520000Y-11200000D02*
G75*
G03X11520000Y-11200000I-20000J0D01*
G01*
X11620000Y-11200000D02*
G75*
G03X11620000Y-11200000I-20000J0D01*
G01*
X11720000Y-11200000D02*
G75*
G03X11720000Y-11200000I-20000J0D01*
G01*
X11820000Y-11200000D02*
G75*
G03X11820000Y-11200000I-20000J0D01*
G01*
X11820000Y-13900000D02*
G75*
G03X11820000Y-13900000I-20000J0D01*
G01*
X11920000Y-11200000D02*
G75*
G03X11920000Y-11200000I-20000J0D01*
G01*
X11920000Y-13800000D02*
G75*
G03X11920000Y-13800000I-20000J0D01*
G01*
X12020000Y-11200000D02*
G75*
G03X12020000Y-11200000I-20000J0D01*
G01*
X12020000Y-13700000D02*
G75*
G03X12020000Y-13700000I-20000J0D01*
G01*
X12120000Y-13600000D02*
G75*
G03X12120000Y-13600000I-20000J0D01*
G01*
X12127000Y-12187000D02*
G75*
G03X12127000Y-12187000I-20000J0D01*
G01*
X12220000Y-13500000D02*
G75*
G03X12220000Y-13500000I-20000J0D01*
G01*
X12320000Y-13400000D02*
G75*
G03X12320000Y-13400000I-20000J0D01*
G01*
X13703000Y-11265000D02*
G75*
G03X13703000Y-11265000I-20000J0D01*
G01*
X13950000Y-6302000D02*
G75*
G03X13950000Y-6302000I-20000J0D01*
G01*
X14025000Y-7875000D02*
G75*
G03X14025000Y-7875000I-20000J0D01*
G01*
X14057000Y-11416000D02*
G75*
G03X14057000Y-11416000I-20000J0D01*
G01*
X14058000Y-11057000D02*
G75*
G03X14058000Y-11057000I-20000J0D01*
G01*
X14058000Y-11290000D02*
G75*
G03X14058000Y-11290000I-20000J0D01*
G01*
X14059000Y-11161000D02*
G75*
G03X14059000Y-11161000I-20000J0D01*
G01*
X14111000Y-6213000D02*
G75*
G03X14111000Y-6213000I-20000J0D01*
G01*
X14160000Y-7875000D02*
G75*
G03X14160000Y-7875000I-20000J0D01*
G01*
X14189445Y-10990570D02*
G75*
G03X14189445Y-10990570I-20000J0D01*
G01*
X14275000Y-6300000D02*
G75*
G03X14275000Y-6300000I-20000J0D01*
G01*
X14299448Y-10991396D02*
G75*
G03X14299448Y-10991396I-20000J0D01*
G01*
X14436252Y-10993782D02*
G75*
G03X14436252Y-10993782I-20000J0D01*
G01*
X14536230Y-10996005D02*
G75*
G03X14536230Y-10996005I-20000J0D01*
G01*
X14643000Y-10991000D02*
G75*
G03X14643000Y-10991000I-20000J0D01*
G01*
X14837000Y-11346000D02*
G75*
G03X14837000Y-11346000I-20000J0D01*
G01*
X14841000Y-11239000D02*
G75*
G03X14841000Y-11239000I-20000J0D01*
G01*
X14842000Y-11137000D02*
G75*
G03X14842000Y-11137000I-20000J0D01*
G01*
X14850000Y-10530000D02*
G75*
G03X14850000Y-10530000I-20000J0D01*
G01*
X15043000Y-10819000D02*
G75*
G03X15043000Y-10819000I-20000J0D01*
G01*
X15089000Y-12498000D02*
G75*
G03X15089000Y-12498000I-20000J0D01*
G01*
X15240000Y-10290000D02*
G75*
G03X15240000Y-10290000I-20000J0D01*
G01*
X15268000Y-11224000D02*
G75*
G03X15268000Y-11224000I-20000J0D01*
G01*
X15328000Y-12737000D02*
G75*
G03X15328000Y-12737000I-20000J0D01*
G01*
X15428662Y-11191806D02*
G75*
G03X15428662Y-11191806I-20000J0D01*
G01*
X15547000Y-10942000D02*
G75*
G03X15547000Y-10942000I-20000J0D01*
G01*
X15666000Y-12304000D02*
G75*
G03X15666000Y-12304000I-20000J0D01*
G01*
X15907000Y-12267000D02*
G75*
G03X15907000Y-12267000I-20000J0D01*
G01*
X15909000Y-9361000D02*
G75*
G03X15909000Y-9361000I-20000J0D01*
G01*
X16272000Y-12895000D02*
G75*
G03X16272000Y-12895000I-20000J0D01*
G01*
X16377000Y-13121000D02*
G75*
G03X16377000Y-13121000I-20000J0D01*
G01*
X16383000Y-12382000D02*
G75*
G03X16383000Y-12382000I-20000J0D01*
G01*
X16470000Y-8590000D02*
G75*
G03X16470000Y-8590000I-20000J0D01*
G01*
X16498000Y-12691000D02*
G75*
G03X16498000Y-12691000I-20000J0D01*
G01*
X16680000Y-9360000D02*
G75*
G03X16680000Y-9360000I-20000J0D01*
G01*
X17580000Y-13700000D02*
G75*
G03X17580000Y-13700000I-20000J0D01*
G01*
X17700000Y-13630000D02*
G75*
G03X17700000Y-13630000I-20000J0D01*
G01*
X17820000Y-14300000D02*
G75*
G03X17820000Y-14300000I-20000J0D01*
G01*
X17920000Y-14300000D02*
G75*
G03X17920000Y-14300000I-20000J0D01*
G01*
X18020000Y-14300000D02*
G75*
G03X18020000Y-14300000I-20000J0D01*
G01*
X18020000Y-14400000D02*
G75*
G03X18020000Y-14400000I-20000J0D01*
G01*
X19060000Y-11489000D02*
X19060000Y-11591000D01*
X19009000Y-11540000D02*
X19111000Y-11540000D01*
X19060000Y-11789000D02*
X19060000Y-11891000D01*
X19009000Y-11840000D02*
X19111000Y-11840000D01*
X13950000Y-5949000D02*
X13950000Y-6051000D01*
X13899000Y-6000000D02*
X14001000Y-6000000D01*
X14250000Y-5949000D02*
X14250000Y-6051000D01*
X14199000Y-6000000D02*
X14301000Y-6000000D01*
X14550000Y-5949000D02*
X14550000Y-6051000D01*
X14499000Y-6000000D02*
X14601000Y-6000000D01*
X14850000Y-5949000D02*
X14850000Y-6051000D01*
X14799000Y-6000000D02*
X14901000Y-6000000D01*
X15150000Y-5949000D02*
X15150000Y-6051000D01*
X15099000Y-6000000D02*
X15201000Y-6000000D01*
X15450000Y-5949000D02*
X15450000Y-6051000D01*
X15399000Y-6000000D02*
X15501000Y-6000000D01*
X15750000Y-5949000D02*
X15750000Y-6051000D01*
X15699000Y-6000000D02*
X15801000Y-6000000D01*
X16050000Y-5949000D02*
X16050000Y-6051000D01*
X15999000Y-6000000D02*
X16101000Y-6000000D01*
X16350000Y-5949000D02*
X16350000Y-6051000D01*
X16299000Y-6000000D02*
X16401000Y-6000000D01*
X12590000Y-14007000D02*
X12590000Y-14109000D01*
X12539000Y-14058000D02*
X12641000Y-14058000D01*
X12890000Y-14007000D02*
X12890000Y-14109000D01*
X12839000Y-14058000D02*
X12941000Y-14058000D01*
X19060000Y-12909000D02*
X19060000Y-13011000D01*
X19009000Y-12960000D02*
X19111000Y-12960000D01*
X19060000Y-13209000D02*
X19060000Y-13311000D01*
X19009000Y-13260000D02*
X19111000Y-13260000D01*
X10940000Y-12909000D02*
X10940000Y-13011000D01*
X10889000Y-12960000D02*
X10991000Y-12960000D01*
X10940000Y-13209000D02*
X10940000Y-13311000D01*
X10889000Y-13260000D02*
X10991000Y-13260000D01*
X10940000Y-11469000D02*
X10940000Y-11571000D01*
X10889000Y-11520000D02*
X10991000Y-11520000D01*
X10940000Y-11769000D02*
X10940000Y-11871000D01*
X10889000Y-11820000D02*
X10991000Y-11820000D01*
X19060000Y-6449000D02*
X19060000Y-6551000D01*
X19009000Y-6500000D02*
X19111000Y-6500000D01*
X19060000Y-6749000D02*
X19060000Y-6851000D01*
X19009000Y-6800000D02*
X19111000Y-6800000D01*
X19060000Y-7049000D02*
X19060000Y-7151000D01*
X19009000Y-7100000D02*
X19111000Y-7100000D01*
X19060000Y-7349000D02*
X19060000Y-7451000D01*
X19009000Y-7400000D02*
X19111000Y-7400000D01*
X19060000Y-7649000D02*
X19060000Y-7751000D01*
X19009000Y-7700000D02*
X19111000Y-7700000D01*
X19060000Y-7949000D02*
X19060000Y-8051000D01*
X19009000Y-8000000D02*
X19111000Y-8000000D01*
X19060000Y-8249000D02*
X19060000Y-8351000D01*
X19009000Y-8300000D02*
X19111000Y-8300000D01*
X19060000Y-8549000D02*
X19060000Y-8651000D01*
X19009000Y-8600000D02*
X19111000Y-8600000D01*
X19060000Y-8849000D02*
X19060000Y-8951000D01*
X19009000Y-8900000D02*
X19111000Y-8900000D01*
X19060000Y-10099000D02*
X19060000Y-10201000D01*
X19009000Y-10150000D02*
X19111000Y-10150000D01*
X19060000Y-10399000D02*
X19060000Y-10501000D01*
X19009000Y-10450000D02*
X19111000Y-10450000D01*
X10940000Y-10099000D02*
X10940000Y-10201000D01*
X10889000Y-10150000D02*
X10991000Y-10150000D01*
X10940000Y-10399000D02*
X10940000Y-10501000D01*
X10889000Y-10450000D02*
X10991000Y-10450000D01*
X14099000Y-14007000D02*
X14099000Y-14109000D01*
X14048000Y-14058000D02*
X14150000Y-14058000D01*
X14399000Y-14007000D02*
X14399000Y-14109000D01*
X14348000Y-14058000D02*
X14450000Y-14058000D01*
X14699000Y-14007000D02*
X14699000Y-14109000D01*
X14648000Y-14058000D02*
X14750000Y-14058000D01*
X14999000Y-14007000D02*
X14999000Y-14109000D01*
X14948000Y-14058000D02*
X15050000Y-14058000D01*
X15299000Y-14007000D02*
X15299000Y-14109000D01*
X15248000Y-14058000D02*
X15350000Y-14058000D01*
X15599000Y-14007000D02*
X15599000Y-14109000D01*
X15548000Y-14058000D02*
X15650000Y-14058000D01*
X15899000Y-14007000D02*
X15899000Y-14109000D01*
X15848000Y-14058000D02*
X15950000Y-14058000D01*
X16199000Y-14007000D02*
X16199000Y-14109000D01*
X16148000Y-14058000D02*
X16250000Y-14058000D01*
X16499000Y-14007000D02*
X16499000Y-14109000D01*
X16448000Y-14058000D02*
X16550000Y-14058000D01*
X10950000Y-6449000D02*
X10950000Y-6551000D01*
X10899000Y-6500000D02*
X11001000Y-6500000D01*
X10950000Y-6749000D02*
X10950000Y-6851000D01*
X10899000Y-6800000D02*
X11001000Y-6800000D01*
X10950000Y-7049000D02*
X10950000Y-7151000D01*
X10899000Y-7100000D02*
X11001000Y-7100000D01*
X10950000Y-7349000D02*
X10950000Y-7451000D01*
X10899000Y-7400000D02*
X11001000Y-7400000D01*
X10950000Y-7649000D02*
X10950000Y-7751000D01*
X10899000Y-7700000D02*
X11001000Y-7700000D01*
X10950000Y-7949000D02*
X10950000Y-8051000D01*
X10899000Y-8000000D02*
X11001000Y-8000000D01*
X10950000Y-8249000D02*
X10950000Y-8351000D01*
X10899000Y-8300000D02*
X11001000Y-8300000D01*
X10950000Y-8549000D02*
X10950000Y-8651000D01*
X10899000Y-8600000D02*
X11001000Y-8600000D01*
X10950000Y-8849000D02*
X10950000Y-8951000D01*
X10899000Y-8900000D02*
X11001000Y-8900000D01*
D12*
X10283928Y-15468214D02*
X10283928Y-15168214D01*
X10355357Y-15168214D01*
X10398214Y-15182500D01*
X10426786Y-15211071D01*
X10441071Y-15239643D01*
X10455357Y-15296786D01*
X10455357Y-15339643D01*
X10441071Y-15396786D01*
X10426786Y-15425357D01*
X10398214Y-15453929D01*
X10355357Y-15468214D01*
X10283928Y-15468214D01*
X10583928Y-15468214D02*
X10583928Y-15268214D01*
X10583928Y-15325357D02*
X10598214Y-15296786D01*
X10612500Y-15282500D01*
X10641071Y-15268214D01*
X10669643Y-15268214D01*
X10769643Y-15468214D02*
X10769643Y-15268214D01*
X10769643Y-15168214D02*
X10755357Y-15182500D01*
X10769643Y-15196786D01*
X10783928Y-15182500D01*
X10769643Y-15168214D01*
X10769643Y-15196786D01*
X10955357Y-15468214D02*
X10926786Y-15453929D01*
X10912500Y-15425357D01*
X10912500Y-15168214D01*
X11112500Y-15468214D02*
X11083928Y-15453929D01*
X11069643Y-15425357D01*
X11069643Y-15168214D01*
X11455357Y-15468214D02*
X11455357Y-15168214D01*
X11555357Y-15382500D01*
X11655357Y-15168214D01*
X11655357Y-15468214D01*
X11926786Y-15468214D02*
X11926786Y-15311071D01*
X11912500Y-15282500D01*
X11883928Y-15268214D01*
X11826786Y-15268214D01*
X11798214Y-15282500D01*
X11926786Y-15453929D02*
X11898214Y-15468214D01*
X11826786Y-15468214D01*
X11798214Y-15453929D01*
X11783928Y-15425357D01*
X11783928Y-15396786D01*
X11798214Y-15368214D01*
X11826786Y-15353929D01*
X11898214Y-15353929D01*
X11926786Y-15339643D01*
X12069643Y-15268214D02*
X12069643Y-15568214D01*
X12069643Y-15282500D02*
X12098214Y-15268214D01*
X12155357Y-15268214D01*
X12183928Y-15282500D01*
X12198214Y-15296786D01*
X12212500Y-15325357D01*
X12212500Y-15411071D01*
X12198214Y-15439643D01*
X12183928Y-15453929D01*
X12155357Y-15468214D01*
X12098214Y-15468214D01*
X12069643Y-15453929D01*
X12341071Y-15439643D02*
X12355357Y-15453929D01*
X12341071Y-15468214D01*
X12326786Y-15453929D01*
X12341071Y-15439643D01*
X12341071Y-15468214D01*
X12341071Y-15282500D02*
X12355357Y-15296786D01*
X12341071Y-15311071D01*
X12326786Y-15296786D01*
X12341071Y-15282500D01*
X12341071Y-15311071D01*
X9967500Y-15947500D02*
X9997500Y-15977500D01*
X9997500Y-15947500D02*
X9967500Y-15977500D01*
X10341071Y-15798214D02*
X10369643Y-15798214D01*
X10398214Y-15812500D01*
X10412500Y-15826786D01*
X10426786Y-15855357D01*
X10441071Y-15912500D01*
X10441071Y-15983929D01*
X10426786Y-16041071D01*
X10412500Y-16069643D01*
X10398214Y-16083929D01*
X10369643Y-16098214D01*
X10341071Y-16098214D01*
X10312500Y-16083929D01*
X10298214Y-16069643D01*
X10283928Y-16041071D01*
X10269643Y-15983929D01*
X10269643Y-15912500D01*
X10283928Y-15855357D01*
X10298214Y-15826786D01*
X10312500Y-15812500D01*
X10341071Y-15798214D01*
X10569643Y-16069643D02*
X10583928Y-16083929D01*
X10569643Y-16098214D01*
X10555357Y-16083929D01*
X10569643Y-16069643D01*
X10569643Y-16098214D01*
X10683928Y-15798214D02*
X10869643Y-15798214D01*
X10769643Y-15912500D01*
X10812500Y-15912500D01*
X10841071Y-15926786D01*
X10855357Y-15941071D01*
X10869643Y-15969643D01*
X10869643Y-16041071D01*
X10855357Y-16069643D01*
X10841071Y-16083929D01*
X10812500Y-16098214D01*
X10726786Y-16098214D01*
X10698214Y-16083929D01*
X10683928Y-16069643D01*
X11055357Y-15798214D02*
X11083928Y-15798214D01*
X11112500Y-15812500D01*
X11126786Y-15826786D01*
X11141071Y-15855357D01*
X11155357Y-15912500D01*
X11155357Y-15983929D01*
X11141071Y-16041071D01*
X11126786Y-16069643D01*
X11112500Y-16083929D01*
X11083928Y-16098214D01*
X11055357Y-16098214D01*
X11026786Y-16083929D01*
X11012500Y-16069643D01*
X10998214Y-16041071D01*
X10983928Y-15983929D01*
X10983928Y-15912500D01*
X10998214Y-15855357D01*
X11012500Y-15826786D01*
X11026786Y-15812500D01*
X11055357Y-15798214D01*
X11283928Y-16098214D02*
X11283928Y-15898214D01*
X11283928Y-15926786D02*
X11298214Y-15912500D01*
X11326786Y-15898214D01*
X11369643Y-15898214D01*
X11398214Y-15912500D01*
X11412500Y-15941071D01*
X11412500Y-16098214D01*
X11412500Y-15941071D02*
X11426786Y-15912500D01*
X11455357Y-15898214D01*
X11498214Y-15898214D01*
X11526786Y-15912500D01*
X11541071Y-15941071D01*
X11541071Y-16098214D01*
X11683928Y-16098214D02*
X11683928Y-15898214D01*
X11683928Y-15926786D02*
X11698214Y-15912500D01*
X11726786Y-15898214D01*
X11769643Y-15898214D01*
X11798214Y-15912500D01*
X11812500Y-15941071D01*
X11812500Y-16098214D01*
X11812500Y-15941071D02*
X11826786Y-15912500D01*
X11855357Y-15898214D01*
X11898214Y-15898214D01*
X11926786Y-15912500D01*
X11941071Y-15941071D01*
X11941071Y-16098214D01*
X12526786Y-15783929D02*
X12269643Y-16169643D01*
X12912500Y-15798214D02*
X12941071Y-15798214D01*
X12969643Y-15812500D01*
X12983928Y-15826786D01*
X12998214Y-15855357D01*
X13012500Y-15912500D01*
X13012500Y-15983929D01*
X12998214Y-16041071D01*
X12983928Y-16069643D01*
X12969643Y-16083929D01*
X12941071Y-16098214D01*
X12912500Y-16098214D01*
X12883928Y-16083929D01*
X12869643Y-16069643D01*
X12855357Y-16041071D01*
X12841071Y-15983929D01*
X12841071Y-15912500D01*
X12855357Y-15855357D01*
X12869643Y-15826786D01*
X12883928Y-15812500D01*
X12912500Y-15798214D01*
X13141071Y-16069643D02*
X13155357Y-16083929D01*
X13141071Y-16098214D01*
X13126786Y-16083929D01*
X13141071Y-16069643D01*
X13141071Y-16098214D01*
X13341071Y-15798214D02*
X13369643Y-15798214D01*
X13398214Y-15812500D01*
X13412500Y-15826786D01*
X13426786Y-15855357D01*
X13441071Y-15912500D01*
X13441071Y-15983929D01*
X13426786Y-16041071D01*
X13412500Y-16069643D01*
X13398214Y-16083929D01*
X13369643Y-16098214D01*
X13341071Y-16098214D01*
X13312500Y-16083929D01*
X13298214Y-16069643D01*
X13283928Y-16041071D01*
X13269643Y-15983929D01*
X13269643Y-15912500D01*
X13283928Y-15855357D01*
X13298214Y-15826786D01*
X13312500Y-15812500D01*
X13341071Y-15798214D01*
X13726786Y-16098214D02*
X13555357Y-16098214D01*
X13641071Y-16098214D02*
X13641071Y-15798214D01*
X13612500Y-15841071D01*
X13583928Y-15869643D01*
X13555357Y-15883929D01*
X13841071Y-15826786D02*
X13855357Y-15812500D01*
X13883928Y-15798214D01*
X13955357Y-15798214D01*
X13983928Y-15812500D01*
X13998214Y-15826786D01*
X14012500Y-15855357D01*
X14012500Y-15883929D01*
X13998214Y-15926786D01*
X13826786Y-16098214D01*
X14012500Y-16098214D01*
X14126786Y-15798214D02*
X14126786Y-15855357D01*
X14241071Y-15798214D02*
X14241071Y-15855357D01*
X14683928Y-16212500D02*
X14669643Y-16198214D01*
X14641071Y-16155357D01*
X14626786Y-16126786D01*
X14612500Y-16083929D01*
X14598214Y-16012500D01*
X14598214Y-15955357D01*
X14612500Y-15883929D01*
X14626786Y-15841071D01*
X14641071Y-15812500D01*
X14669643Y-15769643D01*
X14683928Y-15755357D01*
X14783928Y-15826786D02*
X14798214Y-15812500D01*
X14826786Y-15798214D01*
X14898214Y-15798214D01*
X14926786Y-15812500D01*
X14941071Y-15826786D01*
X14955357Y-15855357D01*
X14955357Y-15883929D01*
X14941071Y-15926786D01*
X14769643Y-16098214D01*
X14955357Y-16098214D01*
X15212500Y-15798214D02*
X15155357Y-15798214D01*
X15126786Y-15812500D01*
X15112500Y-15826786D01*
X15083928Y-15869643D01*
X15069643Y-15926786D01*
X15069643Y-16041071D01*
X15083928Y-16069643D01*
X15098214Y-16083929D01*
X15126786Y-16098214D01*
X15183928Y-16098214D01*
X15212500Y-16083929D01*
X15226786Y-16069643D01*
X15241071Y-16041071D01*
X15241071Y-15969643D01*
X15226786Y-15941071D01*
X15212500Y-15926786D01*
X15183928Y-15912500D01*
X15126786Y-15912500D01*
X15098214Y-15926786D01*
X15083928Y-15941071D01*
X15069643Y-15969643D01*
X15598214Y-16098214D02*
X15598214Y-15798214D01*
X15726786Y-16098214D02*
X15726786Y-15941071D01*
X15712500Y-15912500D01*
X15683928Y-15898214D01*
X15641071Y-15898214D01*
X15612500Y-15912500D01*
X15598214Y-15926786D01*
X15912500Y-16098214D02*
X15883928Y-16083929D01*
X15869643Y-16069643D01*
X15855357Y-16041071D01*
X15855357Y-15955357D01*
X15869643Y-15926786D01*
X15883928Y-15912500D01*
X15912500Y-15898214D01*
X15955357Y-15898214D01*
X15983928Y-15912500D01*
X15998214Y-15926786D01*
X16012500Y-15955357D01*
X16012500Y-16041071D01*
X15998214Y-16069643D01*
X15983928Y-16083929D01*
X15955357Y-16098214D01*
X15912500Y-16098214D01*
X16183928Y-16098214D02*
X16155357Y-16083929D01*
X16141071Y-16055357D01*
X16141071Y-15798214D01*
X16412500Y-16083929D02*
X16383928Y-16098214D01*
X16326786Y-16098214D01*
X16298214Y-16083929D01*
X16283928Y-16055357D01*
X16283928Y-15941071D01*
X16298214Y-15912500D01*
X16326786Y-15898214D01*
X16383928Y-15898214D01*
X16412500Y-15912500D01*
X16426786Y-15941071D01*
X16426786Y-15969643D01*
X16283928Y-15998214D01*
X16541071Y-16083929D02*
X16569643Y-16098214D01*
X16626786Y-16098214D01*
X16655357Y-16083929D01*
X16669643Y-16055357D01*
X16669643Y-16041071D01*
X16655357Y-16012500D01*
X16626786Y-15998214D01*
X16583928Y-15998214D01*
X16555357Y-15983929D01*
X16541071Y-15955357D01*
X16541071Y-15941071D01*
X16555357Y-15912500D01*
X16583928Y-15898214D01*
X16626786Y-15898214D01*
X16655357Y-15912500D01*
X16769643Y-16212500D02*
X16783928Y-16198214D01*
X16812500Y-16155357D01*
X16826786Y-16126786D01*
X16841071Y-16083929D01*
X16855357Y-16012500D01*
X16855357Y-15955357D01*
X16841071Y-15883929D01*
X16826786Y-15841071D01*
X16812500Y-15812500D01*
X16783928Y-15769643D01*
X16769643Y-15755357D01*
X9997500Y-16358500D02*
G75*
G03X9997500Y-16358500I-20000J0D01*
G01*
X10341071Y-16194214D02*
X10369643Y-16194214D01*
X10398214Y-16208500D01*
X10412500Y-16222786D01*
X10426786Y-16251357D01*
X10441071Y-16308500D01*
X10441071Y-16379929D01*
X10426786Y-16437071D01*
X10412500Y-16465643D01*
X10398214Y-16479929D01*
X10369643Y-16494214D01*
X10341071Y-16494214D01*
X10312500Y-16479929D01*
X10298214Y-16465643D01*
X10283928Y-16437071D01*
X10269643Y-16379929D01*
X10269643Y-16308500D01*
X10283928Y-16251357D01*
X10298214Y-16222786D01*
X10312500Y-16208500D01*
X10341071Y-16194214D01*
X10569643Y-16465643D02*
X10583928Y-16479929D01*
X10569643Y-16494214D01*
X10555357Y-16479929D01*
X10569643Y-16465643D01*
X10569643Y-16494214D01*
X10841071Y-16294214D02*
X10841071Y-16494214D01*
X10769643Y-16179929D02*
X10698214Y-16394214D01*
X10883928Y-16394214D01*
X11055357Y-16194214D02*
X11083928Y-16194214D01*
X11112500Y-16208500D01*
X11126786Y-16222786D01*
X11141071Y-16251357D01*
X11155357Y-16308500D01*
X11155357Y-16379929D01*
X11141071Y-16437071D01*
X11126786Y-16465643D01*
X11112500Y-16479929D01*
X11083928Y-16494214D01*
X11055357Y-16494214D01*
X11026786Y-16479929D01*
X11012500Y-16465643D01*
X10998214Y-16437071D01*
X10983928Y-16379929D01*
X10983928Y-16308500D01*
X10998214Y-16251357D01*
X11012500Y-16222786D01*
X11026786Y-16208500D01*
X11055357Y-16194214D01*
X11283928Y-16494214D02*
X11283928Y-16294214D01*
X11283928Y-16322786D02*
X11298214Y-16308500D01*
X11326786Y-16294214D01*
X11369643Y-16294214D01*
X11398214Y-16308500D01*
X11412500Y-16337071D01*
X11412500Y-16494214D01*
X11412500Y-16337071D02*
X11426786Y-16308500D01*
X11455357Y-16294214D01*
X11498214Y-16294214D01*
X11526786Y-16308500D01*
X11541071Y-16337071D01*
X11541071Y-16494214D01*
X11683928Y-16494214D02*
X11683928Y-16294214D01*
X11683928Y-16322786D02*
X11698214Y-16308500D01*
X11726786Y-16294214D01*
X11769643Y-16294214D01*
X11798214Y-16308500D01*
X11812500Y-16337071D01*
X11812500Y-16494214D01*
X11812500Y-16337071D02*
X11826786Y-16308500D01*
X11855357Y-16294214D01*
X11898214Y-16294214D01*
X11926786Y-16308500D01*
X11941071Y-16337071D01*
X11941071Y-16494214D01*
X12526786Y-16179929D02*
X12269643Y-16565643D01*
X12912500Y-16194214D02*
X12941071Y-16194214D01*
X12969643Y-16208500D01*
X12983928Y-16222786D01*
X12998214Y-16251357D01*
X13012500Y-16308500D01*
X13012500Y-16379929D01*
X12998214Y-16437071D01*
X12983928Y-16465643D01*
X12969643Y-16479929D01*
X12941071Y-16494214D01*
X12912500Y-16494214D01*
X12883928Y-16479929D01*
X12869643Y-16465643D01*
X12855357Y-16437071D01*
X12841071Y-16379929D01*
X12841071Y-16308500D01*
X12855357Y-16251357D01*
X12869643Y-16222786D01*
X12883928Y-16208500D01*
X12912500Y-16194214D01*
X13141071Y-16465643D02*
X13155357Y-16479929D01*
X13141071Y-16494214D01*
X13126786Y-16479929D01*
X13141071Y-16465643D01*
X13141071Y-16494214D01*
X13341071Y-16194214D02*
X13369643Y-16194214D01*
X13398214Y-16208500D01*
X13412500Y-16222786D01*
X13426786Y-16251357D01*
X13441071Y-16308500D01*
X13441071Y-16379929D01*
X13426786Y-16437071D01*
X13412500Y-16465643D01*
X13398214Y-16479929D01*
X13369643Y-16494214D01*
X13341071Y-16494214D01*
X13312500Y-16479929D01*
X13298214Y-16465643D01*
X13283928Y-16437071D01*
X13269643Y-16379929D01*
X13269643Y-16308500D01*
X13283928Y-16251357D01*
X13298214Y-16222786D01*
X13312500Y-16208500D01*
X13341071Y-16194214D01*
X13726786Y-16494214D02*
X13555357Y-16494214D01*
X13641071Y-16494214D02*
X13641071Y-16194214D01*
X13612500Y-16237071D01*
X13583928Y-16265643D01*
X13555357Y-16279929D01*
X13983928Y-16194214D02*
X13926786Y-16194214D01*
X13898214Y-16208500D01*
X13883928Y-16222786D01*
X13855357Y-16265643D01*
X13841071Y-16322786D01*
X13841071Y-16437071D01*
X13855357Y-16465643D01*
X13869643Y-16479929D01*
X13898214Y-16494214D01*
X13955357Y-16494214D01*
X13983928Y-16479929D01*
X13998214Y-16465643D01*
X14012500Y-16437071D01*
X14012500Y-16365643D01*
X13998214Y-16337071D01*
X13983928Y-16322786D01*
X13955357Y-16308500D01*
X13898214Y-16308500D01*
X13869643Y-16322786D01*
X13855357Y-16337071D01*
X13841071Y-16365643D01*
X14126786Y-16194214D02*
X14126786Y-16251357D01*
X14241071Y-16194214D02*
X14241071Y-16251357D01*
X14683928Y-16608500D02*
X14669643Y-16594214D01*
X14641071Y-16551357D01*
X14626786Y-16522786D01*
X14612500Y-16479929D01*
X14598214Y-16408500D01*
X14598214Y-16351357D01*
X14612500Y-16279929D01*
X14626786Y-16237071D01*
X14641071Y-16208500D01*
X14669643Y-16165643D01*
X14683928Y-16151357D01*
X14926786Y-16194214D02*
X14869643Y-16194214D01*
X14841071Y-16208500D01*
X14826786Y-16222786D01*
X14798214Y-16265643D01*
X14783928Y-16322786D01*
X14783928Y-16437071D01*
X14798214Y-16465643D01*
X14812500Y-16479929D01*
X14841071Y-16494214D01*
X14898214Y-16494214D01*
X14926786Y-16479929D01*
X14941071Y-16465643D01*
X14955357Y-16437071D01*
X14955357Y-16365643D01*
X14941071Y-16337071D01*
X14926786Y-16322786D01*
X14898214Y-16308500D01*
X14841071Y-16308500D01*
X14812500Y-16322786D01*
X14798214Y-16337071D01*
X14783928Y-16365643D01*
X15141071Y-16194214D02*
X15169643Y-16194214D01*
X15198214Y-16208500D01*
X15212500Y-16222786D01*
X15226786Y-16251357D01*
X15241071Y-16308500D01*
X15241071Y-16379929D01*
X15226786Y-16437071D01*
X15212500Y-16465643D01*
X15198214Y-16479929D01*
X15169643Y-16494214D01*
X15141071Y-16494214D01*
X15112500Y-16479929D01*
X15098214Y-16465643D01*
X15083928Y-16437071D01*
X15069643Y-16379929D01*
X15069643Y-16308500D01*
X15083928Y-16251357D01*
X15098214Y-16222786D01*
X15112500Y-16208500D01*
X15141071Y-16194214D01*
X15598214Y-16494214D02*
X15598214Y-16194214D01*
X15726786Y-16494214D02*
X15726786Y-16337071D01*
X15712500Y-16308500D01*
X15683928Y-16294214D01*
X15641071Y-16294214D01*
X15612500Y-16308500D01*
X15598214Y-16322786D01*
X15912500Y-16494214D02*
X15883928Y-16479929D01*
X15869643Y-16465643D01*
X15855357Y-16437071D01*
X15855357Y-16351357D01*
X15869643Y-16322786D01*
X15883928Y-16308500D01*
X15912500Y-16294214D01*
X15955357Y-16294214D01*
X15983928Y-16308500D01*
X15998214Y-16322786D01*
X16012500Y-16351357D01*
X16012500Y-16437071D01*
X15998214Y-16465643D01*
X15983928Y-16479929D01*
X15955357Y-16494214D01*
X15912500Y-16494214D01*
X16183928Y-16494214D02*
X16155357Y-16479929D01*
X16141071Y-16451357D01*
X16141071Y-16194214D01*
X16412500Y-16479929D02*
X16383928Y-16494214D01*
X16326786Y-16494214D01*
X16298214Y-16479929D01*
X16283928Y-16451357D01*
X16283928Y-16337071D01*
X16298214Y-16308500D01*
X16326786Y-16294214D01*
X16383928Y-16294214D01*
X16412500Y-16308500D01*
X16426786Y-16337071D01*
X16426786Y-16365643D01*
X16283928Y-16394214D01*
X16541071Y-16479929D02*
X16569643Y-16494214D01*
X16626786Y-16494214D01*
X16655357Y-16479929D01*
X16669643Y-16451357D01*
X16669643Y-16437071D01*
X16655357Y-16408500D01*
X16626786Y-16394214D01*
X16583928Y-16394214D01*
X16555357Y-16379929D01*
X16541071Y-16351357D01*
X16541071Y-16337071D01*
X16555357Y-16308500D01*
X16583928Y-16294214D01*
X16626786Y-16294214D01*
X16655357Y-16308500D01*
X16769643Y-16608500D02*
X16783928Y-16594214D01*
X16812500Y-16551357D01*
X16826786Y-16522786D01*
X16841071Y-16479929D01*
X16855357Y-16408500D01*
X16855357Y-16351357D01*
X16841071Y-16279929D01*
X16826786Y-16237071D01*
X16812500Y-16208500D01*
X16783928Y-16165643D01*
X16769643Y-16151357D01*
X9946500Y-16703500D02*
X9946500Y-16805500D01*
X9895500Y-16754500D02*
X9997500Y-16754500D01*
X10441071Y-16890214D02*
X10269643Y-16890214D01*
X10355357Y-16890214D02*
X10355357Y-16590214D01*
X10326786Y-16633071D01*
X10298214Y-16661643D01*
X10269643Y-16675929D01*
X10569643Y-16861643D02*
X10583928Y-16875929D01*
X10569643Y-16890214D01*
X10555357Y-16875929D01*
X10569643Y-16861643D01*
X10569643Y-16890214D01*
X10769643Y-16590214D02*
X10798214Y-16590214D01*
X10826786Y-16604500D01*
X10841071Y-16618786D01*
X10855357Y-16647357D01*
X10869643Y-16704500D01*
X10869643Y-16775929D01*
X10855357Y-16833072D01*
X10841071Y-16861643D01*
X10826786Y-16875929D01*
X10798214Y-16890214D01*
X10769643Y-16890214D01*
X10741071Y-16875929D01*
X10726786Y-16861643D01*
X10712500Y-16833072D01*
X10698214Y-16775929D01*
X10698214Y-16704500D01*
X10712500Y-16647357D01*
X10726786Y-16618786D01*
X10741071Y-16604500D01*
X10769643Y-16590214D01*
X10983928Y-16618786D02*
X10998214Y-16604500D01*
X11026786Y-16590214D01*
X11098214Y-16590214D01*
X11126786Y-16604500D01*
X11141071Y-16618786D01*
X11155357Y-16647357D01*
X11155357Y-16675929D01*
X11141071Y-16718786D01*
X10969643Y-16890214D01*
X11155357Y-16890214D01*
X11283928Y-16890214D02*
X11283928Y-16690214D01*
X11283928Y-16718786D02*
X11298214Y-16704500D01*
X11326786Y-16690214D01*
X11369643Y-16690214D01*
X11398214Y-16704500D01*
X11412500Y-16733071D01*
X11412500Y-16890214D01*
X11412500Y-16733071D02*
X11426786Y-16704500D01*
X11455357Y-16690214D01*
X11498214Y-16690214D01*
X11526786Y-16704500D01*
X11541071Y-16733071D01*
X11541071Y-16890214D01*
X11683928Y-16890214D02*
X11683928Y-16690214D01*
X11683928Y-16718786D02*
X11698214Y-16704500D01*
X11726786Y-16690214D01*
X11769643Y-16690214D01*
X11798214Y-16704500D01*
X11812500Y-16733071D01*
X11812500Y-16890214D01*
X11812500Y-16733071D02*
X11826786Y-16704500D01*
X11855357Y-16690214D01*
X11898214Y-16690214D01*
X11926786Y-16704500D01*
X11941071Y-16733071D01*
X11941071Y-16890214D01*
X12526786Y-16575929D02*
X12269643Y-16961643D01*
X12912500Y-16590214D02*
X12941071Y-16590214D01*
X12969643Y-16604500D01*
X12983928Y-16618786D01*
X12998214Y-16647357D01*
X13012500Y-16704500D01*
X13012500Y-16775929D01*
X12998214Y-16833072D01*
X12983928Y-16861643D01*
X12969643Y-16875929D01*
X12941071Y-16890214D01*
X12912500Y-16890214D01*
X12883928Y-16875929D01*
X12869643Y-16861643D01*
X12855357Y-16833072D01*
X12841071Y-16775929D01*
X12841071Y-16704500D01*
X12855357Y-16647357D01*
X12869643Y-16618786D01*
X12883928Y-16604500D01*
X12912500Y-16590214D01*
X13141071Y-16861643D02*
X13155357Y-16875929D01*
X13141071Y-16890214D01*
X13126786Y-16875929D01*
X13141071Y-16861643D01*
X13141071Y-16890214D01*
X13341071Y-16590214D02*
X13369643Y-16590214D01*
X13398214Y-16604500D01*
X13412500Y-16618786D01*
X13426786Y-16647357D01*
X13441071Y-16704500D01*
X13441071Y-16775929D01*
X13426786Y-16833072D01*
X13412500Y-16861643D01*
X13398214Y-16875929D01*
X13369643Y-16890214D01*
X13341071Y-16890214D01*
X13312500Y-16875929D01*
X13298214Y-16861643D01*
X13283928Y-16833072D01*
X13269643Y-16775929D01*
X13269643Y-16704500D01*
X13283928Y-16647357D01*
X13298214Y-16618786D01*
X13312500Y-16604500D01*
X13341071Y-16590214D01*
X13698214Y-16690214D02*
X13698214Y-16890214D01*
X13626786Y-16575929D02*
X13555357Y-16790214D01*
X13741071Y-16790214D01*
X13912500Y-16590214D02*
X13941071Y-16590214D01*
X13969643Y-16604500D01*
X13983928Y-16618786D01*
X13998214Y-16647357D01*
X14012500Y-16704500D01*
X14012500Y-16775929D01*
X13998214Y-16833072D01*
X13983928Y-16861643D01*
X13969643Y-16875929D01*
X13941071Y-16890214D01*
X13912500Y-16890214D01*
X13883928Y-16875929D01*
X13869643Y-16861643D01*
X13855357Y-16833072D01*
X13841071Y-16775929D01*
X13841071Y-16704500D01*
X13855357Y-16647357D01*
X13869643Y-16618786D01*
X13883928Y-16604500D01*
X13912500Y-16590214D01*
X14126786Y-16590214D02*
X14126786Y-16647357D01*
X14241071Y-16590214D02*
X14241071Y-16647357D01*
X14683928Y-17004500D02*
X14669643Y-16990214D01*
X14641071Y-16947357D01*
X14626786Y-16918786D01*
X14612500Y-16875929D01*
X14598214Y-16804500D01*
X14598214Y-16747357D01*
X14612500Y-16675929D01*
X14626786Y-16633071D01*
X14641071Y-16604500D01*
X14669643Y-16561643D01*
X14683928Y-16547357D01*
X14941071Y-16590214D02*
X14798214Y-16590214D01*
X14783928Y-16733071D01*
X14798214Y-16718786D01*
X14826786Y-16704500D01*
X14898214Y-16704500D01*
X14926786Y-16718786D01*
X14941071Y-16733071D01*
X14955357Y-16761643D01*
X14955357Y-16833072D01*
X14941071Y-16861643D01*
X14926786Y-16875929D01*
X14898214Y-16890214D01*
X14826786Y-16890214D01*
X14798214Y-16875929D01*
X14783928Y-16861643D01*
X15141071Y-16590214D02*
X15169643Y-16590214D01*
X15198214Y-16604500D01*
X15212500Y-16618786D01*
X15226786Y-16647357D01*
X15241071Y-16704500D01*
X15241071Y-16775929D01*
X15226786Y-16833072D01*
X15212500Y-16861643D01*
X15198214Y-16875929D01*
X15169643Y-16890214D01*
X15141071Y-16890214D01*
X15112500Y-16875929D01*
X15098214Y-16861643D01*
X15083928Y-16833072D01*
X15069643Y-16775929D01*
X15069643Y-16704500D01*
X15083928Y-16647357D01*
X15098214Y-16618786D01*
X15112500Y-16604500D01*
X15141071Y-16590214D01*
X15598214Y-16890214D02*
X15598214Y-16590214D01*
X15726786Y-16890214D02*
X15726786Y-16733071D01*
X15712500Y-16704500D01*
X15683928Y-16690214D01*
X15641071Y-16690214D01*
X15612500Y-16704500D01*
X15598214Y-16718786D01*
X15912500Y-16890214D02*
X15883928Y-16875929D01*
X15869643Y-16861643D01*
X15855357Y-16833072D01*
X15855357Y-16747357D01*
X15869643Y-16718786D01*
X15883928Y-16704500D01*
X15912500Y-16690214D01*
X15955357Y-16690214D01*
X15983928Y-16704500D01*
X15998214Y-16718786D01*
X16012500Y-16747357D01*
X16012500Y-16833072D01*
X15998214Y-16861643D01*
X15983928Y-16875929D01*
X15955357Y-16890214D01*
X15912500Y-16890214D01*
X16183928Y-16890214D02*
X16155357Y-16875929D01*
X16141071Y-16847357D01*
X16141071Y-16590214D01*
X16412500Y-16875929D02*
X16383928Y-16890214D01*
X16326786Y-16890214D01*
X16298214Y-16875929D01*
X16283928Y-16847357D01*
X16283928Y-16733071D01*
X16298214Y-16704500D01*
X16326786Y-16690214D01*
X16383928Y-16690214D01*
X16412500Y-16704500D01*
X16426786Y-16733071D01*
X16426786Y-16761643D01*
X16283928Y-16790214D01*
X16541071Y-16875929D02*
X16569643Y-16890214D01*
X16626786Y-16890214D01*
X16655357Y-16875929D01*
X16669643Y-16847357D01*
X16669643Y-16833072D01*
X16655357Y-16804500D01*
X16626786Y-16790214D01*
X16583928Y-16790214D01*
X16555357Y-16775929D01*
X16541071Y-16747357D01*
X16541071Y-16733071D01*
X16555357Y-16704500D01*
X16583928Y-16690214D01*
X16626786Y-16690214D01*
X16655357Y-16704500D01*
X16769643Y-17004500D02*
X16783928Y-16990214D01*
X16812500Y-16947357D01*
X16826786Y-16918786D01*
X16841071Y-16875929D01*
X16855357Y-16804500D01*
X16855357Y-16747357D01*
X16841071Y-16675929D01*
X16826786Y-16633071D01*
X16812500Y-16604500D01*
X16783928Y-16561643D01*
X16769643Y-16547357D01*
M02*
