M48
; DRILL file {KiCad (5.1.4)-1} date 11/29/2021 9:13:26 PM
; FORMAT={-:-/ absolute / metric / decimal}
; #@! TF.CreationDate,2021-11-29T21:13:26-05:00
; #@! TF.GenerationSoftware,Kicad,Pcbnew,(5.1.4)-1
; #@! TF.FileFunction,Plated,1,2,PTH
FMAT,2
METRIC
T1C0.300
T2C0.400
T3C1.020
%
G90
G05
T1
X137.4Y-137.7
X138.9Y-122.2
X140.1Y-122.6
X141.2Y-122.9
X141.85Y-133.05
X141.9Y-137.7
X162.194Y-92.494
X164.85Y-110.44
X171.7Y-87.5
X174.6Y-129.7
X176.15Y-81.065
X180.9Y-92.1
X181.6Y-92.1
X182.3Y-92.1
X183.0Y-92.1
X183.7Y-92.1
X184.4Y-92.1
X185.1Y-92.1
X174.5Y-85.8
X174.5Y-87.0
X175.7Y-85.8
X175.7Y-87.0
X177.0Y-85.8
X177.0Y-87.0
X178.1Y-85.8
X178.1Y-87.0
T2
X112.0Y-125.0
X112.0Y-126.0
X112.0Y-127.0
X112.0Y-128.0
X113.0Y-112.0
X114.0Y-112.0
X115.0Y-112.0
X116.0Y-112.0
X117.0Y-112.0
X118.0Y-112.0
X118.0Y-139.0
X119.0Y-112.0
X119.0Y-138.0
X120.0Y-112.0
X120.0Y-137.0
X121.0Y-136.0
X121.07Y-121.87
X122.0Y-135.0
X123.0Y-134.0
X136.83Y-112.65
X139.3Y-63.02
X140.05Y-78.75
X140.37Y-114.16
X140.38Y-110.57
X140.38Y-112.9
X140.39Y-111.61
X140.91Y-62.13
X141.4Y-78.75
X141.694Y-109.906
X142.55Y-63.0
X142.794Y-109.914
X144.163Y-109.938
X145.162Y-109.96
X146.23Y-109.91
X148.17Y-113.46
X148.21Y-112.39
X148.22Y-111.37
X148.3Y-105.3
X150.23Y-108.19
X150.69Y-124.98
X152.2Y-102.9
X152.48Y-112.24
X153.08Y-127.37
X154.087Y-111.918
X155.27Y-109.42
X156.46Y-123.04
X158.87Y-122.67
X158.89Y-93.61
X162.52Y-128.95
X163.57Y-131.21
X163.63Y-123.82
X164.5Y-85.9
X164.78Y-126.91
X166.6Y-93.6
X175.6Y-137.0
X176.8Y-136.3
X178.0Y-143.0
X179.0Y-143.0
X180.0Y-143.0
X180.0Y-144.0
T3
X190.6Y-115.4
X190.6Y-118.4
X139.5Y-60.0
X142.5Y-60.0
X145.5Y-60.0
X148.5Y-60.0
X151.5Y-60.0
X154.5Y-60.0
X157.5Y-60.0
X160.5Y-60.0
X163.5Y-60.0
X125.9Y-140.58
X128.9Y-140.58
X190.6Y-129.6
X190.6Y-132.6
X109.4Y-129.6
X109.4Y-132.6
X109.4Y-115.2
X109.4Y-118.2
X190.6Y-65.0
X190.6Y-68.0
X190.6Y-71.0
X190.6Y-74.0
X190.6Y-77.0
X190.6Y-80.0
X190.6Y-83.0
X190.6Y-86.0
X190.6Y-89.0
X190.6Y-101.5
X190.6Y-104.5
X109.4Y-101.5
X109.4Y-104.5
X140.99Y-140.58
X143.99Y-140.58
X146.99Y-140.58
X149.99Y-140.58
X152.99Y-140.58
X155.99Y-140.58
X158.99Y-140.58
X161.99Y-140.58
X164.99Y-140.58
X109.5Y-65.0
X109.5Y-68.0
X109.5Y-71.0
X109.5Y-74.0
X109.5Y-77.0
X109.5Y-80.0
X109.5Y-83.0
X109.5Y-86.0
X109.5Y-89.0
T0
M30
