M48
; DRILL file {KiCad (6.0.2)} date Wed Apr  6 15:39:21 2022
; FORMAT={-:-/ absolute / inch / decimal}
; #@! TF.CreationDate,2022-04-06T15:39:21-04:00
; #@! TF.GenerationSoftware,Kicad,Pcbnew,(6.0.2)
; #@! TF.FileFunction,Plated,1,2,PTH
FMAT,2
INCH
; #@! TA.AperFunction,Plated,PTH,ViaDrill
T1C0.0079
; #@! TA.AperFunction,Plated,PTH,ViaDrill
T2C0.0118
; #@! TA.AperFunction,Plated,PTH,ComponentDrill
T3C0.0118
; #@! TA.AperFunction,Plated,PTH,ViaDrill
T4C0.0157
; #@! TA.AperFunction,Plated,PTH,ComponentDrill
T5C0.0402
%
G90
G05
T1
X5.2106Y-5.2972
X5.2362Y-5.124
X5.311Y-5.3622
X5.3661Y-5.1988
X5.5167Y-4.7795
X5.5413Y-5.2953
X5.5689Y-5.122
X5.5996Y-5.1763
X5.6356Y-5.1986
X5.6427Y-5.0551
X5.6437Y-5.3622
X5.6525Y-4.8917
X5.6831Y-5.1772
X5.7913Y-4.7943
X5.9419Y-4.7274
X5.998Y-5.3917
X6.0817Y-4.8071
X6.1959Y-4.8622
T2
X4.5472Y-3.9606
X4.5512Y-4.5
X4.7087Y-2.5472
X4.7087Y-2.6924
X4.94Y-4.7037
X5.1358Y-4.3386
X5.2352Y-4.811
X5.4783Y-4.6516
X5.8346Y-4.4685
X5.8819Y-4.7618
X6.0541Y-5.0128
X6.2106Y-3.1161
X6.3856Y-3.6415
X6.439Y-4.6585
X6.4902Y-4.348
X6.6545Y-5.1831
X6.7697Y-4.8238
X6.874Y-5.1063
X6.9157Y-3.1921
X7.122Y-3.626
X7.1496Y-3.626
X7.1772Y-3.626
X7.2047Y-3.626
X7.2323Y-3.626
X7.2598Y-3.626
X7.2874Y-3.626
T3
X6.8701Y-3.378
X6.8701Y-3.4252
X6.9173Y-3.378
X6.9173Y-3.4252
X6.9685Y-3.378
X6.9685Y-3.4252
X7.0118Y-3.378
X7.0118Y-3.4252
T4
X4.5445Y-2.6177
X4.5787Y-2.5531
X4.5795Y-2.6811
X5.387Y-4.435
X5.5264Y-4.4945
X5.5268Y-4.3531
X5.5268Y-4.4449
X5.5272Y-4.3941
X5.5785Y-4.327
X5.6218Y-4.3273
X5.6757Y-4.3283
X5.7151Y-4.3291
X5.7571Y-4.3272
X5.835Y-4.4248
X5.8354Y-4.3846
X5.8386Y-4.1457
X5.9146Y-4.2594
X5.9921Y-4.0512
X6.0031Y-4.4189
X6.0664Y-4.4062
X6.0817Y-4.872
X6.113Y-4.3079
X6.1939Y-4.9134
X6.2555Y-3.6854
X6.4768Y-3.15
X6.4874Y-4.9965
X6.5591Y-3.685
X6.9134Y-5.3937
X6.9606Y-5.3661
X7.0079Y-5.6299
X7.0472Y-5.6299
X7.0866Y-5.6299
X7.0866Y-5.6693
T5
X4.298Y-2.563
X4.298Y-2.6811
X4.298Y-2.7992
X4.298Y-2.9173
X4.298Y-3.0354
X4.298Y-3.1535
X4.298Y-3.2717
X4.298Y-3.3898
X4.298Y-3.5079
X4.3071Y-3.9961
X4.3071Y-4.1142
X4.3071Y-4.5354
X4.3071Y-4.6535
X4.3071Y-5.1024
X4.3071Y-5.2205
X4.9567Y-5.5346
X5.0748Y-5.5346
X5.5508Y-5.5346
X5.6689Y-5.5346
X5.787Y-5.5346
X5.9051Y-5.5346
X6.0232Y-5.5346
X6.1413Y-5.5346
X6.2594Y-5.5346
X6.3776Y-5.5346
X6.4957Y-5.5346
X7.5012Y-2.5591
X7.5012Y-2.6772
X7.5012Y-2.7953
X7.5012Y-2.9134
X7.5012Y-3.0315
X7.5012Y-3.1496
X7.5012Y-3.2677
X7.5012Y-3.3858
X7.5012Y-3.5039
X7.5039Y-3.9961
X7.5039Y-4.1142
X7.5039Y-4.5433
X7.5039Y-4.6614
X7.5039Y-5.1024
X7.5039Y-5.2205
T0
M30
