%TF.GenerationSoftware,KiCad,Pcbnew,(6.0.2)*%
%TF.CreationDate,2022-04-06T15:39:21-04:00*%
%TF.ProjectId,Lights_Board,4c696768-7473-45f4-926f-6172642e6b69,rev?*%
%TF.SameCoordinates,Original*%
%TF.FileFunction,Legend,Top*%
%TF.FilePolarity,Positive*%
%FSLAX46Y46*%
G04 Gerber Fmt 4.6, Leading zero omitted, Abs format (unit mm)*
G04 Created by KiCad (PCBNEW (6.0.2)) date 2022-04-06 15:39:21*
%MOMM*%
%LPD*%
G01*
G04 APERTURE LIST*
%ADD10C,0.150000*%
%ADD11C,0.120000*%
G04 APERTURE END LIST*
D10*
X188260952Y-94092380D02*
X188260952Y-93092380D01*
X188594285Y-93806666D01*
X188927619Y-93092380D01*
X188927619Y-94092380D01*
X189832380Y-94092380D02*
X189832380Y-93568571D01*
X189784761Y-93473333D01*
X189689523Y-93425714D01*
X189499047Y-93425714D01*
X189403809Y-93473333D01*
X189832380Y-94044761D02*
X189737142Y-94092380D01*
X189499047Y-94092380D01*
X189403809Y-94044761D01*
X189356190Y-93949523D01*
X189356190Y-93854285D01*
X189403809Y-93759047D01*
X189499047Y-93711428D01*
X189737142Y-93711428D01*
X189832380Y-93663809D01*
X190308571Y-94092380D02*
X190308571Y-93425714D01*
X190308571Y-93092380D02*
X190260952Y-93140000D01*
X190308571Y-93187619D01*
X190356190Y-93140000D01*
X190308571Y-93092380D01*
X190308571Y-93187619D01*
X190784761Y-93425714D02*
X190784761Y-94092380D01*
X190784761Y-93520952D02*
X190832380Y-93473333D01*
X190927619Y-93425714D01*
X191070476Y-93425714D01*
X191165714Y-93473333D01*
X191213333Y-93568571D01*
X191213333Y-94092380D01*
X193022857Y-93997142D02*
X192975238Y-94044761D01*
X192832380Y-94092380D01*
X192737142Y-94092380D01*
X192594285Y-94044761D01*
X192499047Y-93949523D01*
X192451428Y-93854285D01*
X192403809Y-93663809D01*
X192403809Y-93520952D01*
X192451428Y-93330476D01*
X192499047Y-93235238D01*
X192594285Y-93140000D01*
X192737142Y-93092380D01*
X192832380Y-93092380D01*
X192975238Y-93140000D01*
X193022857Y-93187619D01*
X193594285Y-94092380D02*
X193499047Y-94044761D01*
X193451428Y-93997142D01*
X193403809Y-93901904D01*
X193403809Y-93616190D01*
X193451428Y-93520952D01*
X193499047Y-93473333D01*
X193594285Y-93425714D01*
X193737142Y-93425714D01*
X193832380Y-93473333D01*
X193880000Y-93520952D01*
X193927619Y-93616190D01*
X193927619Y-93901904D01*
X193880000Y-93997142D01*
X193832380Y-94044761D01*
X193737142Y-94092380D01*
X193594285Y-94092380D01*
X194356190Y-93425714D02*
X194356190Y-94092380D01*
X194356190Y-93520952D02*
X194403809Y-93473333D01*
X194499047Y-93425714D01*
X194641904Y-93425714D01*
X194737142Y-93473333D01*
X194784761Y-93568571D01*
X194784761Y-94092380D01*
X195260952Y-93425714D02*
X195260952Y-94092380D01*
X195260952Y-93520952D02*
X195308571Y-93473333D01*
X195403809Y-93425714D01*
X195546666Y-93425714D01*
X195641904Y-93473333D01*
X195689523Y-93568571D01*
X195689523Y-94092380D01*
X196546666Y-94044761D02*
X196451428Y-94092380D01*
X196260952Y-94092380D01*
X196165714Y-94044761D01*
X196118095Y-93949523D01*
X196118095Y-93568571D01*
X196165714Y-93473333D01*
X196260952Y-93425714D01*
X196451428Y-93425714D01*
X196546666Y-93473333D01*
X196594285Y-93568571D01*
X196594285Y-93663809D01*
X196118095Y-93759047D01*
X197451428Y-94044761D02*
X197356190Y-94092380D01*
X197165714Y-94092380D01*
X197070476Y-94044761D01*
X197022857Y-93997142D01*
X196975238Y-93901904D01*
X196975238Y-93616190D01*
X197022857Y-93520952D01*
X197070476Y-93473333D01*
X197165714Y-93425714D01*
X197356190Y-93425714D01*
X197451428Y-93473333D01*
X197737142Y-93425714D02*
X198118095Y-93425714D01*
X197880000Y-93092380D02*
X197880000Y-93949523D01*
X197927619Y-94044761D01*
X198022857Y-94092380D01*
X198118095Y-94092380D01*
X198594285Y-94092380D02*
X198499047Y-94044761D01*
X198451428Y-93997142D01*
X198403809Y-93901904D01*
X198403809Y-93616190D01*
X198451428Y-93520952D01*
X198499047Y-93473333D01*
X198594285Y-93425714D01*
X198737142Y-93425714D01*
X198832380Y-93473333D01*
X198880000Y-93520952D01*
X198927619Y-93616190D01*
X198927619Y-93901904D01*
X198880000Y-93997142D01*
X198832380Y-94044761D01*
X198737142Y-94092380D01*
X198594285Y-94092380D01*
X199356190Y-94092380D02*
X199356190Y-93425714D01*
X199356190Y-93616190D02*
X199403809Y-93520952D01*
X199451428Y-93473333D01*
X199546666Y-93425714D01*
X199641904Y-93425714D01*
X192830000Y-125362380D02*
X192353809Y-125362380D01*
X192353809Y-124362380D01*
X193163333Y-124838571D02*
X193496666Y-124838571D01*
X193639523Y-125362380D02*
X193163333Y-125362380D01*
X193163333Y-124362380D01*
X193639523Y-124362380D01*
X194068095Y-125362380D02*
X194068095Y-124362380D01*
X194306190Y-124362380D01*
X194449047Y-124410000D01*
X194544285Y-124505238D01*
X194591904Y-124600476D01*
X194639523Y-124790952D01*
X194639523Y-124933809D01*
X194591904Y-125124285D01*
X194544285Y-125219523D01*
X194449047Y-125314761D01*
X194306190Y-125362380D01*
X194068095Y-125362380D01*
X194830000Y-125457619D02*
X195591904Y-125457619D01*
X196258571Y-124362380D02*
X196068095Y-124362380D01*
X195972857Y-124410000D01*
X195925238Y-124457619D01*
X195830000Y-124600476D01*
X195782380Y-124790952D01*
X195782380Y-125171904D01*
X195830000Y-125267142D01*
X195877619Y-125314761D01*
X195972857Y-125362380D01*
X196163333Y-125362380D01*
X196258571Y-125314761D01*
X196306190Y-125267142D01*
X196353809Y-125171904D01*
X196353809Y-124933809D01*
X196306190Y-124838571D01*
X196258571Y-124790952D01*
X196163333Y-124743333D01*
X195972857Y-124743333D01*
X195877619Y-124790952D01*
X195830000Y-124838571D01*
X195782380Y-124933809D01*
X126003214Y-132795770D02*
X126238916Y-132560068D01*
X126710320Y-132829442D02*
X126373603Y-133166159D01*
X125666496Y-132459053D01*
X126003214Y-132122335D01*
X126238916Y-131886633D02*
X127417427Y-132122335D01*
X126710320Y-131415228D02*
X126946023Y-132593740D01*
X126878679Y-131246870D02*
X127282740Y-130842809D01*
X127787816Y-131751946D02*
X127080710Y-131044839D01*
X128124534Y-131549915D02*
X128663282Y-131011167D01*
X128696954Y-130775465D02*
X128831641Y-130708122D01*
X129000000Y-130539763D01*
X129033671Y-130438748D01*
X129033671Y-130371404D01*
X129000000Y-130270389D01*
X128932656Y-130203045D01*
X128831641Y-130169374D01*
X128764297Y-130169374D01*
X128663282Y-130203045D01*
X128494923Y-130304061D01*
X128393908Y-130337732D01*
X128326564Y-130337732D01*
X128225549Y-130304061D01*
X128158206Y-130236717D01*
X128124534Y-130135702D01*
X128124534Y-130068358D01*
X128158206Y-129967343D01*
X128326564Y-129798984D01*
X128461251Y-129731641D01*
X129437732Y-130102030D02*
X128966328Y-129630625D01*
X128730625Y-129394923D02*
X128730625Y-129462267D01*
X128797969Y-129462267D01*
X128797969Y-129394923D01*
X128730625Y-129394923D01*
X128797969Y-129462267D01*
X129606091Y-128990862D02*
X130178511Y-129563282D01*
X130212183Y-129664297D01*
X130212183Y-129731641D01*
X130178511Y-129832656D01*
X130077496Y-129933671D01*
X129976480Y-129967343D01*
X130043824Y-129428595D02*
X130010152Y-129529610D01*
X129875465Y-129664297D01*
X129774450Y-129697969D01*
X129707106Y-129697969D01*
X129606091Y-129664297D01*
X129404061Y-129462267D01*
X129370389Y-129361251D01*
X129370389Y-129293908D01*
X129404061Y-129192893D01*
X129538748Y-129058206D01*
X129639763Y-129024534D01*
X130313198Y-129361251D02*
X130851946Y-128822503D01*
X130885618Y-128586801D02*
X131020305Y-128519458D01*
X131188663Y-128351099D01*
X131222335Y-128250084D01*
X131222335Y-128182740D01*
X131188663Y-128081725D01*
X131121320Y-128014381D01*
X131020305Y-127980710D01*
X130952961Y-127980710D01*
X130851946Y-128014381D01*
X130683587Y-128115397D01*
X130582572Y-128149068D01*
X130515228Y-128149068D01*
X130414213Y-128115397D01*
X130346870Y-128048053D01*
X130313198Y-127947038D01*
X130313198Y-127879694D01*
X130346870Y-127778679D01*
X130515228Y-127610320D01*
X130649915Y-127542977D01*
X131862098Y-127610320D02*
X131828427Y-127711336D01*
X131693740Y-127846023D01*
X131592724Y-127879694D01*
X131491709Y-127846023D01*
X131222335Y-127576649D01*
X131188663Y-127475633D01*
X131222335Y-127374618D01*
X131357022Y-127239931D01*
X131458037Y-127206259D01*
X131559053Y-127239931D01*
X131626396Y-127307275D01*
X131357022Y-127711336D01*
X132333503Y-127206259D02*
X132232488Y-127239931D01*
X132131472Y-127206259D01*
X131525381Y-126600168D01*
X125657782Y-127539171D02*
X126129187Y-128010575D01*
X125354736Y-127842217D02*
X125725126Y-128212606D01*
X125826141Y-128246278D01*
X125927156Y-128212606D01*
X126028172Y-128111591D01*
X126061843Y-128010575D01*
X126061843Y-127943232D01*
X126802622Y-127202453D02*
X126802622Y-127269797D01*
X126735278Y-127404484D01*
X126667935Y-127471827D01*
X126533248Y-127539171D01*
X126398561Y-127539171D01*
X126297546Y-127505499D01*
X126129187Y-127404484D01*
X126028172Y-127303469D01*
X125927156Y-127135110D01*
X125893485Y-127034095D01*
X125893485Y-126899408D01*
X125960828Y-126764721D01*
X126028172Y-126697377D01*
X126162859Y-126630034D01*
X126230202Y-126630034D01*
X127071996Y-127202453D02*
X127610744Y-126663705D01*
X127644416Y-126428003D02*
X127779103Y-126360660D01*
X127947461Y-126192301D01*
X127981133Y-126091286D01*
X127981133Y-126023942D01*
X127947461Y-125922927D01*
X127880118Y-125855583D01*
X127779103Y-125821912D01*
X127711759Y-125821912D01*
X127610744Y-125855583D01*
X127442385Y-125956599D01*
X127341370Y-125990270D01*
X127274026Y-125990270D01*
X127173011Y-125956599D01*
X127105668Y-125889255D01*
X127071996Y-125788240D01*
X127071996Y-125720896D01*
X127105668Y-125619881D01*
X127274026Y-125451522D01*
X127408713Y-125384179D01*
X128385194Y-125754568D02*
X127913790Y-125283164D01*
X127678087Y-125047461D02*
X127678087Y-125114805D01*
X127745431Y-125114805D01*
X127745431Y-125047461D01*
X127678087Y-125047461D01*
X127745431Y-125114805D01*
X128553553Y-124643400D02*
X129125973Y-125215820D01*
X129159644Y-125316835D01*
X129159644Y-125384179D01*
X129125973Y-125485194D01*
X129024957Y-125586209D01*
X128923942Y-125619881D01*
X128991286Y-125081133D02*
X128957614Y-125182148D01*
X128822927Y-125316835D01*
X128721912Y-125350507D01*
X128654568Y-125350507D01*
X128553553Y-125316835D01*
X128351522Y-125114805D01*
X128317851Y-125013790D01*
X128317851Y-124946446D01*
X128351522Y-124845431D01*
X128486209Y-124710744D01*
X128587225Y-124677072D01*
X129260660Y-125013790D02*
X129799408Y-124475042D01*
X129833079Y-124239339D02*
X129967766Y-124171996D01*
X130136125Y-124003637D01*
X130169797Y-123902622D01*
X130169797Y-123835278D01*
X130136125Y-123734263D01*
X130068782Y-123666920D01*
X129967766Y-123633248D01*
X129900423Y-123633248D01*
X129799408Y-123666920D01*
X129631049Y-123767935D01*
X129530034Y-123801607D01*
X129462690Y-123801607D01*
X129361675Y-123767935D01*
X129294331Y-123700591D01*
X129260660Y-123599576D01*
X129260660Y-123532233D01*
X129294331Y-123431217D01*
X129462690Y-123262859D01*
X129597377Y-123195515D01*
X130809560Y-123262859D02*
X130775888Y-123363874D01*
X130641201Y-123498561D01*
X130540186Y-123532233D01*
X130439171Y-123498561D01*
X130169797Y-123229187D01*
X130136125Y-123128172D01*
X130169797Y-123027156D01*
X130304484Y-122892469D01*
X130405499Y-122858798D01*
X130506514Y-122892469D01*
X130573858Y-122959813D01*
X130304484Y-123363874D01*
X131280965Y-122858798D02*
X131179950Y-122892469D01*
X131078934Y-122858798D01*
X130472843Y-122252706D01*
X194552380Y-81819047D02*
X195266666Y-81819047D01*
X195409523Y-81866666D01*
X195504761Y-81961904D01*
X195552380Y-82104761D01*
X195552380Y-82200000D01*
X195552380Y-80866666D02*
X195552380Y-81342857D01*
X194552380Y-81342857D01*
X195457142Y-79961904D02*
X195504761Y-80009523D01*
X195552380Y-80152380D01*
X195552380Y-80247619D01*
X195504761Y-80390476D01*
X195409523Y-80485714D01*
X195314285Y-80533333D01*
X195123809Y-80580952D01*
X194980952Y-80580952D01*
X194790476Y-80533333D01*
X194695238Y-80485714D01*
X194600000Y-80390476D01*
X194552380Y-80247619D01*
X194552380Y-80152380D01*
X194600000Y-80009523D01*
X194647619Y-79961904D01*
X194552380Y-79247619D02*
X195266666Y-79247619D01*
X195409523Y-79295238D01*
X195504761Y-79390476D01*
X195552380Y-79533333D01*
X195552380Y-79628571D01*
X195552380Y-78295238D02*
X195552380Y-78771428D01*
X194552380Y-78771428D01*
X195457142Y-77390476D02*
X195504761Y-77438095D01*
X195552380Y-77580952D01*
X195552380Y-77676190D01*
X195504761Y-77819047D01*
X195409523Y-77914285D01*
X195314285Y-77961904D01*
X195123809Y-78009523D01*
X194980952Y-78009523D01*
X194790476Y-77961904D01*
X194695238Y-77914285D01*
X194600000Y-77819047D01*
X194552380Y-77676190D01*
X194552380Y-77580952D01*
X194600000Y-77438095D01*
X194647619Y-77390476D01*
X194552380Y-76676190D02*
X195266666Y-76676190D01*
X195409523Y-76723809D01*
X195504761Y-76819047D01*
X195552380Y-76961904D01*
X195552380Y-77057142D01*
X195552380Y-75723809D02*
X195552380Y-76200000D01*
X194552380Y-76200000D01*
X195457142Y-74819047D02*
X195504761Y-74866666D01*
X195552380Y-75009523D01*
X195552380Y-75104761D01*
X195504761Y-75247619D01*
X195409523Y-75342857D01*
X195314285Y-75390476D01*
X195123809Y-75438095D01*
X194980952Y-75438095D01*
X194790476Y-75390476D01*
X194695238Y-75342857D01*
X194600000Y-75247619D01*
X194552380Y-75104761D01*
X194552380Y-75009523D01*
X194600000Y-74866666D01*
X194647619Y-74819047D01*
X194552380Y-74104761D02*
X195266666Y-74104761D01*
X195409523Y-74152380D01*
X195504761Y-74247619D01*
X195552380Y-74390476D01*
X195552380Y-74485714D01*
X195552380Y-73152380D02*
X195552380Y-73628571D01*
X194552380Y-73628571D01*
X195457142Y-72247619D02*
X195504761Y-72295238D01*
X195552380Y-72438095D01*
X195552380Y-72533333D01*
X195504761Y-72676190D01*
X195409523Y-72771428D01*
X195314285Y-72819047D01*
X195123809Y-72866666D01*
X194980952Y-72866666D01*
X194790476Y-72819047D01*
X194695238Y-72771428D01*
X194600000Y-72676190D01*
X194552380Y-72533333D01*
X194552380Y-72438095D01*
X194600000Y-72295238D01*
X194647619Y-72247619D01*
X141435714Y-53634761D02*
X140483333Y-53634761D01*
X140483333Y-51634761D01*
X142102380Y-53634761D02*
X142102380Y-52301428D01*
X142102380Y-51634761D02*
X142007142Y-51730000D01*
X142102380Y-51825238D01*
X142197619Y-51730000D01*
X142102380Y-51634761D01*
X142102380Y-51825238D01*
X143911904Y-52301428D02*
X143911904Y-53920476D01*
X143816666Y-54110952D01*
X143721428Y-54206190D01*
X143530952Y-54301428D01*
X143245238Y-54301428D01*
X143054761Y-54206190D01*
X143911904Y-53539523D02*
X143721428Y-53634761D01*
X143340476Y-53634761D01*
X143150000Y-53539523D01*
X143054761Y-53444285D01*
X142959523Y-53253809D01*
X142959523Y-52682380D01*
X143054761Y-52491904D01*
X143150000Y-52396666D01*
X143340476Y-52301428D01*
X143721428Y-52301428D01*
X143911904Y-52396666D01*
X144864285Y-53634761D02*
X144864285Y-51634761D01*
X145721428Y-53634761D02*
X145721428Y-52587142D01*
X145626190Y-52396666D01*
X145435714Y-52301428D01*
X145150000Y-52301428D01*
X144959523Y-52396666D01*
X144864285Y-52491904D01*
X146388095Y-52301428D02*
X147150000Y-52301428D01*
X146673809Y-51634761D02*
X146673809Y-53349047D01*
X146769047Y-53539523D01*
X146959523Y-53634761D01*
X147150000Y-53634761D01*
X147721428Y-53539523D02*
X147911904Y-53634761D01*
X148292857Y-53634761D01*
X148483333Y-53539523D01*
X148578571Y-53349047D01*
X148578571Y-53253809D01*
X148483333Y-53063333D01*
X148292857Y-52968095D01*
X148007142Y-52968095D01*
X147816666Y-52872857D01*
X147721428Y-52682380D01*
X147721428Y-52587142D01*
X147816666Y-52396666D01*
X148007142Y-52301428D01*
X148292857Y-52301428D01*
X148483333Y-52396666D01*
X151626190Y-52587142D02*
X151911904Y-52682380D01*
X152007142Y-52777619D01*
X152102380Y-52968095D01*
X152102380Y-53253809D01*
X152007142Y-53444285D01*
X151911904Y-53539523D01*
X151721428Y-53634761D01*
X150959523Y-53634761D01*
X150959523Y-51634761D01*
X151626190Y-51634761D01*
X151816666Y-51730000D01*
X151911904Y-51825238D01*
X152007142Y-52015714D01*
X152007142Y-52206190D01*
X151911904Y-52396666D01*
X151816666Y-52491904D01*
X151626190Y-52587142D01*
X150959523Y-52587142D01*
X153245238Y-53634761D02*
X153054761Y-53539523D01*
X152959523Y-53444285D01*
X152864285Y-53253809D01*
X152864285Y-52682380D01*
X152959523Y-52491904D01*
X153054761Y-52396666D01*
X153245238Y-52301428D01*
X153530952Y-52301428D01*
X153721428Y-52396666D01*
X153816666Y-52491904D01*
X153911904Y-52682380D01*
X153911904Y-53253809D01*
X153816666Y-53444285D01*
X153721428Y-53539523D01*
X153530952Y-53634761D01*
X153245238Y-53634761D01*
X155626190Y-53634761D02*
X155626190Y-52587142D01*
X155530952Y-52396666D01*
X155340476Y-52301428D01*
X154959523Y-52301428D01*
X154769047Y-52396666D01*
X155626190Y-53539523D02*
X155435714Y-53634761D01*
X154959523Y-53634761D01*
X154769047Y-53539523D01*
X154673809Y-53349047D01*
X154673809Y-53158571D01*
X154769047Y-52968095D01*
X154959523Y-52872857D01*
X155435714Y-52872857D01*
X155626190Y-52777619D01*
X156578571Y-53634761D02*
X156578571Y-52301428D01*
X156578571Y-52682380D02*
X156673809Y-52491904D01*
X156769047Y-52396666D01*
X156959523Y-52301428D01*
X157150000Y-52301428D01*
X158673809Y-53634761D02*
X158673809Y-51634761D01*
X158673809Y-53539523D02*
X158483333Y-53634761D01*
X158102380Y-53634761D01*
X157911904Y-53539523D01*
X157816666Y-53444285D01*
X157721428Y-53253809D01*
X157721428Y-52682380D01*
X157816666Y-52491904D01*
X157911904Y-52396666D01*
X158102380Y-52301428D01*
X158483333Y-52301428D01*
X158673809Y-52396666D01*
X160864285Y-51634761D02*
X161530952Y-53634761D01*
X162197619Y-51634761D01*
X162769047Y-51825238D02*
X162864285Y-51730000D01*
X163054761Y-51634761D01*
X163530952Y-51634761D01*
X163721428Y-51730000D01*
X163816666Y-51825238D01*
X163911904Y-52015714D01*
X163911904Y-52206190D01*
X163816666Y-52491904D01*
X162673809Y-53634761D01*
X163911904Y-53634761D01*
X145816666Y-54854761D02*
X145816666Y-56283333D01*
X145721428Y-56569047D01*
X145530952Y-56759523D01*
X145245238Y-56854761D01*
X145054761Y-56854761D01*
X147054761Y-56854761D02*
X146864285Y-56759523D01*
X146769047Y-56664285D01*
X146673809Y-56473809D01*
X146673809Y-55902380D01*
X146769047Y-55711904D01*
X146864285Y-55616666D01*
X147054761Y-55521428D01*
X147340476Y-55521428D01*
X147530952Y-55616666D01*
X147626190Y-55711904D01*
X147721428Y-55902380D01*
X147721428Y-56473809D01*
X147626190Y-56664285D01*
X147530952Y-56759523D01*
X147340476Y-56854761D01*
X147054761Y-56854761D01*
X148578571Y-56854761D02*
X148578571Y-54854761D01*
X149435714Y-56854761D02*
X149435714Y-55807142D01*
X149340476Y-55616666D01*
X149150000Y-55521428D01*
X148864285Y-55521428D01*
X148673809Y-55616666D01*
X148578571Y-55711904D01*
X150388095Y-55521428D02*
X150388095Y-56854761D01*
X150388095Y-55711904D02*
X150483333Y-55616666D01*
X150673809Y-55521428D01*
X150959523Y-55521428D01*
X151150000Y-55616666D01*
X151245238Y-55807142D01*
X151245238Y-56854761D01*
X154864285Y-56664285D02*
X154769047Y-56759523D01*
X154483333Y-56854761D01*
X154292857Y-56854761D01*
X154007142Y-56759523D01*
X153816666Y-56569047D01*
X153721428Y-56378571D01*
X153626190Y-55997619D01*
X153626190Y-55711904D01*
X153721428Y-55330952D01*
X153816666Y-55140476D01*
X154007142Y-54950000D01*
X154292857Y-54854761D01*
X154483333Y-54854761D01*
X154769047Y-54950000D01*
X154864285Y-55045238D01*
X156578571Y-56854761D02*
X156578571Y-55807142D01*
X156483333Y-55616666D01*
X156292857Y-55521428D01*
X155911904Y-55521428D01*
X155721428Y-55616666D01*
X156578571Y-56759523D02*
X156388095Y-56854761D01*
X155911904Y-56854761D01*
X155721428Y-56759523D01*
X155626190Y-56569047D01*
X155626190Y-56378571D01*
X155721428Y-56188095D01*
X155911904Y-56092857D01*
X156388095Y-56092857D01*
X156578571Y-55997619D01*
X157530952Y-56854761D02*
X157530952Y-55521428D01*
X157530952Y-55902380D02*
X157626190Y-55711904D01*
X157721428Y-55616666D01*
X157911904Y-55521428D01*
X158102380Y-55521428D01*
X158769047Y-56854761D02*
X158769047Y-55521428D01*
X158769047Y-55902380D02*
X158864285Y-55711904D01*
X158959523Y-55616666D01*
X159150000Y-55521428D01*
X159340476Y-55521428D01*
X143816666Y-59979523D02*
X144102380Y-60074761D01*
X144578571Y-60074761D01*
X144769047Y-59979523D01*
X144864285Y-59884285D01*
X144959523Y-59693809D01*
X144959523Y-59503333D01*
X144864285Y-59312857D01*
X144769047Y-59217619D01*
X144578571Y-59122380D01*
X144197619Y-59027142D01*
X144007142Y-58931904D01*
X143911904Y-58836666D01*
X143816666Y-58646190D01*
X143816666Y-58455714D01*
X143911904Y-58265238D01*
X144007142Y-58170000D01*
X144197619Y-58074761D01*
X144673809Y-58074761D01*
X144959523Y-58170000D01*
X146102380Y-60074761D02*
X145911904Y-59979523D01*
X145816666Y-59884285D01*
X145721428Y-59693809D01*
X145721428Y-59122380D01*
X145816666Y-58931904D01*
X145911904Y-58836666D01*
X146102380Y-58741428D01*
X146388095Y-58741428D01*
X146578571Y-58836666D01*
X146673809Y-58931904D01*
X146769047Y-59122380D01*
X146769047Y-59693809D01*
X146673809Y-59884285D01*
X146578571Y-59979523D01*
X146388095Y-60074761D01*
X146102380Y-60074761D01*
X147911904Y-60074761D02*
X147721428Y-59979523D01*
X147626190Y-59789047D01*
X147626190Y-58074761D01*
X149530952Y-60074761D02*
X149530952Y-59027142D01*
X149435714Y-58836666D01*
X149245238Y-58741428D01*
X148864285Y-58741428D01*
X148673809Y-58836666D01*
X149530952Y-59979523D02*
X149340476Y-60074761D01*
X148864285Y-60074761D01*
X148673809Y-59979523D01*
X148578571Y-59789047D01*
X148578571Y-59598571D01*
X148673809Y-59408095D01*
X148864285Y-59312857D01*
X149340476Y-59312857D01*
X149530952Y-59217619D01*
X150483333Y-60074761D02*
X150483333Y-58741428D01*
X150483333Y-59122380D02*
X150578571Y-58931904D01*
X150673809Y-58836666D01*
X150864285Y-58741428D01*
X151054761Y-58741428D01*
X152769047Y-58170000D02*
X152578571Y-58074761D01*
X152292857Y-58074761D01*
X152007142Y-58170000D01*
X151816666Y-58360476D01*
X151721428Y-58550952D01*
X151626190Y-58931904D01*
X151626190Y-59217619D01*
X151721428Y-59598571D01*
X151816666Y-59789047D01*
X152007142Y-59979523D01*
X152292857Y-60074761D01*
X152483333Y-60074761D01*
X152769047Y-59979523D01*
X152864285Y-59884285D01*
X152864285Y-59217619D01*
X152483333Y-59217619D01*
X154578571Y-60074761D02*
X154578571Y-59027142D01*
X154483333Y-58836666D01*
X154292857Y-58741428D01*
X153911904Y-58741428D01*
X153721428Y-58836666D01*
X154578571Y-59979523D02*
X154388095Y-60074761D01*
X153911904Y-60074761D01*
X153721428Y-59979523D01*
X153626190Y-59789047D01*
X153626190Y-59598571D01*
X153721428Y-59408095D01*
X153911904Y-59312857D01*
X154388095Y-59312857D01*
X154578571Y-59217619D01*
X155245238Y-58741428D02*
X156007142Y-58741428D01*
X155530952Y-58074761D02*
X155530952Y-59789047D01*
X155626190Y-59979523D01*
X155816666Y-60074761D01*
X156007142Y-60074761D01*
X156959523Y-60074761D02*
X156769047Y-59979523D01*
X156673809Y-59884285D01*
X156578571Y-59693809D01*
X156578571Y-59122380D01*
X156673809Y-58931904D01*
X156769047Y-58836666D01*
X156959523Y-58741428D01*
X157245238Y-58741428D01*
X157435714Y-58836666D01*
X157530952Y-58931904D01*
X157626190Y-59122380D01*
X157626190Y-59693809D01*
X157530952Y-59884285D01*
X157435714Y-59979523D01*
X157245238Y-60074761D01*
X156959523Y-60074761D01*
X158483333Y-60074761D02*
X158483333Y-58741428D01*
X158483333Y-59122380D02*
X158578571Y-58931904D01*
X158673809Y-58836666D01*
X158864285Y-58741428D01*
X159054761Y-58741428D01*
X159626190Y-59979523D02*
X159816666Y-60074761D01*
X160197619Y-60074761D01*
X160388095Y-59979523D01*
X160483333Y-59789047D01*
X160483333Y-59693809D01*
X160388095Y-59503333D01*
X160197619Y-59408095D01*
X159911904Y-59408095D01*
X159721428Y-59312857D01*
X159626190Y-59122380D01*
X159626190Y-59027142D01*
X159721428Y-58836666D01*
X159911904Y-58741428D01*
X160197619Y-58741428D01*
X160388095Y-58836666D01*
X101540952Y-93882380D02*
X101540952Y-92882380D01*
X101874285Y-93596666D01*
X102207619Y-92882380D01*
X102207619Y-93882380D01*
X103112380Y-93882380D02*
X103112380Y-93358571D01*
X103064761Y-93263333D01*
X102969523Y-93215714D01*
X102779047Y-93215714D01*
X102683809Y-93263333D01*
X103112380Y-93834761D02*
X103017142Y-93882380D01*
X102779047Y-93882380D01*
X102683809Y-93834761D01*
X102636190Y-93739523D01*
X102636190Y-93644285D01*
X102683809Y-93549047D01*
X102779047Y-93501428D01*
X103017142Y-93501428D01*
X103112380Y-93453809D01*
X103588571Y-93882380D02*
X103588571Y-93215714D01*
X103588571Y-92882380D02*
X103540952Y-92930000D01*
X103588571Y-92977619D01*
X103636190Y-92930000D01*
X103588571Y-92882380D01*
X103588571Y-92977619D01*
X104064761Y-93215714D02*
X104064761Y-93882380D01*
X104064761Y-93310952D02*
X104112380Y-93263333D01*
X104207619Y-93215714D01*
X104350476Y-93215714D01*
X104445714Y-93263333D01*
X104493333Y-93358571D01*
X104493333Y-93882380D01*
X106302857Y-93787142D02*
X106255238Y-93834761D01*
X106112380Y-93882380D01*
X106017142Y-93882380D01*
X105874285Y-93834761D01*
X105779047Y-93739523D01*
X105731428Y-93644285D01*
X105683809Y-93453809D01*
X105683809Y-93310952D01*
X105731428Y-93120476D01*
X105779047Y-93025238D01*
X105874285Y-92930000D01*
X106017142Y-92882380D01*
X106112380Y-92882380D01*
X106255238Y-92930000D01*
X106302857Y-92977619D01*
X106874285Y-93882380D02*
X106779047Y-93834761D01*
X106731428Y-93787142D01*
X106683809Y-93691904D01*
X106683809Y-93406190D01*
X106731428Y-93310952D01*
X106779047Y-93263333D01*
X106874285Y-93215714D01*
X107017142Y-93215714D01*
X107112380Y-93263333D01*
X107160000Y-93310952D01*
X107207619Y-93406190D01*
X107207619Y-93691904D01*
X107160000Y-93787142D01*
X107112380Y-93834761D01*
X107017142Y-93882380D01*
X106874285Y-93882380D01*
X107636190Y-93215714D02*
X107636190Y-93882380D01*
X107636190Y-93310952D02*
X107683809Y-93263333D01*
X107779047Y-93215714D01*
X107921904Y-93215714D01*
X108017142Y-93263333D01*
X108064761Y-93358571D01*
X108064761Y-93882380D01*
X108540952Y-93215714D02*
X108540952Y-93882380D01*
X108540952Y-93310952D02*
X108588571Y-93263333D01*
X108683809Y-93215714D01*
X108826666Y-93215714D01*
X108921904Y-93263333D01*
X108969523Y-93358571D01*
X108969523Y-93882380D01*
X109826666Y-93834761D02*
X109731428Y-93882380D01*
X109540952Y-93882380D01*
X109445714Y-93834761D01*
X109398095Y-93739523D01*
X109398095Y-93358571D01*
X109445714Y-93263333D01*
X109540952Y-93215714D01*
X109731428Y-93215714D01*
X109826666Y-93263333D01*
X109874285Y-93358571D01*
X109874285Y-93453809D01*
X109398095Y-93549047D01*
X110731428Y-93834761D02*
X110636190Y-93882380D01*
X110445714Y-93882380D01*
X110350476Y-93834761D01*
X110302857Y-93787142D01*
X110255238Y-93691904D01*
X110255238Y-93406190D01*
X110302857Y-93310952D01*
X110350476Y-93263333D01*
X110445714Y-93215714D01*
X110636190Y-93215714D01*
X110731428Y-93263333D01*
X111017142Y-93215714D02*
X111398095Y-93215714D01*
X111160000Y-92882380D02*
X111160000Y-93739523D01*
X111207619Y-93834761D01*
X111302857Y-93882380D01*
X111398095Y-93882380D01*
X111874285Y-93882380D02*
X111779047Y-93834761D01*
X111731428Y-93787142D01*
X111683809Y-93691904D01*
X111683809Y-93406190D01*
X111731428Y-93310952D01*
X111779047Y-93263333D01*
X111874285Y-93215714D01*
X112017142Y-93215714D01*
X112112380Y-93263333D01*
X112160000Y-93310952D01*
X112207619Y-93406190D01*
X112207619Y-93691904D01*
X112160000Y-93787142D01*
X112112380Y-93834761D01*
X112017142Y-93882380D01*
X111874285Y-93882380D01*
X112636190Y-93882380D02*
X112636190Y-93215714D01*
X112636190Y-93406190D02*
X112683809Y-93310952D01*
X112731428Y-93263333D01*
X112826666Y-93215714D01*
X112921904Y-93215714D01*
X104000000Y-125362380D02*
X103523809Y-125362380D01*
X103523809Y-124362380D01*
X104333333Y-124838571D02*
X104666666Y-124838571D01*
X104809523Y-125362380D02*
X104333333Y-125362380D01*
X104333333Y-124362380D01*
X104809523Y-124362380D01*
X105238095Y-125362380D02*
X105238095Y-124362380D01*
X105476190Y-124362380D01*
X105619047Y-124410000D01*
X105714285Y-124505238D01*
X105761904Y-124600476D01*
X105809523Y-124790952D01*
X105809523Y-124933809D01*
X105761904Y-125124285D01*
X105714285Y-125219523D01*
X105619047Y-125314761D01*
X105476190Y-125362380D01*
X105238095Y-125362380D01*
X106000000Y-125457619D02*
X106761904Y-125457619D01*
X106904761Y-124362380D02*
X107523809Y-124362380D01*
X107190476Y-124743333D01*
X107333333Y-124743333D01*
X107428571Y-124790952D01*
X107476190Y-124838571D01*
X107523809Y-124933809D01*
X107523809Y-125171904D01*
X107476190Y-125267142D01*
X107428571Y-125314761D01*
X107333333Y-125362380D01*
X107047619Y-125362380D01*
X106952380Y-125314761D01*
X106904761Y-125267142D01*
X104180000Y-111052380D02*
X103703809Y-111052380D01*
X103703809Y-110052380D01*
X104513333Y-110528571D02*
X104846666Y-110528571D01*
X104989523Y-111052380D02*
X104513333Y-111052380D01*
X104513333Y-110052380D01*
X104989523Y-110052380D01*
X105418095Y-111052380D02*
X105418095Y-110052380D01*
X105656190Y-110052380D01*
X105799047Y-110100000D01*
X105894285Y-110195238D01*
X105941904Y-110290476D01*
X105989523Y-110480952D01*
X105989523Y-110623809D01*
X105941904Y-110814285D01*
X105894285Y-110909523D01*
X105799047Y-111004761D01*
X105656190Y-111052380D01*
X105418095Y-111052380D01*
X106180000Y-111147619D02*
X106941904Y-111147619D01*
X107132380Y-110147619D02*
X107180000Y-110100000D01*
X107275238Y-110052380D01*
X107513333Y-110052380D01*
X107608571Y-110100000D01*
X107656190Y-110147619D01*
X107703809Y-110242857D01*
X107703809Y-110338095D01*
X107656190Y-110480952D01*
X107084761Y-111052380D01*
X107703809Y-111052380D01*
X112019047Y-64931857D02*
X112780952Y-64931857D01*
X112019047Y-67990857D02*
X112780952Y-67990857D01*
X112400000Y-68352761D02*
X112400000Y-67628952D01*
X111638095Y-70507000D02*
X111542857Y-70461761D01*
X111400000Y-70461761D01*
X111257142Y-70507000D01*
X111161904Y-70597476D01*
X111114285Y-70687952D01*
X111066666Y-70868904D01*
X111066666Y-71004619D01*
X111114285Y-71185571D01*
X111161904Y-71276047D01*
X111257142Y-71366523D01*
X111400000Y-71411761D01*
X111495238Y-71411761D01*
X111638095Y-71366523D01*
X111685714Y-71321285D01*
X111685714Y-71004619D01*
X111495238Y-71004619D01*
X112114285Y-71411761D02*
X112114285Y-70461761D01*
X112685714Y-71411761D01*
X112685714Y-70461761D01*
X113161904Y-71411761D02*
X113161904Y-70461761D01*
X113400000Y-70461761D01*
X113542857Y-70507000D01*
X113638095Y-70597476D01*
X113685714Y-70687952D01*
X113733333Y-70868904D01*
X113733333Y-71004619D01*
X113685714Y-71185571D01*
X113638095Y-71276047D01*
X113542857Y-71366523D01*
X113400000Y-71411761D01*
X113161904Y-71411761D01*
X111614285Y-74470761D02*
X111614285Y-73520761D01*
X112185714Y-74470761D01*
X112185714Y-73520761D01*
X113233333Y-74380285D02*
X113185714Y-74425523D01*
X113042857Y-74470761D01*
X112947619Y-74470761D01*
X112804761Y-74425523D01*
X112709523Y-74335047D01*
X112661904Y-74244571D01*
X112614285Y-74063619D01*
X112614285Y-73927904D01*
X112661904Y-73746952D01*
X112709523Y-73656476D01*
X112804761Y-73566000D01*
X112947619Y-73520761D01*
X113042857Y-73520761D01*
X113185714Y-73566000D01*
X113233333Y-73611238D01*
X111614285Y-77529761D02*
X111614285Y-76579761D01*
X112185714Y-77529761D01*
X112185714Y-76579761D01*
X113233333Y-77439285D02*
X113185714Y-77484523D01*
X113042857Y-77529761D01*
X112947619Y-77529761D01*
X112804761Y-77484523D01*
X112709523Y-77394047D01*
X112661904Y-77303571D01*
X112614285Y-77122619D01*
X112614285Y-76986904D01*
X112661904Y-76805952D01*
X112709523Y-76715476D01*
X112804761Y-76625000D01*
X112947619Y-76579761D01*
X113042857Y-76579761D01*
X113185714Y-76625000D01*
X113233333Y-76670238D01*
X111638095Y-79684000D02*
X111542857Y-79638761D01*
X111400000Y-79638761D01*
X111257142Y-79684000D01*
X111161904Y-79774476D01*
X111114285Y-79864952D01*
X111066666Y-80045904D01*
X111066666Y-80181619D01*
X111114285Y-80362571D01*
X111161904Y-80453047D01*
X111257142Y-80543523D01*
X111400000Y-80588761D01*
X111495238Y-80588761D01*
X111638095Y-80543523D01*
X111685714Y-80498285D01*
X111685714Y-80181619D01*
X111495238Y-80181619D01*
X112114285Y-80588761D02*
X112114285Y-79638761D01*
X112685714Y-80588761D01*
X112685714Y-79638761D01*
X113161904Y-80588761D02*
X113161904Y-79638761D01*
X113400000Y-79638761D01*
X113542857Y-79684000D01*
X113638095Y-79774476D01*
X113685714Y-79864952D01*
X113733333Y-80045904D01*
X113733333Y-80181619D01*
X113685714Y-80362571D01*
X113638095Y-80453047D01*
X113542857Y-80543523D01*
X113400000Y-80588761D01*
X113161904Y-80588761D01*
X111828571Y-83647761D02*
X111257142Y-83647761D01*
X111542857Y-83647761D02*
X111542857Y-82697761D01*
X111447619Y-82833476D01*
X111352380Y-82923952D01*
X111257142Y-82969190D01*
X112209523Y-82788238D02*
X112257142Y-82743000D01*
X112352380Y-82697761D01*
X112590476Y-82697761D01*
X112685714Y-82743000D01*
X112733333Y-82788238D01*
X112780952Y-82878714D01*
X112780952Y-82969190D01*
X112733333Y-83104904D01*
X112161904Y-83647761D01*
X112780952Y-83647761D01*
X113114285Y-83014428D02*
X113352380Y-83647761D01*
X113590476Y-83014428D01*
X111614285Y-86706761D02*
X111614285Y-85756761D01*
X112185714Y-86706761D01*
X112185714Y-85756761D01*
X113233333Y-86616285D02*
X113185714Y-86661523D01*
X113042857Y-86706761D01*
X112947619Y-86706761D01*
X112804761Y-86661523D01*
X112709523Y-86571047D01*
X112661904Y-86480571D01*
X112614285Y-86299619D01*
X112614285Y-86163904D01*
X112661904Y-85982952D01*
X112709523Y-85892476D01*
X112804761Y-85802000D01*
X112947619Y-85756761D01*
X113042857Y-85756761D01*
X113185714Y-85802000D01*
X113233333Y-85847238D01*
X111638095Y-88861000D02*
X111542857Y-88815761D01*
X111400000Y-88815761D01*
X111257142Y-88861000D01*
X111161904Y-88951476D01*
X111114285Y-89041952D01*
X111066666Y-89222904D01*
X111066666Y-89358619D01*
X111114285Y-89539571D01*
X111161904Y-89630047D01*
X111257142Y-89720523D01*
X111400000Y-89765761D01*
X111495238Y-89765761D01*
X111638095Y-89720523D01*
X111685714Y-89675285D01*
X111685714Y-89358619D01*
X111495238Y-89358619D01*
X112114285Y-89765761D02*
X112114285Y-88815761D01*
X112685714Y-89765761D01*
X112685714Y-88815761D01*
X113161904Y-89765761D02*
X113161904Y-88815761D01*
X113400000Y-88815761D01*
X113542857Y-88861000D01*
X113638095Y-88951476D01*
X113685714Y-89041952D01*
X113733333Y-89222904D01*
X113733333Y-89358619D01*
X113685714Y-89539571D01*
X113638095Y-89630047D01*
X113542857Y-89720523D01*
X113400000Y-89765761D01*
X113161904Y-89765761D01*
X192740000Y-111362380D02*
X192263809Y-111362380D01*
X192263809Y-110362380D01*
X193073333Y-110838571D02*
X193406666Y-110838571D01*
X193549523Y-111362380D02*
X193073333Y-111362380D01*
X193073333Y-110362380D01*
X193549523Y-110362380D01*
X193978095Y-111362380D02*
X193978095Y-110362380D01*
X194216190Y-110362380D01*
X194359047Y-110410000D01*
X194454285Y-110505238D01*
X194501904Y-110600476D01*
X194549523Y-110790952D01*
X194549523Y-110933809D01*
X194501904Y-111124285D01*
X194454285Y-111219523D01*
X194359047Y-111314761D01*
X194216190Y-111362380D01*
X193978095Y-111362380D01*
X194740000Y-111457619D02*
X195501904Y-111457619D01*
X196216190Y-110362380D02*
X195740000Y-110362380D01*
X195692380Y-110838571D01*
X195740000Y-110790952D01*
X195835238Y-110743333D01*
X196073333Y-110743333D01*
X196168571Y-110790952D01*
X196216190Y-110838571D01*
X196263809Y-110933809D01*
X196263809Y-111171904D01*
X196216190Y-111267142D01*
X196168571Y-111314761D01*
X196073333Y-111362380D01*
X195835238Y-111362380D01*
X195740000Y-111314761D01*
X195692380Y-111267142D01*
X187019047Y-64831857D02*
X187780952Y-64831857D01*
X187019047Y-67890857D02*
X187780952Y-67890857D01*
X187400000Y-68252761D02*
X187400000Y-67528952D01*
X186638095Y-70407000D02*
X186542857Y-70361761D01*
X186400000Y-70361761D01*
X186257142Y-70407000D01*
X186161904Y-70497476D01*
X186114285Y-70587952D01*
X186066666Y-70768904D01*
X186066666Y-70904619D01*
X186114285Y-71085571D01*
X186161904Y-71176047D01*
X186257142Y-71266523D01*
X186400000Y-71311761D01*
X186495238Y-71311761D01*
X186638095Y-71266523D01*
X186685714Y-71221285D01*
X186685714Y-70904619D01*
X186495238Y-70904619D01*
X187114285Y-71311761D02*
X187114285Y-70361761D01*
X187685714Y-71311761D01*
X187685714Y-70361761D01*
X188161904Y-71311761D02*
X188161904Y-70361761D01*
X188400000Y-70361761D01*
X188542857Y-70407000D01*
X188638095Y-70497476D01*
X188685714Y-70587952D01*
X188733333Y-70768904D01*
X188733333Y-70904619D01*
X188685714Y-71085571D01*
X188638095Y-71176047D01*
X188542857Y-71266523D01*
X188400000Y-71311761D01*
X188161904Y-71311761D01*
X186614285Y-74370761D02*
X186614285Y-73420761D01*
X187185714Y-74370761D01*
X187185714Y-73420761D01*
X188233333Y-74280285D02*
X188185714Y-74325523D01*
X188042857Y-74370761D01*
X187947619Y-74370761D01*
X187804761Y-74325523D01*
X187709523Y-74235047D01*
X187661904Y-74144571D01*
X187614285Y-73963619D01*
X187614285Y-73827904D01*
X187661904Y-73646952D01*
X187709523Y-73556476D01*
X187804761Y-73466000D01*
X187947619Y-73420761D01*
X188042857Y-73420761D01*
X188185714Y-73466000D01*
X188233333Y-73511238D01*
X186614285Y-77429761D02*
X186614285Y-76479761D01*
X187185714Y-77429761D01*
X187185714Y-76479761D01*
X188233333Y-77339285D02*
X188185714Y-77384523D01*
X188042857Y-77429761D01*
X187947619Y-77429761D01*
X187804761Y-77384523D01*
X187709523Y-77294047D01*
X187661904Y-77203571D01*
X187614285Y-77022619D01*
X187614285Y-76886904D01*
X187661904Y-76705952D01*
X187709523Y-76615476D01*
X187804761Y-76525000D01*
X187947619Y-76479761D01*
X188042857Y-76479761D01*
X188185714Y-76525000D01*
X188233333Y-76570238D01*
X186638095Y-79584000D02*
X186542857Y-79538761D01*
X186400000Y-79538761D01*
X186257142Y-79584000D01*
X186161904Y-79674476D01*
X186114285Y-79764952D01*
X186066666Y-79945904D01*
X186066666Y-80081619D01*
X186114285Y-80262571D01*
X186161904Y-80353047D01*
X186257142Y-80443523D01*
X186400000Y-80488761D01*
X186495238Y-80488761D01*
X186638095Y-80443523D01*
X186685714Y-80398285D01*
X186685714Y-80081619D01*
X186495238Y-80081619D01*
X187114285Y-80488761D02*
X187114285Y-79538761D01*
X187685714Y-80488761D01*
X187685714Y-79538761D01*
X188161904Y-80488761D02*
X188161904Y-79538761D01*
X188400000Y-79538761D01*
X188542857Y-79584000D01*
X188638095Y-79674476D01*
X188685714Y-79764952D01*
X188733333Y-79945904D01*
X188733333Y-80081619D01*
X188685714Y-80262571D01*
X188638095Y-80353047D01*
X188542857Y-80443523D01*
X188400000Y-80488761D01*
X188161904Y-80488761D01*
X186828571Y-83547761D02*
X186257142Y-83547761D01*
X186542857Y-83547761D02*
X186542857Y-82597761D01*
X186447619Y-82733476D01*
X186352380Y-82823952D01*
X186257142Y-82869190D01*
X187209523Y-82688238D02*
X187257142Y-82643000D01*
X187352380Y-82597761D01*
X187590476Y-82597761D01*
X187685714Y-82643000D01*
X187733333Y-82688238D01*
X187780952Y-82778714D01*
X187780952Y-82869190D01*
X187733333Y-83004904D01*
X187161904Y-83547761D01*
X187780952Y-83547761D01*
X188114285Y-82914428D02*
X188352380Y-83547761D01*
X188590476Y-82914428D01*
X186614285Y-86606761D02*
X186614285Y-85656761D01*
X187185714Y-86606761D01*
X187185714Y-85656761D01*
X188233333Y-86516285D02*
X188185714Y-86561523D01*
X188042857Y-86606761D01*
X187947619Y-86606761D01*
X187804761Y-86561523D01*
X187709523Y-86471047D01*
X187661904Y-86380571D01*
X187614285Y-86199619D01*
X187614285Y-86063904D01*
X187661904Y-85882952D01*
X187709523Y-85792476D01*
X187804761Y-85702000D01*
X187947619Y-85656761D01*
X188042857Y-85656761D01*
X188185714Y-85702000D01*
X188233333Y-85747238D01*
X186638095Y-88761000D02*
X186542857Y-88715761D01*
X186400000Y-88715761D01*
X186257142Y-88761000D01*
X186161904Y-88851476D01*
X186114285Y-88941952D01*
X186066666Y-89122904D01*
X186066666Y-89258619D01*
X186114285Y-89439571D01*
X186161904Y-89530047D01*
X186257142Y-89620523D01*
X186400000Y-89665761D01*
X186495238Y-89665761D01*
X186638095Y-89620523D01*
X186685714Y-89575285D01*
X186685714Y-89258619D01*
X186495238Y-89258619D01*
X187114285Y-89665761D02*
X187114285Y-88715761D01*
X187685714Y-89665761D01*
X187685714Y-88715761D01*
X188161904Y-89665761D02*
X188161904Y-88715761D01*
X188400000Y-88715761D01*
X188542857Y-88761000D01*
X188638095Y-88851476D01*
X188685714Y-88941952D01*
X188733333Y-89122904D01*
X188733333Y-89258619D01*
X188685714Y-89439571D01*
X188638095Y-89530047D01*
X188542857Y-89620523D01*
X188400000Y-89665761D01*
X188161904Y-89665761D01*
X192740000Y-97262380D02*
X192263809Y-97262380D01*
X192263809Y-96262380D01*
X193073333Y-96738571D02*
X193406666Y-96738571D01*
X193549523Y-97262380D02*
X193073333Y-97262380D01*
X193073333Y-96262380D01*
X193549523Y-96262380D01*
X193978095Y-97262380D02*
X193978095Y-96262380D01*
X194216190Y-96262380D01*
X194359047Y-96310000D01*
X194454285Y-96405238D01*
X194501904Y-96500476D01*
X194549523Y-96690952D01*
X194549523Y-96833809D01*
X194501904Y-97024285D01*
X194454285Y-97119523D01*
X194359047Y-97214761D01*
X194216190Y-97262380D01*
X193978095Y-97262380D01*
X194740000Y-97357619D02*
X195501904Y-97357619D01*
X196168571Y-96595714D02*
X196168571Y-97262380D01*
X195930476Y-96214761D02*
X195692380Y-96929047D01*
X196311428Y-96929047D01*
X104400000Y-97002380D02*
X103923809Y-97002380D01*
X103923809Y-96002380D01*
X104733333Y-96478571D02*
X105066666Y-96478571D01*
X105209523Y-97002380D02*
X104733333Y-97002380D01*
X104733333Y-96002380D01*
X105209523Y-96002380D01*
X105638095Y-97002380D02*
X105638095Y-96002380D01*
X105876190Y-96002380D01*
X106019047Y-96050000D01*
X106114285Y-96145238D01*
X106161904Y-96240476D01*
X106209523Y-96430952D01*
X106209523Y-96573809D01*
X106161904Y-96764285D01*
X106114285Y-96859523D01*
X106019047Y-96954761D01*
X105876190Y-97002380D01*
X105638095Y-97002380D01*
X106400000Y-97097619D02*
X107161904Y-97097619D01*
X107923809Y-97002380D02*
X107352380Y-97002380D01*
X107638095Y-97002380D02*
X107638095Y-96002380D01*
X107542857Y-96145238D01*
X107447619Y-96240476D01*
X107352380Y-96288095D01*
X146129047Y-138066666D02*
X146605238Y-138066666D01*
X146033809Y-138352380D02*
X146367142Y-137352380D01*
X146700476Y-138352380D01*
X147462380Y-137685714D02*
X147462380Y-138352380D01*
X147033809Y-137685714D02*
X147033809Y-138209523D01*
X147081428Y-138304761D01*
X147176666Y-138352380D01*
X147319523Y-138352380D01*
X147414761Y-138304761D01*
X147462380Y-138257142D01*
X147843333Y-138352380D02*
X148367142Y-137685714D01*
X147843333Y-137685714D02*
X148367142Y-138352380D01*
X148748095Y-138352380D02*
X148748095Y-137685714D01*
X148748095Y-137352380D02*
X148700476Y-137400000D01*
X148748095Y-137447619D01*
X148795714Y-137400000D01*
X148748095Y-137352380D01*
X148748095Y-137447619D01*
X149367142Y-138352380D02*
X149271904Y-138304761D01*
X149224285Y-138209523D01*
X149224285Y-137352380D01*
X150176666Y-138352380D02*
X150176666Y-137828571D01*
X150129047Y-137733333D01*
X150033809Y-137685714D01*
X149843333Y-137685714D01*
X149748095Y-137733333D01*
X150176666Y-138304761D02*
X150081428Y-138352380D01*
X149843333Y-138352380D01*
X149748095Y-138304761D01*
X149700476Y-138209523D01*
X149700476Y-138114285D01*
X149748095Y-138019047D01*
X149843333Y-137971428D01*
X150081428Y-137971428D01*
X150176666Y-137923809D01*
X150652857Y-138352380D02*
X150652857Y-137685714D01*
X150652857Y-137876190D02*
X150700476Y-137780952D01*
X150748095Y-137733333D01*
X150843333Y-137685714D01*
X150938571Y-137685714D01*
X151176666Y-137685714D02*
X151414761Y-138352380D01*
X151652857Y-137685714D02*
X151414761Y-138352380D01*
X151319523Y-138590476D01*
X151271904Y-138638095D01*
X151176666Y-138685714D01*
X153367142Y-138257142D02*
X153319523Y-138304761D01*
X153176666Y-138352380D01*
X153081428Y-138352380D01*
X152938571Y-138304761D01*
X152843333Y-138209523D01*
X152795714Y-138114285D01*
X152748095Y-137923809D01*
X152748095Y-137780952D01*
X152795714Y-137590476D01*
X152843333Y-137495238D01*
X152938571Y-137400000D01*
X153081428Y-137352380D01*
X153176666Y-137352380D01*
X153319523Y-137400000D01*
X153367142Y-137447619D01*
X153938571Y-138352380D02*
X153843333Y-138304761D01*
X153795714Y-138257142D01*
X153748095Y-138161904D01*
X153748095Y-137876190D01*
X153795714Y-137780952D01*
X153843333Y-137733333D01*
X153938571Y-137685714D01*
X154081428Y-137685714D01*
X154176666Y-137733333D01*
X154224285Y-137780952D01*
X154271904Y-137876190D01*
X154271904Y-138161904D01*
X154224285Y-138257142D01*
X154176666Y-138304761D01*
X154081428Y-138352380D01*
X153938571Y-138352380D01*
X154700476Y-137685714D02*
X154700476Y-138352380D01*
X154700476Y-137780952D02*
X154748095Y-137733333D01*
X154843333Y-137685714D01*
X154986190Y-137685714D01*
X155081428Y-137733333D01*
X155129047Y-137828571D01*
X155129047Y-138352380D01*
X155605238Y-137685714D02*
X155605238Y-138352380D01*
X155605238Y-137780952D02*
X155652857Y-137733333D01*
X155748095Y-137685714D01*
X155890952Y-137685714D01*
X155986190Y-137733333D01*
X156033809Y-137828571D01*
X156033809Y-138352380D01*
X156890952Y-138304761D02*
X156795714Y-138352380D01*
X156605238Y-138352380D01*
X156510000Y-138304761D01*
X156462380Y-138209523D01*
X156462380Y-137828571D01*
X156510000Y-137733333D01*
X156605238Y-137685714D01*
X156795714Y-137685714D01*
X156890952Y-137733333D01*
X156938571Y-137828571D01*
X156938571Y-137923809D01*
X156462380Y-138019047D01*
X157795714Y-138304761D02*
X157700476Y-138352380D01*
X157510000Y-138352380D01*
X157414761Y-138304761D01*
X157367142Y-138257142D01*
X157319523Y-138161904D01*
X157319523Y-137876190D01*
X157367142Y-137780952D01*
X157414761Y-137733333D01*
X157510000Y-137685714D01*
X157700476Y-137685714D01*
X157795714Y-137733333D01*
X158081428Y-137685714D02*
X158462380Y-137685714D01*
X158224285Y-137352380D02*
X158224285Y-138209523D01*
X158271904Y-138304761D01*
X158367142Y-138352380D01*
X158462380Y-138352380D01*
X158938571Y-138352380D02*
X158843333Y-138304761D01*
X158795714Y-138257142D01*
X158748095Y-138161904D01*
X158748095Y-137876190D01*
X158795714Y-137780952D01*
X158843333Y-137733333D01*
X158938571Y-137685714D01*
X159081428Y-137685714D01*
X159176666Y-137733333D01*
X159224285Y-137780952D01*
X159271904Y-137876190D01*
X159271904Y-138161904D01*
X159224285Y-138257142D01*
X159176666Y-138304761D01*
X159081428Y-138352380D01*
X158938571Y-138352380D01*
X159700476Y-138352380D02*
X159700476Y-137685714D01*
X159700476Y-137876190D02*
X159748095Y-137780952D01*
X159795714Y-137733333D01*
X159890952Y-137685714D01*
X159986190Y-137685714D01*
%TO.C,C2*%
X119283333Y-66857142D02*
X119235714Y-66904761D01*
X119092857Y-66952380D01*
X118997619Y-66952380D01*
X118854761Y-66904761D01*
X118759523Y-66809523D01*
X118711904Y-66714285D01*
X118664285Y-66523809D01*
X118664285Y-66380952D01*
X118711904Y-66190476D01*
X118759523Y-66095238D01*
X118854761Y-66000000D01*
X118997619Y-65952380D01*
X119092857Y-65952380D01*
X119235714Y-66000000D01*
X119283333Y-66047619D01*
X119664285Y-66047619D02*
X119711904Y-66000000D01*
X119807142Y-65952380D01*
X120045238Y-65952380D01*
X120140476Y-66000000D01*
X120188095Y-66047619D01*
X120235714Y-66142857D01*
X120235714Y-66238095D01*
X120188095Y-66380952D01*
X119616666Y-66952380D01*
X120235714Y-66952380D01*
%TO.C,C3*%
X169833333Y-90157142D02*
X169785714Y-90204761D01*
X169642857Y-90252380D01*
X169547619Y-90252380D01*
X169404761Y-90204761D01*
X169309523Y-90109523D01*
X169261904Y-90014285D01*
X169214285Y-89823809D01*
X169214285Y-89680952D01*
X169261904Y-89490476D01*
X169309523Y-89395238D01*
X169404761Y-89300000D01*
X169547619Y-89252380D01*
X169642857Y-89252380D01*
X169785714Y-89300000D01*
X169833333Y-89347619D01*
X170166666Y-89252380D02*
X170785714Y-89252380D01*
X170452380Y-89633333D01*
X170595238Y-89633333D01*
X170690476Y-89680952D01*
X170738095Y-89728571D01*
X170785714Y-89823809D01*
X170785714Y-90061904D01*
X170738095Y-90157142D01*
X170690476Y-90204761D01*
X170595238Y-90252380D01*
X170309523Y-90252380D01*
X170214285Y-90204761D01*
X170166666Y-90157142D01*
%TO.C,C4*%
X175483333Y-79272142D02*
X175435714Y-79319761D01*
X175292857Y-79367380D01*
X175197619Y-79367380D01*
X175054761Y-79319761D01*
X174959523Y-79224523D01*
X174911904Y-79129285D01*
X174864285Y-78938809D01*
X174864285Y-78795952D01*
X174911904Y-78605476D01*
X174959523Y-78510238D01*
X175054761Y-78415000D01*
X175197619Y-78367380D01*
X175292857Y-78367380D01*
X175435714Y-78415000D01*
X175483333Y-78462619D01*
X176340476Y-78700714D02*
X176340476Y-79367380D01*
X176102380Y-78319761D02*
X175864285Y-79034047D01*
X176483333Y-79034047D01*
%TO.C,C5*%
X180533333Y-91557142D02*
X180485714Y-91604761D01*
X180342857Y-91652380D01*
X180247619Y-91652380D01*
X180104761Y-91604761D01*
X180009523Y-91509523D01*
X179961904Y-91414285D01*
X179914285Y-91223809D01*
X179914285Y-91080952D01*
X179961904Y-90890476D01*
X180009523Y-90795238D01*
X180104761Y-90700000D01*
X180247619Y-90652380D01*
X180342857Y-90652380D01*
X180485714Y-90700000D01*
X180533333Y-90747619D01*
X181438095Y-90652380D02*
X180961904Y-90652380D01*
X180914285Y-91128571D01*
X180961904Y-91080952D01*
X181057142Y-91033333D01*
X181295238Y-91033333D01*
X181390476Y-91080952D01*
X181438095Y-91128571D01*
X181485714Y-91223809D01*
X181485714Y-91461904D01*
X181438095Y-91557142D01*
X181390476Y-91604761D01*
X181295238Y-91652380D01*
X181057142Y-91652380D01*
X180961904Y-91604761D01*
X180914285Y-91557142D01*
%TO.C,C6*%
X167533333Y-93557142D02*
X167485714Y-93604761D01*
X167342857Y-93652380D01*
X167247619Y-93652380D01*
X167104761Y-93604761D01*
X167009523Y-93509523D01*
X166961904Y-93414285D01*
X166914285Y-93223809D01*
X166914285Y-93080952D01*
X166961904Y-92890476D01*
X167009523Y-92795238D01*
X167104761Y-92700000D01*
X167247619Y-92652380D01*
X167342857Y-92652380D01*
X167485714Y-92700000D01*
X167533333Y-92747619D01*
X168390476Y-92652380D02*
X168200000Y-92652380D01*
X168104761Y-92700000D01*
X168057142Y-92747619D01*
X167961904Y-92890476D01*
X167914285Y-93080952D01*
X167914285Y-93461904D01*
X167961904Y-93557142D01*
X168009523Y-93604761D01*
X168104761Y-93652380D01*
X168295238Y-93652380D01*
X168390476Y-93604761D01*
X168438095Y-93557142D01*
X168485714Y-93461904D01*
X168485714Y-93223809D01*
X168438095Y-93128571D01*
X168390476Y-93080952D01*
X168295238Y-93033333D01*
X168104761Y-93033333D01*
X168009523Y-93080952D01*
X167961904Y-93128571D01*
X167914285Y-93223809D01*
%TO.C,C7*%
X159083333Y-76897142D02*
X159035714Y-76944761D01*
X158892857Y-76992380D01*
X158797619Y-76992380D01*
X158654761Y-76944761D01*
X158559523Y-76849523D01*
X158511904Y-76754285D01*
X158464285Y-76563809D01*
X158464285Y-76420952D01*
X158511904Y-76230476D01*
X158559523Y-76135238D01*
X158654761Y-76040000D01*
X158797619Y-75992380D01*
X158892857Y-75992380D01*
X159035714Y-76040000D01*
X159083333Y-76087619D01*
X159416666Y-75992380D02*
X160083333Y-75992380D01*
X159654761Y-76992380D01*
%TO.C,D1*%
X148061904Y-131589880D02*
X148061904Y-130589880D01*
X148300000Y-130589880D01*
X148442857Y-130637500D01*
X148538095Y-130732738D01*
X148585714Y-130827976D01*
X148633333Y-131018452D01*
X148633333Y-131161309D01*
X148585714Y-131351785D01*
X148538095Y-131447023D01*
X148442857Y-131542261D01*
X148300000Y-131589880D01*
X148061904Y-131589880D01*
X149585714Y-131589880D02*
X149014285Y-131589880D01*
X149300000Y-131589880D02*
X149300000Y-130589880D01*
X149204761Y-130732738D01*
X149109523Y-130827976D01*
X149014285Y-130875595D01*
%TO.C,D2*%
X150561904Y-128439880D02*
X150561904Y-127439880D01*
X150800000Y-127439880D01*
X150942857Y-127487500D01*
X151038095Y-127582738D01*
X151085714Y-127677976D01*
X151133333Y-127868452D01*
X151133333Y-128011309D01*
X151085714Y-128201785D01*
X151038095Y-128297023D01*
X150942857Y-128392261D01*
X150800000Y-128439880D01*
X150561904Y-128439880D01*
X151514285Y-127535119D02*
X151561904Y-127487500D01*
X151657142Y-127439880D01*
X151895238Y-127439880D01*
X151990476Y-127487500D01*
X152038095Y-127535119D01*
X152085714Y-127630357D01*
X152085714Y-127725595D01*
X152038095Y-127868452D01*
X151466666Y-128439880D01*
X152085714Y-128439880D01*
%TO.C,D3*%
X155861904Y-80852380D02*
X155861904Y-79852380D01*
X156100000Y-79852380D01*
X156242857Y-79900000D01*
X156338095Y-79995238D01*
X156385714Y-80090476D01*
X156433333Y-80280952D01*
X156433333Y-80423809D01*
X156385714Y-80614285D01*
X156338095Y-80709523D01*
X156242857Y-80804761D01*
X156100000Y-80852380D01*
X155861904Y-80852380D01*
X156766666Y-79852380D02*
X157385714Y-79852380D01*
X157052380Y-80233333D01*
X157195238Y-80233333D01*
X157290476Y-80280952D01*
X157338095Y-80328571D01*
X157385714Y-80423809D01*
X157385714Y-80661904D01*
X157338095Y-80757142D01*
X157290476Y-80804761D01*
X157195238Y-80852380D01*
X156909523Y-80852380D01*
X156814285Y-80804761D01*
X156766666Y-80757142D01*
%TO.C,D4*%
X170961904Y-81002380D02*
X170961904Y-80002380D01*
X171200000Y-80002380D01*
X171342857Y-80050000D01*
X171438095Y-80145238D01*
X171485714Y-80240476D01*
X171533333Y-80430952D01*
X171533333Y-80573809D01*
X171485714Y-80764285D01*
X171438095Y-80859523D01*
X171342857Y-80954761D01*
X171200000Y-81002380D01*
X170961904Y-81002380D01*
X172390476Y-80335714D02*
X172390476Y-81002380D01*
X172152380Y-79954761D02*
X171914285Y-80669047D01*
X172533333Y-80669047D01*
%TO.C,J1*%
X162566666Y-111587380D02*
X162566666Y-112301666D01*
X162519047Y-112444523D01*
X162423809Y-112539761D01*
X162280952Y-112587380D01*
X162185714Y-112587380D01*
X163566666Y-112587380D02*
X162995238Y-112587380D01*
X163280952Y-112587380D02*
X163280952Y-111587380D01*
X163185714Y-111730238D01*
X163090476Y-111825476D01*
X162995238Y-111873095D01*
%TO.C,J2*%
X176466666Y-143552380D02*
X176466666Y-144266666D01*
X176419047Y-144409523D01*
X176323809Y-144504761D01*
X176180952Y-144552380D01*
X176085714Y-144552380D01*
X176895238Y-143647619D02*
X176942857Y-143600000D01*
X177038095Y-143552380D01*
X177276190Y-143552380D01*
X177371428Y-143600000D01*
X177419047Y-143647619D01*
X177466666Y-143742857D01*
X177466666Y-143838095D01*
X177419047Y-143980952D01*
X176847619Y-144552380D01*
X177466666Y-144552380D01*
%TO.C,J6*%
X167206666Y-137432380D02*
X167206666Y-138146666D01*
X167159047Y-138289523D01*
X167063809Y-138384761D01*
X166920952Y-138432380D01*
X166825714Y-138432380D01*
X168111428Y-137432380D02*
X167920952Y-137432380D01*
X167825714Y-137480000D01*
X167778095Y-137527619D01*
X167682857Y-137670476D01*
X167635238Y-137860952D01*
X167635238Y-138241904D01*
X167682857Y-138337142D01*
X167730476Y-138384761D01*
X167825714Y-138432380D01*
X168016190Y-138432380D01*
X168111428Y-138384761D01*
X168159047Y-138337142D01*
X168206666Y-138241904D01*
X168206666Y-138003809D01*
X168159047Y-137908571D01*
X168111428Y-137860952D01*
X168016190Y-137813333D01*
X167825714Y-137813333D01*
X167730476Y-137860952D01*
X167682857Y-137908571D01*
X167635238Y-138003809D01*
%TO.C,J7*%
X109266666Y-108652380D02*
X109266666Y-109366666D01*
X109219047Y-109509523D01*
X109123809Y-109604761D01*
X108980952Y-109652380D01*
X108885714Y-109652380D01*
X109647619Y-108652380D02*
X110314285Y-108652380D01*
X109885714Y-109652380D01*
%TO.C,J8*%
X109066666Y-122852380D02*
X109066666Y-123566666D01*
X109019047Y-123709523D01*
X108923809Y-123804761D01*
X108780952Y-123852380D01*
X108685714Y-123852380D01*
X109685714Y-123280952D02*
X109590476Y-123233333D01*
X109542857Y-123185714D01*
X109495238Y-123090476D01*
X109495238Y-123042857D01*
X109542857Y-122947619D01*
X109590476Y-122900000D01*
X109685714Y-122852380D01*
X109876190Y-122852380D01*
X109971428Y-122900000D01*
X110019047Y-122947619D01*
X110066666Y-123042857D01*
X110066666Y-123090476D01*
X110019047Y-123185714D01*
X109971428Y-123233333D01*
X109876190Y-123280952D01*
X109685714Y-123280952D01*
X109590476Y-123328571D01*
X109542857Y-123376190D01*
X109495238Y-123471428D01*
X109495238Y-123661904D01*
X109542857Y-123757142D01*
X109590476Y-123804761D01*
X109685714Y-123852380D01*
X109876190Y-123852380D01*
X109971428Y-123804761D01*
X110019047Y-123757142D01*
X110066666Y-123661904D01*
X110066666Y-123471428D01*
X110019047Y-123376190D01*
X109971428Y-123328571D01*
X109876190Y-123280952D01*
%TO.C,J9*%
X109066666Y-136852380D02*
X109066666Y-137566666D01*
X109019047Y-137709523D01*
X108923809Y-137804761D01*
X108780952Y-137852380D01*
X108685714Y-137852380D01*
X109590476Y-137852380D02*
X109780952Y-137852380D01*
X109876190Y-137804761D01*
X109923809Y-137757142D01*
X110019047Y-137614285D01*
X110066666Y-137423809D01*
X110066666Y-137042857D01*
X110019047Y-136947619D01*
X109971428Y-136900000D01*
X109876190Y-136852380D01*
X109685714Y-136852380D01*
X109590476Y-136900000D01*
X109542857Y-136947619D01*
X109495238Y-137042857D01*
X109495238Y-137280952D01*
X109542857Y-137376190D01*
X109590476Y-137423809D01*
X109685714Y-137471428D01*
X109876190Y-137471428D01*
X109971428Y-137423809D01*
X110019047Y-137376190D01*
X110066666Y-137280952D01*
%TO.C,L1*%
X171733333Y-99352380D02*
X171257142Y-99352380D01*
X171257142Y-98352380D01*
X172590476Y-99352380D02*
X172019047Y-99352380D01*
X172304761Y-99352380D02*
X172304761Y-98352380D01*
X172209523Y-98495238D01*
X172114285Y-98590476D01*
X172019047Y-98638095D01*
%TO.C,R2*%
X154333333Y-133802380D02*
X154000000Y-133326190D01*
X153761904Y-133802380D02*
X153761904Y-132802380D01*
X154142857Y-132802380D01*
X154238095Y-132850000D01*
X154285714Y-132897619D01*
X154333333Y-132992857D01*
X154333333Y-133135714D01*
X154285714Y-133230952D01*
X154238095Y-133278571D01*
X154142857Y-133326190D01*
X153761904Y-133326190D01*
X154714285Y-132897619D02*
X154761904Y-132850000D01*
X154857142Y-132802380D01*
X155095238Y-132802380D01*
X155190476Y-132850000D01*
X155238095Y-132897619D01*
X155285714Y-132992857D01*
X155285714Y-133088095D01*
X155238095Y-133230952D01*
X154666666Y-133802380D01*
X155285714Y-133802380D01*
%TO.C,R9*%
X161233333Y-91522380D02*
X160900000Y-91046190D01*
X160661904Y-91522380D02*
X160661904Y-90522380D01*
X161042857Y-90522380D01*
X161138095Y-90570000D01*
X161185714Y-90617619D01*
X161233333Y-90712857D01*
X161233333Y-90855714D01*
X161185714Y-90950952D01*
X161138095Y-90998571D01*
X161042857Y-91046190D01*
X160661904Y-91046190D01*
X161709523Y-91522380D02*
X161900000Y-91522380D01*
X161995238Y-91474761D01*
X162042857Y-91427142D01*
X162138095Y-91284285D01*
X162185714Y-91093809D01*
X162185714Y-90712857D01*
X162138095Y-90617619D01*
X162090476Y-90570000D01*
X161995238Y-90522380D01*
X161804761Y-90522380D01*
X161709523Y-90570000D01*
X161661904Y-90617619D01*
X161614285Y-90712857D01*
X161614285Y-90950952D01*
X161661904Y-91046190D01*
X161709523Y-91093809D01*
X161804761Y-91141428D01*
X161995238Y-91141428D01*
X162090476Y-91093809D01*
X162138095Y-91046190D01*
X162185714Y-90950952D01*
%TO.C,R10*%
X155757142Y-92652380D02*
X155423809Y-92176190D01*
X155185714Y-92652380D02*
X155185714Y-91652380D01*
X155566666Y-91652380D01*
X155661904Y-91700000D01*
X155709523Y-91747619D01*
X155757142Y-91842857D01*
X155757142Y-91985714D01*
X155709523Y-92080952D01*
X155661904Y-92128571D01*
X155566666Y-92176190D01*
X155185714Y-92176190D01*
X156709523Y-92652380D02*
X156138095Y-92652380D01*
X156423809Y-92652380D02*
X156423809Y-91652380D01*
X156328571Y-91795238D01*
X156233333Y-91890476D01*
X156138095Y-91938095D01*
X157328571Y-91652380D02*
X157423809Y-91652380D01*
X157519047Y-91700000D01*
X157566666Y-91747619D01*
X157614285Y-91842857D01*
X157661904Y-92033333D01*
X157661904Y-92271428D01*
X157614285Y-92461904D01*
X157566666Y-92557142D01*
X157519047Y-92604761D01*
X157423809Y-92652380D01*
X157328571Y-92652380D01*
X157233333Y-92604761D01*
X157185714Y-92557142D01*
X157138095Y-92461904D01*
X157090476Y-92271428D01*
X157090476Y-92033333D01*
X157138095Y-91842857D01*
X157185714Y-91747619D01*
X157233333Y-91700000D01*
X157328571Y-91652380D01*
%TO.C,R11*%
X118157142Y-63552380D02*
X117823809Y-63076190D01*
X117585714Y-63552380D02*
X117585714Y-62552380D01*
X117966666Y-62552380D01*
X118061904Y-62600000D01*
X118109523Y-62647619D01*
X118157142Y-62742857D01*
X118157142Y-62885714D01*
X118109523Y-62980952D01*
X118061904Y-63028571D01*
X117966666Y-63076190D01*
X117585714Y-63076190D01*
X119109523Y-63552380D02*
X118538095Y-63552380D01*
X118823809Y-63552380D02*
X118823809Y-62552380D01*
X118728571Y-62695238D01*
X118633333Y-62790476D01*
X118538095Y-62838095D01*
X120061904Y-63552380D02*
X119490476Y-63552380D01*
X119776190Y-63552380D02*
X119776190Y-62552380D01*
X119680952Y-62695238D01*
X119585714Y-62790476D01*
X119490476Y-62838095D01*
%TO.C,R12*%
X118107142Y-70552380D02*
X117773809Y-70076190D01*
X117535714Y-70552380D02*
X117535714Y-69552380D01*
X117916666Y-69552380D01*
X118011904Y-69600000D01*
X118059523Y-69647619D01*
X118107142Y-69742857D01*
X118107142Y-69885714D01*
X118059523Y-69980952D01*
X118011904Y-70028571D01*
X117916666Y-70076190D01*
X117535714Y-70076190D01*
X119059523Y-70552380D02*
X118488095Y-70552380D01*
X118773809Y-70552380D02*
X118773809Y-69552380D01*
X118678571Y-69695238D01*
X118583333Y-69790476D01*
X118488095Y-69838095D01*
X119440476Y-69647619D02*
X119488095Y-69600000D01*
X119583333Y-69552380D01*
X119821428Y-69552380D01*
X119916666Y-69600000D01*
X119964285Y-69647619D01*
X120011904Y-69742857D01*
X120011904Y-69838095D01*
X119964285Y-69980952D01*
X119392857Y-70552380D01*
X120011904Y-70552380D01*
%TO.C,R13*%
X155957142Y-101752380D02*
X155623809Y-101276190D01*
X155385714Y-101752380D02*
X155385714Y-100752380D01*
X155766666Y-100752380D01*
X155861904Y-100800000D01*
X155909523Y-100847619D01*
X155957142Y-100942857D01*
X155957142Y-101085714D01*
X155909523Y-101180952D01*
X155861904Y-101228571D01*
X155766666Y-101276190D01*
X155385714Y-101276190D01*
X156909523Y-101752380D02*
X156338095Y-101752380D01*
X156623809Y-101752380D02*
X156623809Y-100752380D01*
X156528571Y-100895238D01*
X156433333Y-100990476D01*
X156338095Y-101038095D01*
X157242857Y-100752380D02*
X157861904Y-100752380D01*
X157528571Y-101133333D01*
X157671428Y-101133333D01*
X157766666Y-101180952D01*
X157814285Y-101228571D01*
X157861904Y-101323809D01*
X157861904Y-101561904D01*
X157814285Y-101657142D01*
X157766666Y-101704761D01*
X157671428Y-101752380D01*
X157385714Y-101752380D01*
X157290476Y-101704761D01*
X157242857Y-101657142D01*
%TO.C,R14*%
X159857142Y-102852380D02*
X159523809Y-102376190D01*
X159285714Y-102852380D02*
X159285714Y-101852380D01*
X159666666Y-101852380D01*
X159761904Y-101900000D01*
X159809523Y-101947619D01*
X159857142Y-102042857D01*
X159857142Y-102185714D01*
X159809523Y-102280952D01*
X159761904Y-102328571D01*
X159666666Y-102376190D01*
X159285714Y-102376190D01*
X160809523Y-102852380D02*
X160238095Y-102852380D01*
X160523809Y-102852380D02*
X160523809Y-101852380D01*
X160428571Y-101995238D01*
X160333333Y-102090476D01*
X160238095Y-102138095D01*
X161666666Y-102185714D02*
X161666666Y-102852380D01*
X161428571Y-101804761D02*
X161190476Y-102519047D01*
X161809523Y-102519047D01*
%TO.C,R16*%
X155957142Y-89852380D02*
X155623809Y-89376190D01*
X155385714Y-89852380D02*
X155385714Y-88852380D01*
X155766666Y-88852380D01*
X155861904Y-88900000D01*
X155909523Y-88947619D01*
X155957142Y-89042857D01*
X155957142Y-89185714D01*
X155909523Y-89280952D01*
X155861904Y-89328571D01*
X155766666Y-89376190D01*
X155385714Y-89376190D01*
X156909523Y-89852380D02*
X156338095Y-89852380D01*
X156623809Y-89852380D02*
X156623809Y-88852380D01*
X156528571Y-88995238D01*
X156433333Y-89090476D01*
X156338095Y-89138095D01*
X157766666Y-88852380D02*
X157576190Y-88852380D01*
X157480952Y-88900000D01*
X157433333Y-88947619D01*
X157338095Y-89090476D01*
X157290476Y-89280952D01*
X157290476Y-89661904D01*
X157338095Y-89757142D01*
X157385714Y-89804761D01*
X157480952Y-89852380D01*
X157671428Y-89852380D01*
X157766666Y-89804761D01*
X157814285Y-89757142D01*
X157861904Y-89661904D01*
X157861904Y-89423809D01*
X157814285Y-89328571D01*
X157766666Y-89280952D01*
X157671428Y-89233333D01*
X157480952Y-89233333D01*
X157385714Y-89280952D01*
X157338095Y-89328571D01*
X157290476Y-89423809D01*
%TO.C,R17*%
X180297142Y-82702380D02*
X179963809Y-82226190D01*
X179725714Y-82702380D02*
X179725714Y-81702380D01*
X180106666Y-81702380D01*
X180201904Y-81750000D01*
X180249523Y-81797619D01*
X180297142Y-81892857D01*
X180297142Y-82035714D01*
X180249523Y-82130952D01*
X180201904Y-82178571D01*
X180106666Y-82226190D01*
X179725714Y-82226190D01*
X181249523Y-82702380D02*
X180678095Y-82702380D01*
X180963809Y-82702380D02*
X180963809Y-81702380D01*
X180868571Y-81845238D01*
X180773333Y-81940476D01*
X180678095Y-81988095D01*
X181582857Y-81702380D02*
X182249523Y-81702380D01*
X181820952Y-82702380D01*
%TO.C,U5*%
X177238095Y-81352380D02*
X177238095Y-82161904D01*
X177285714Y-82257142D01*
X177333333Y-82304761D01*
X177428571Y-82352380D01*
X177619047Y-82352380D01*
X177714285Y-82304761D01*
X177761904Y-82257142D01*
X177809523Y-82161904D01*
X177809523Y-81352380D01*
X178761904Y-81352380D02*
X178285714Y-81352380D01*
X178238095Y-81828571D01*
X178285714Y-81780952D01*
X178380952Y-81733333D01*
X178619047Y-81733333D01*
X178714285Y-81780952D01*
X178761904Y-81828571D01*
X178809523Y-81923809D01*
X178809523Y-82161904D01*
X178761904Y-82257142D01*
X178714285Y-82304761D01*
X178619047Y-82352380D01*
X178380952Y-82352380D01*
X178285714Y-82304761D01*
X178238095Y-82257142D01*
%TO.C,U1*%
X143538095Y-105452380D02*
X143538095Y-106261904D01*
X143585714Y-106357142D01*
X143633333Y-106404761D01*
X143728571Y-106452380D01*
X143919047Y-106452380D01*
X144014285Y-106404761D01*
X144061904Y-106357142D01*
X144109523Y-106261904D01*
X144109523Y-105452380D01*
X145109523Y-106452380D02*
X144538095Y-106452380D01*
X144823809Y-106452380D02*
X144823809Y-105452380D01*
X144728571Y-105595238D01*
X144633333Y-105690476D01*
X144538095Y-105738095D01*
%TO.C,U4*%
X161438095Y-79252380D02*
X161438095Y-80061904D01*
X161485714Y-80157142D01*
X161533333Y-80204761D01*
X161628571Y-80252380D01*
X161819047Y-80252380D01*
X161914285Y-80204761D01*
X161961904Y-80157142D01*
X162009523Y-80061904D01*
X162009523Y-79252380D01*
X162914285Y-79585714D02*
X162914285Y-80252380D01*
X162676190Y-79204761D02*
X162438095Y-79919047D01*
X163057142Y-79919047D01*
%TO.C,U2*%
X163338095Y-92902380D02*
X163338095Y-93711904D01*
X163385714Y-93807142D01*
X163433333Y-93854761D01*
X163528571Y-93902380D01*
X163719047Y-93902380D01*
X163814285Y-93854761D01*
X163861904Y-93807142D01*
X163909523Y-93711904D01*
X163909523Y-92902380D01*
X164338095Y-92997619D02*
X164385714Y-92950000D01*
X164480952Y-92902380D01*
X164719047Y-92902380D01*
X164814285Y-92950000D01*
X164861904Y-92997619D01*
X164909523Y-93092857D01*
X164909523Y-93188095D01*
X164861904Y-93330952D01*
X164290476Y-93902380D01*
X164909523Y-93902380D01*
%TO.C,U3*%
X126988095Y-69902380D02*
X126988095Y-70711904D01*
X127035714Y-70807142D01*
X127083333Y-70854761D01*
X127178571Y-70902380D01*
X127369047Y-70902380D01*
X127464285Y-70854761D01*
X127511904Y-70807142D01*
X127559523Y-70711904D01*
X127559523Y-69902380D01*
X127940476Y-69902380D02*
X128559523Y-69902380D01*
X128226190Y-70283333D01*
X128369047Y-70283333D01*
X128464285Y-70330952D01*
X128511904Y-70378571D01*
X128559523Y-70473809D01*
X128559523Y-70711904D01*
X128511904Y-70807142D01*
X128464285Y-70854761D01*
X128369047Y-70902380D01*
X128083333Y-70902380D01*
X127988095Y-70854761D01*
X127940476Y-70807142D01*
%TO.C,R1*%
X154333333Y-135352380D02*
X154000000Y-134876190D01*
X153761904Y-135352380D02*
X153761904Y-134352380D01*
X154142857Y-134352380D01*
X154238095Y-134400000D01*
X154285714Y-134447619D01*
X154333333Y-134542857D01*
X154333333Y-134685714D01*
X154285714Y-134780952D01*
X154238095Y-134828571D01*
X154142857Y-134876190D01*
X153761904Y-134876190D01*
X155285714Y-135352380D02*
X154714285Y-135352380D01*
X155000000Y-135352380D02*
X155000000Y-134352380D01*
X154904761Y-134495238D01*
X154809523Y-134590476D01*
X154714285Y-134638095D01*
%TO.C,J11*%
X189790476Y-122752380D02*
X189790476Y-123466666D01*
X189742857Y-123609523D01*
X189647619Y-123704761D01*
X189504761Y-123752380D01*
X189409523Y-123752380D01*
X190790476Y-123752380D02*
X190219047Y-123752380D01*
X190504761Y-123752380D02*
X190504761Y-122752380D01*
X190409523Y-122895238D01*
X190314285Y-122990476D01*
X190219047Y-123038095D01*
X191742857Y-123752380D02*
X191171428Y-123752380D01*
X191457142Y-123752380D02*
X191457142Y-122752380D01*
X191361904Y-122895238D01*
X191266666Y-122990476D01*
X191171428Y-123038095D01*
%TO.C,J10*%
X189790476Y-108852380D02*
X189790476Y-109566666D01*
X189742857Y-109709523D01*
X189647619Y-109804761D01*
X189504761Y-109852380D01*
X189409523Y-109852380D01*
X190790476Y-109852380D02*
X190219047Y-109852380D01*
X190504761Y-109852380D02*
X190504761Y-108852380D01*
X190409523Y-108995238D01*
X190314285Y-109090476D01*
X190219047Y-109138095D01*
X191409523Y-108852380D02*
X191504761Y-108852380D01*
X191600000Y-108900000D01*
X191647619Y-108947619D01*
X191695238Y-109042857D01*
X191742857Y-109233333D01*
X191742857Y-109471428D01*
X191695238Y-109661904D01*
X191647619Y-109757142D01*
X191600000Y-109804761D01*
X191504761Y-109852380D01*
X191409523Y-109852380D01*
X191314285Y-109804761D01*
X191266666Y-109757142D01*
X191219047Y-109661904D01*
X191171428Y-109471428D01*
X191171428Y-109233333D01*
X191219047Y-109042857D01*
X191266666Y-108947619D01*
X191314285Y-108900000D01*
X191409523Y-108852380D01*
%TO.C,J12*%
X189790476Y-137052380D02*
X189790476Y-137766666D01*
X189742857Y-137909523D01*
X189647619Y-138004761D01*
X189504761Y-138052380D01*
X189409523Y-138052380D01*
X190790476Y-138052380D02*
X190219047Y-138052380D01*
X190504761Y-138052380D02*
X190504761Y-137052380D01*
X190409523Y-137195238D01*
X190314285Y-137290476D01*
X190219047Y-137338095D01*
X191171428Y-137147619D02*
X191219047Y-137100000D01*
X191314285Y-137052380D01*
X191552380Y-137052380D01*
X191647619Y-137100000D01*
X191695238Y-137147619D01*
X191742857Y-137242857D01*
X191742857Y-137338095D01*
X191695238Y-137480952D01*
X191123809Y-138052380D01*
X191742857Y-138052380D01*
%TO.C,J13*%
X133340476Y-140002380D02*
X133340476Y-140716666D01*
X133292857Y-140859523D01*
X133197619Y-140954761D01*
X133054761Y-141002380D01*
X132959523Y-141002380D01*
X134340476Y-141002380D02*
X133769047Y-141002380D01*
X134054761Y-141002380D02*
X134054761Y-140002380D01*
X133959523Y-140145238D01*
X133864285Y-140240476D01*
X133769047Y-140288095D01*
X134673809Y-140002380D02*
X135292857Y-140002380D01*
X134959523Y-140383333D01*
X135102380Y-140383333D01*
X135197619Y-140430952D01*
X135245238Y-140478571D01*
X135292857Y-140573809D01*
X135292857Y-140811904D01*
X135245238Y-140907142D01*
X135197619Y-140954761D01*
X135102380Y-141002380D01*
X134816666Y-141002380D01*
X134721428Y-140954761D01*
X134673809Y-140907142D01*
%TO.C,R21*%
X120157142Y-135082380D02*
X119823809Y-134606190D01*
X119585714Y-135082380D02*
X119585714Y-134082380D01*
X119966666Y-134082380D01*
X120061904Y-134130000D01*
X120109523Y-134177619D01*
X120157142Y-134272857D01*
X120157142Y-134415714D01*
X120109523Y-134510952D01*
X120061904Y-134558571D01*
X119966666Y-134606190D01*
X119585714Y-134606190D01*
X120538095Y-134177619D02*
X120585714Y-134130000D01*
X120680952Y-134082380D01*
X120919047Y-134082380D01*
X121014285Y-134130000D01*
X121061904Y-134177619D01*
X121109523Y-134272857D01*
X121109523Y-134368095D01*
X121061904Y-134510952D01*
X120490476Y-135082380D01*
X121109523Y-135082380D01*
X122061904Y-135082380D02*
X121490476Y-135082380D01*
X121776190Y-135082380D02*
X121776190Y-134082380D01*
X121680952Y-134225238D01*
X121585714Y-134320476D01*
X121490476Y-134368095D01*
%TO.C,C1*%
X121573333Y-61707142D02*
X121525714Y-61754761D01*
X121382857Y-61802380D01*
X121287619Y-61802380D01*
X121144761Y-61754761D01*
X121049523Y-61659523D01*
X121001904Y-61564285D01*
X120954285Y-61373809D01*
X120954285Y-61230952D01*
X121001904Y-61040476D01*
X121049523Y-60945238D01*
X121144761Y-60850000D01*
X121287619Y-60802380D01*
X121382857Y-60802380D01*
X121525714Y-60850000D01*
X121573333Y-60897619D01*
X122525714Y-61802380D02*
X121954285Y-61802380D01*
X122240000Y-61802380D02*
X122240000Y-60802380D01*
X122144761Y-60945238D01*
X122049523Y-61040476D01*
X121954285Y-61088095D01*
%TO.C,C8*%
X151563333Y-107907142D02*
X151515714Y-107954761D01*
X151372857Y-108002380D01*
X151277619Y-108002380D01*
X151134761Y-107954761D01*
X151039523Y-107859523D01*
X150991904Y-107764285D01*
X150944285Y-107573809D01*
X150944285Y-107430952D01*
X150991904Y-107240476D01*
X151039523Y-107145238D01*
X151134761Y-107050000D01*
X151277619Y-107002380D01*
X151372857Y-107002380D01*
X151515714Y-107050000D01*
X151563333Y-107097619D01*
X152134761Y-107430952D02*
X152039523Y-107383333D01*
X151991904Y-107335714D01*
X151944285Y-107240476D01*
X151944285Y-107192857D01*
X151991904Y-107097619D01*
X152039523Y-107050000D01*
X152134761Y-107002380D01*
X152325238Y-107002380D01*
X152420476Y-107050000D01*
X152468095Y-107097619D01*
X152515714Y-107192857D01*
X152515714Y-107240476D01*
X152468095Y-107335714D01*
X152420476Y-107383333D01*
X152325238Y-107430952D01*
X152134761Y-107430952D01*
X152039523Y-107478571D01*
X151991904Y-107526190D01*
X151944285Y-107621428D01*
X151944285Y-107811904D01*
X151991904Y-107907142D01*
X152039523Y-107954761D01*
X152134761Y-108002380D01*
X152325238Y-108002380D01*
X152420476Y-107954761D01*
X152468095Y-107907142D01*
X152515714Y-107811904D01*
X152515714Y-107621428D01*
X152468095Y-107526190D01*
X152420476Y-107478571D01*
X152325238Y-107430952D01*
%TO.C,C9*%
X153763333Y-107837142D02*
X153715714Y-107884761D01*
X153572857Y-107932380D01*
X153477619Y-107932380D01*
X153334761Y-107884761D01*
X153239523Y-107789523D01*
X153191904Y-107694285D01*
X153144285Y-107503809D01*
X153144285Y-107360952D01*
X153191904Y-107170476D01*
X153239523Y-107075238D01*
X153334761Y-106980000D01*
X153477619Y-106932380D01*
X153572857Y-106932380D01*
X153715714Y-106980000D01*
X153763333Y-107027619D01*
X154239523Y-107932380D02*
X154430000Y-107932380D01*
X154525238Y-107884761D01*
X154572857Y-107837142D01*
X154668095Y-107694285D01*
X154715714Y-107503809D01*
X154715714Y-107122857D01*
X154668095Y-107027619D01*
X154620476Y-106980000D01*
X154525238Y-106932380D01*
X154334761Y-106932380D01*
X154239523Y-106980000D01*
X154191904Y-107027619D01*
X154144285Y-107122857D01*
X154144285Y-107360952D01*
X154191904Y-107456190D01*
X154239523Y-107503809D01*
X154334761Y-107551428D01*
X154525238Y-107551428D01*
X154620476Y-107503809D01*
X154668095Y-107456190D01*
X154715714Y-107360952D01*
%TO.C,C10*%
X150257142Y-121557142D02*
X150209523Y-121604761D01*
X150066666Y-121652380D01*
X149971428Y-121652380D01*
X149828571Y-121604761D01*
X149733333Y-121509523D01*
X149685714Y-121414285D01*
X149638095Y-121223809D01*
X149638095Y-121080952D01*
X149685714Y-120890476D01*
X149733333Y-120795238D01*
X149828571Y-120700000D01*
X149971428Y-120652380D01*
X150066666Y-120652380D01*
X150209523Y-120700000D01*
X150257142Y-120747619D01*
X151209523Y-121652380D02*
X150638095Y-121652380D01*
X150923809Y-121652380D02*
X150923809Y-120652380D01*
X150828571Y-120795238D01*
X150733333Y-120890476D01*
X150638095Y-120938095D01*
X151828571Y-120652380D02*
X151923809Y-120652380D01*
X152019047Y-120700000D01*
X152066666Y-120747619D01*
X152114285Y-120842857D01*
X152161904Y-121033333D01*
X152161904Y-121271428D01*
X152114285Y-121461904D01*
X152066666Y-121557142D01*
X152019047Y-121604761D01*
X151923809Y-121652380D01*
X151828571Y-121652380D01*
X151733333Y-121604761D01*
X151685714Y-121557142D01*
X151638095Y-121461904D01*
X151590476Y-121271428D01*
X151590476Y-121033333D01*
X151638095Y-120842857D01*
X151685714Y-120747619D01*
X151733333Y-120700000D01*
X151828571Y-120652380D01*
%TO.C,C12*%
X139027142Y-104467142D02*
X138979523Y-104514761D01*
X138836666Y-104562380D01*
X138741428Y-104562380D01*
X138598571Y-104514761D01*
X138503333Y-104419523D01*
X138455714Y-104324285D01*
X138408095Y-104133809D01*
X138408095Y-103990952D01*
X138455714Y-103800476D01*
X138503333Y-103705238D01*
X138598571Y-103610000D01*
X138741428Y-103562380D01*
X138836666Y-103562380D01*
X138979523Y-103610000D01*
X139027142Y-103657619D01*
X139979523Y-104562380D02*
X139408095Y-104562380D01*
X139693809Y-104562380D02*
X139693809Y-103562380D01*
X139598571Y-103705238D01*
X139503333Y-103800476D01*
X139408095Y-103848095D01*
X140360476Y-103657619D02*
X140408095Y-103610000D01*
X140503333Y-103562380D01*
X140741428Y-103562380D01*
X140836666Y-103610000D01*
X140884285Y-103657619D01*
X140931904Y-103752857D01*
X140931904Y-103848095D01*
X140884285Y-103990952D01*
X140312857Y-104562380D01*
X140931904Y-104562380D01*
%TO.C,C13*%
X134962142Y-115537142D02*
X134914523Y-115584761D01*
X134771666Y-115632380D01*
X134676428Y-115632380D01*
X134533571Y-115584761D01*
X134438333Y-115489523D01*
X134390714Y-115394285D01*
X134343095Y-115203809D01*
X134343095Y-115060952D01*
X134390714Y-114870476D01*
X134438333Y-114775238D01*
X134533571Y-114680000D01*
X134676428Y-114632380D01*
X134771666Y-114632380D01*
X134914523Y-114680000D01*
X134962142Y-114727619D01*
X135914523Y-115632380D02*
X135343095Y-115632380D01*
X135628809Y-115632380D02*
X135628809Y-114632380D01*
X135533571Y-114775238D01*
X135438333Y-114870476D01*
X135343095Y-114918095D01*
X136247857Y-114632380D02*
X136866904Y-114632380D01*
X136533571Y-115013333D01*
X136676428Y-115013333D01*
X136771666Y-115060952D01*
X136819285Y-115108571D01*
X136866904Y-115203809D01*
X136866904Y-115441904D01*
X136819285Y-115537142D01*
X136771666Y-115584761D01*
X136676428Y-115632380D01*
X136390714Y-115632380D01*
X136295476Y-115584761D01*
X136247857Y-115537142D01*
%TO.C,C11*%
X139982142Y-123157142D02*
X139934523Y-123204761D01*
X139791666Y-123252380D01*
X139696428Y-123252380D01*
X139553571Y-123204761D01*
X139458333Y-123109523D01*
X139410714Y-123014285D01*
X139363095Y-122823809D01*
X139363095Y-122680952D01*
X139410714Y-122490476D01*
X139458333Y-122395238D01*
X139553571Y-122300000D01*
X139696428Y-122252380D01*
X139791666Y-122252380D01*
X139934523Y-122300000D01*
X139982142Y-122347619D01*
X140934523Y-123252380D02*
X140363095Y-123252380D01*
X140648809Y-123252380D02*
X140648809Y-122252380D01*
X140553571Y-122395238D01*
X140458333Y-122490476D01*
X140363095Y-122538095D01*
X141886904Y-123252380D02*
X141315476Y-123252380D01*
X141601190Y-123252380D02*
X141601190Y-122252380D01*
X141505952Y-122395238D01*
X141410714Y-122490476D01*
X141315476Y-122538095D01*
%TO.C,R18*%
X182757142Y-87152380D02*
X182423809Y-86676190D01*
X182185714Y-87152380D02*
X182185714Y-86152380D01*
X182566666Y-86152380D01*
X182661904Y-86200000D01*
X182709523Y-86247619D01*
X182757142Y-86342857D01*
X182757142Y-86485714D01*
X182709523Y-86580952D01*
X182661904Y-86628571D01*
X182566666Y-86676190D01*
X182185714Y-86676190D01*
X183709523Y-87152380D02*
X183138095Y-87152380D01*
X183423809Y-87152380D02*
X183423809Y-86152380D01*
X183328571Y-86295238D01*
X183233333Y-86390476D01*
X183138095Y-86438095D01*
X184280952Y-86580952D02*
X184185714Y-86533333D01*
X184138095Y-86485714D01*
X184090476Y-86390476D01*
X184090476Y-86342857D01*
X184138095Y-86247619D01*
X184185714Y-86200000D01*
X184280952Y-86152380D01*
X184471428Y-86152380D01*
X184566666Y-86200000D01*
X184614285Y-86247619D01*
X184661904Y-86342857D01*
X184661904Y-86390476D01*
X184614285Y-86485714D01*
X184566666Y-86533333D01*
X184471428Y-86580952D01*
X184280952Y-86580952D01*
X184185714Y-86628571D01*
X184138095Y-86676190D01*
X184090476Y-86771428D01*
X184090476Y-86961904D01*
X184138095Y-87057142D01*
X184185714Y-87104761D01*
X184280952Y-87152380D01*
X184471428Y-87152380D01*
X184566666Y-87104761D01*
X184614285Y-87057142D01*
X184661904Y-86961904D01*
X184661904Y-86771428D01*
X184614285Y-86676190D01*
X184566666Y-86628571D01*
X184471428Y-86580952D01*
%TO.C,Q1*%
X114404761Y-104547619D02*
X114309523Y-104500000D01*
X114214285Y-104404761D01*
X114071428Y-104261904D01*
X113976190Y-104214285D01*
X113880952Y-104214285D01*
X113928571Y-104452380D02*
X113833333Y-104404761D01*
X113738095Y-104309523D01*
X113690476Y-104119047D01*
X113690476Y-103785714D01*
X113738095Y-103595238D01*
X113833333Y-103500000D01*
X113928571Y-103452380D01*
X114119047Y-103452380D01*
X114214285Y-103500000D01*
X114309523Y-103595238D01*
X114357142Y-103785714D01*
X114357142Y-104119047D01*
X114309523Y-104309523D01*
X114214285Y-104404761D01*
X114119047Y-104452380D01*
X113928571Y-104452380D01*
X115309523Y-104452380D02*
X114738095Y-104452380D01*
X115023809Y-104452380D02*
X115023809Y-103452380D01*
X114928571Y-103595238D01*
X114833333Y-103690476D01*
X114738095Y-103738095D01*
%TO.C,Q2*%
X114454761Y-118247619D02*
X114359523Y-118200000D01*
X114264285Y-118104761D01*
X114121428Y-117961904D01*
X114026190Y-117914285D01*
X113930952Y-117914285D01*
X113978571Y-118152380D02*
X113883333Y-118104761D01*
X113788095Y-118009523D01*
X113740476Y-117819047D01*
X113740476Y-117485714D01*
X113788095Y-117295238D01*
X113883333Y-117200000D01*
X113978571Y-117152380D01*
X114169047Y-117152380D01*
X114264285Y-117200000D01*
X114359523Y-117295238D01*
X114407142Y-117485714D01*
X114407142Y-117819047D01*
X114359523Y-118009523D01*
X114264285Y-118104761D01*
X114169047Y-118152380D01*
X113978571Y-118152380D01*
X114788095Y-117247619D02*
X114835714Y-117200000D01*
X114930952Y-117152380D01*
X115169047Y-117152380D01*
X115264285Y-117200000D01*
X115311904Y-117247619D01*
X115359523Y-117342857D01*
X115359523Y-117438095D01*
X115311904Y-117580952D01*
X114740476Y-118152380D01*
X115359523Y-118152380D01*
%TO.C,Q3*%
X114604761Y-132647619D02*
X114509523Y-132600000D01*
X114414285Y-132504761D01*
X114271428Y-132361904D01*
X114176190Y-132314285D01*
X114080952Y-132314285D01*
X114128571Y-132552380D02*
X114033333Y-132504761D01*
X113938095Y-132409523D01*
X113890476Y-132219047D01*
X113890476Y-131885714D01*
X113938095Y-131695238D01*
X114033333Y-131600000D01*
X114128571Y-131552380D01*
X114319047Y-131552380D01*
X114414285Y-131600000D01*
X114509523Y-131695238D01*
X114557142Y-131885714D01*
X114557142Y-132219047D01*
X114509523Y-132409523D01*
X114414285Y-132504761D01*
X114319047Y-132552380D01*
X114128571Y-132552380D01*
X114890476Y-131552380D02*
X115509523Y-131552380D01*
X115176190Y-131933333D01*
X115319047Y-131933333D01*
X115414285Y-131980952D01*
X115461904Y-132028571D01*
X115509523Y-132123809D01*
X115509523Y-132361904D01*
X115461904Y-132457142D01*
X115414285Y-132504761D01*
X115319047Y-132552380D01*
X115033333Y-132552380D01*
X114938095Y-132504761D01*
X114890476Y-132457142D01*
%TO.C,Q4*%
X185404761Y-107547619D02*
X185309523Y-107500000D01*
X185214285Y-107404761D01*
X185071428Y-107261904D01*
X184976190Y-107214285D01*
X184880952Y-107214285D01*
X184928571Y-107452380D02*
X184833333Y-107404761D01*
X184738095Y-107309523D01*
X184690476Y-107119047D01*
X184690476Y-106785714D01*
X184738095Y-106595238D01*
X184833333Y-106500000D01*
X184928571Y-106452380D01*
X185119047Y-106452380D01*
X185214285Y-106500000D01*
X185309523Y-106595238D01*
X185357142Y-106785714D01*
X185357142Y-107119047D01*
X185309523Y-107309523D01*
X185214285Y-107404761D01*
X185119047Y-107452380D01*
X184928571Y-107452380D01*
X186214285Y-106785714D02*
X186214285Y-107452380D01*
X185976190Y-106404761D02*
X185738095Y-107119047D01*
X186357142Y-107119047D01*
%TO.C,Q5*%
X185404761Y-121447619D02*
X185309523Y-121400000D01*
X185214285Y-121304761D01*
X185071428Y-121161904D01*
X184976190Y-121114285D01*
X184880952Y-121114285D01*
X184928571Y-121352380D02*
X184833333Y-121304761D01*
X184738095Y-121209523D01*
X184690476Y-121019047D01*
X184690476Y-120685714D01*
X184738095Y-120495238D01*
X184833333Y-120400000D01*
X184928571Y-120352380D01*
X185119047Y-120352380D01*
X185214285Y-120400000D01*
X185309523Y-120495238D01*
X185357142Y-120685714D01*
X185357142Y-121019047D01*
X185309523Y-121209523D01*
X185214285Y-121304761D01*
X185119047Y-121352380D01*
X184928571Y-121352380D01*
X186261904Y-120352380D02*
X185785714Y-120352380D01*
X185738095Y-120828571D01*
X185785714Y-120780952D01*
X185880952Y-120733333D01*
X186119047Y-120733333D01*
X186214285Y-120780952D01*
X186261904Y-120828571D01*
X186309523Y-120923809D01*
X186309523Y-121161904D01*
X186261904Y-121257142D01*
X186214285Y-121304761D01*
X186119047Y-121352380D01*
X185880952Y-121352380D01*
X185785714Y-121304761D01*
X185738095Y-121257142D01*
%TO.C,Q6*%
X185404761Y-135747619D02*
X185309523Y-135700000D01*
X185214285Y-135604761D01*
X185071428Y-135461904D01*
X184976190Y-135414285D01*
X184880952Y-135414285D01*
X184928571Y-135652380D02*
X184833333Y-135604761D01*
X184738095Y-135509523D01*
X184690476Y-135319047D01*
X184690476Y-134985714D01*
X184738095Y-134795238D01*
X184833333Y-134700000D01*
X184928571Y-134652380D01*
X185119047Y-134652380D01*
X185214285Y-134700000D01*
X185309523Y-134795238D01*
X185357142Y-134985714D01*
X185357142Y-135319047D01*
X185309523Y-135509523D01*
X185214285Y-135604761D01*
X185119047Y-135652380D01*
X184928571Y-135652380D01*
X186214285Y-134652380D02*
X186023809Y-134652380D01*
X185928571Y-134700000D01*
X185880952Y-134747619D01*
X185785714Y-134890476D01*
X185738095Y-135080952D01*
X185738095Y-135461904D01*
X185785714Y-135557142D01*
X185833333Y-135604761D01*
X185928571Y-135652380D01*
X186119047Y-135652380D01*
X186214285Y-135604761D01*
X186261904Y-135557142D01*
X186309523Y-135461904D01*
X186309523Y-135223809D01*
X186261904Y-135128571D01*
X186214285Y-135080952D01*
X186119047Y-135033333D01*
X185928571Y-135033333D01*
X185833333Y-135080952D01*
X185785714Y-135128571D01*
X185738095Y-135223809D01*
%TO.C,C18*%
X131677142Y-66817142D02*
X131629523Y-66864761D01*
X131486666Y-66912380D01*
X131391428Y-66912380D01*
X131248571Y-66864761D01*
X131153333Y-66769523D01*
X131105714Y-66674285D01*
X131058095Y-66483809D01*
X131058095Y-66340952D01*
X131105714Y-66150476D01*
X131153333Y-66055238D01*
X131248571Y-65960000D01*
X131391428Y-65912380D01*
X131486666Y-65912380D01*
X131629523Y-65960000D01*
X131677142Y-66007619D01*
X132629523Y-66912380D02*
X132058095Y-66912380D01*
X132343809Y-66912380D02*
X132343809Y-65912380D01*
X132248571Y-66055238D01*
X132153333Y-66150476D01*
X132058095Y-66198095D01*
X133200952Y-66340952D02*
X133105714Y-66293333D01*
X133058095Y-66245714D01*
X133010476Y-66150476D01*
X133010476Y-66102857D01*
X133058095Y-66007619D01*
X133105714Y-65960000D01*
X133200952Y-65912380D01*
X133391428Y-65912380D01*
X133486666Y-65960000D01*
X133534285Y-66007619D01*
X133581904Y-66102857D01*
X133581904Y-66150476D01*
X133534285Y-66245714D01*
X133486666Y-66293333D01*
X133391428Y-66340952D01*
X133200952Y-66340952D01*
X133105714Y-66388571D01*
X133058095Y-66436190D01*
X133010476Y-66531428D01*
X133010476Y-66721904D01*
X133058095Y-66817142D01*
X133105714Y-66864761D01*
X133200952Y-66912380D01*
X133391428Y-66912380D01*
X133486666Y-66864761D01*
X133534285Y-66817142D01*
X133581904Y-66721904D01*
X133581904Y-66531428D01*
X133534285Y-66436190D01*
X133486666Y-66388571D01*
X133391428Y-66340952D01*
%TO.C,R15*%
X181657142Y-88964880D02*
X181323809Y-88488690D01*
X181085714Y-88964880D02*
X181085714Y-87964880D01*
X181466666Y-87964880D01*
X181561904Y-88012500D01*
X181609523Y-88060119D01*
X181657142Y-88155357D01*
X181657142Y-88298214D01*
X181609523Y-88393452D01*
X181561904Y-88441071D01*
X181466666Y-88488690D01*
X181085714Y-88488690D01*
X182609523Y-88964880D02*
X182038095Y-88964880D01*
X182323809Y-88964880D02*
X182323809Y-87964880D01*
X182228571Y-88107738D01*
X182133333Y-88202976D01*
X182038095Y-88250595D01*
X183514285Y-87964880D02*
X183038095Y-87964880D01*
X182990476Y-88441071D01*
X183038095Y-88393452D01*
X183133333Y-88345833D01*
X183371428Y-88345833D01*
X183466666Y-88393452D01*
X183514285Y-88441071D01*
X183561904Y-88536309D01*
X183561904Y-88774404D01*
X183514285Y-88869642D01*
X183466666Y-88917261D01*
X183371428Y-88964880D01*
X183133333Y-88964880D01*
X183038095Y-88917261D01*
X182990476Y-88869642D01*
%TO.C,C103*%
X138930952Y-133207142D02*
X138883333Y-133254761D01*
X138740476Y-133302380D01*
X138645238Y-133302380D01*
X138502380Y-133254761D01*
X138407142Y-133159523D01*
X138359523Y-133064285D01*
X138311904Y-132873809D01*
X138311904Y-132730952D01*
X138359523Y-132540476D01*
X138407142Y-132445238D01*
X138502380Y-132350000D01*
X138645238Y-132302380D01*
X138740476Y-132302380D01*
X138883333Y-132350000D01*
X138930952Y-132397619D01*
X139883333Y-133302380D02*
X139311904Y-133302380D01*
X139597619Y-133302380D02*
X139597619Y-132302380D01*
X139502380Y-132445238D01*
X139407142Y-132540476D01*
X139311904Y-132588095D01*
X140502380Y-132302380D02*
X140597619Y-132302380D01*
X140692857Y-132350000D01*
X140740476Y-132397619D01*
X140788095Y-132492857D01*
X140835714Y-132683333D01*
X140835714Y-132921428D01*
X140788095Y-133111904D01*
X140740476Y-133207142D01*
X140692857Y-133254761D01*
X140597619Y-133302380D01*
X140502380Y-133302380D01*
X140407142Y-133254761D01*
X140359523Y-133207142D01*
X140311904Y-133111904D01*
X140264285Y-132921428D01*
X140264285Y-132683333D01*
X140311904Y-132492857D01*
X140359523Y-132397619D01*
X140407142Y-132350000D01*
X140502380Y-132302380D01*
X141169047Y-132302380D02*
X141788095Y-132302380D01*
X141454761Y-132683333D01*
X141597619Y-132683333D01*
X141692857Y-132730952D01*
X141740476Y-132778571D01*
X141788095Y-132873809D01*
X141788095Y-133111904D01*
X141740476Y-133207142D01*
X141692857Y-133254761D01*
X141597619Y-133302380D01*
X141311904Y-133302380D01*
X141216666Y-133254761D01*
X141169047Y-133207142D01*
%TO.C,U8*%
X135888095Y-128002380D02*
X135888095Y-128811904D01*
X135935714Y-128907142D01*
X135983333Y-128954761D01*
X136078571Y-129002380D01*
X136269047Y-129002380D01*
X136364285Y-128954761D01*
X136411904Y-128907142D01*
X136459523Y-128811904D01*
X136459523Y-128002380D01*
X137078571Y-128430952D02*
X136983333Y-128383333D01*
X136935714Y-128335714D01*
X136888095Y-128240476D01*
X136888095Y-128192857D01*
X136935714Y-128097619D01*
X136983333Y-128050000D01*
X137078571Y-128002380D01*
X137269047Y-128002380D01*
X137364285Y-128050000D01*
X137411904Y-128097619D01*
X137459523Y-128192857D01*
X137459523Y-128240476D01*
X137411904Y-128335714D01*
X137364285Y-128383333D01*
X137269047Y-128430952D01*
X137078571Y-128430952D01*
X136983333Y-128478571D01*
X136935714Y-128526190D01*
X136888095Y-128621428D01*
X136888095Y-128811904D01*
X136935714Y-128907142D01*
X136983333Y-128954761D01*
X137078571Y-129002380D01*
X137269047Y-129002380D01*
X137364285Y-128954761D01*
X137411904Y-128907142D01*
X137459523Y-128811904D01*
X137459523Y-128621428D01*
X137411904Y-128526190D01*
X137364285Y-128478571D01*
X137269047Y-128430952D01*
%TO.C,C14*%
X156262142Y-125017142D02*
X156214523Y-125064761D01*
X156071666Y-125112380D01*
X155976428Y-125112380D01*
X155833571Y-125064761D01*
X155738333Y-124969523D01*
X155690714Y-124874285D01*
X155643095Y-124683809D01*
X155643095Y-124540952D01*
X155690714Y-124350476D01*
X155738333Y-124255238D01*
X155833571Y-124160000D01*
X155976428Y-124112380D01*
X156071666Y-124112380D01*
X156214523Y-124160000D01*
X156262142Y-124207619D01*
X157214523Y-125112380D02*
X156643095Y-125112380D01*
X156928809Y-125112380D02*
X156928809Y-124112380D01*
X156833571Y-124255238D01*
X156738333Y-124350476D01*
X156643095Y-124398095D01*
X158071666Y-124445714D02*
X158071666Y-125112380D01*
X157833571Y-124064761D02*
X157595476Y-124779047D01*
X158214523Y-124779047D01*
%TO.C,R20*%
X154457142Y-121202380D02*
X154123809Y-120726190D01*
X153885714Y-121202380D02*
X153885714Y-120202380D01*
X154266666Y-120202380D01*
X154361904Y-120250000D01*
X154409523Y-120297619D01*
X154457142Y-120392857D01*
X154457142Y-120535714D01*
X154409523Y-120630952D01*
X154361904Y-120678571D01*
X154266666Y-120726190D01*
X153885714Y-120726190D01*
X154838095Y-120297619D02*
X154885714Y-120250000D01*
X154980952Y-120202380D01*
X155219047Y-120202380D01*
X155314285Y-120250000D01*
X155361904Y-120297619D01*
X155409523Y-120392857D01*
X155409523Y-120488095D01*
X155361904Y-120630952D01*
X154790476Y-121202380D01*
X155409523Y-121202380D01*
X156028571Y-120202380D02*
X156123809Y-120202380D01*
X156219047Y-120250000D01*
X156266666Y-120297619D01*
X156314285Y-120392857D01*
X156361904Y-120583333D01*
X156361904Y-120821428D01*
X156314285Y-121011904D01*
X156266666Y-121107142D01*
X156219047Y-121154761D01*
X156123809Y-121202380D01*
X156028571Y-121202380D01*
X155933333Y-121154761D01*
X155885714Y-121107142D01*
X155838095Y-121011904D01*
X155790476Y-120821428D01*
X155790476Y-120583333D01*
X155838095Y-120392857D01*
X155885714Y-120297619D01*
X155933333Y-120250000D01*
X156028571Y-120202380D01*
%TO.C,C15*%
X158482142Y-127557142D02*
X158434523Y-127604761D01*
X158291666Y-127652380D01*
X158196428Y-127652380D01*
X158053571Y-127604761D01*
X157958333Y-127509523D01*
X157910714Y-127414285D01*
X157863095Y-127223809D01*
X157863095Y-127080952D01*
X157910714Y-126890476D01*
X157958333Y-126795238D01*
X158053571Y-126700000D01*
X158196428Y-126652380D01*
X158291666Y-126652380D01*
X158434523Y-126700000D01*
X158482142Y-126747619D01*
X159434523Y-127652380D02*
X158863095Y-127652380D01*
X159148809Y-127652380D02*
X159148809Y-126652380D01*
X159053571Y-126795238D01*
X158958333Y-126890476D01*
X158863095Y-126938095D01*
X160339285Y-126652380D02*
X159863095Y-126652380D01*
X159815476Y-127128571D01*
X159863095Y-127080952D01*
X159958333Y-127033333D01*
X160196428Y-127033333D01*
X160291666Y-127080952D01*
X160339285Y-127128571D01*
X160386904Y-127223809D01*
X160386904Y-127461904D01*
X160339285Y-127557142D01*
X160291666Y-127604761D01*
X160196428Y-127652380D01*
X159958333Y-127652380D01*
X159863095Y-127604761D01*
X159815476Y-127557142D01*
%TO.C,R19*%
X151657142Y-125577380D02*
X151323809Y-125101190D01*
X151085714Y-125577380D02*
X151085714Y-124577380D01*
X151466666Y-124577380D01*
X151561904Y-124625000D01*
X151609523Y-124672619D01*
X151657142Y-124767857D01*
X151657142Y-124910714D01*
X151609523Y-125005952D01*
X151561904Y-125053571D01*
X151466666Y-125101190D01*
X151085714Y-125101190D01*
X152609523Y-125577380D02*
X152038095Y-125577380D01*
X152323809Y-125577380D02*
X152323809Y-124577380D01*
X152228571Y-124720238D01*
X152133333Y-124815476D01*
X152038095Y-124863095D01*
X153085714Y-125577380D02*
X153276190Y-125577380D01*
X153371428Y-125529761D01*
X153419047Y-125482142D01*
X153514285Y-125339285D01*
X153561904Y-125148809D01*
X153561904Y-124767857D01*
X153514285Y-124672619D01*
X153466666Y-124625000D01*
X153371428Y-124577380D01*
X153180952Y-124577380D01*
X153085714Y-124625000D01*
X153038095Y-124672619D01*
X152990476Y-124767857D01*
X152990476Y-125005952D01*
X153038095Y-125101190D01*
X153085714Y-125148809D01*
X153180952Y-125196428D01*
X153371428Y-125196428D01*
X153466666Y-125148809D01*
X153514285Y-125101190D01*
X153561904Y-125005952D01*
%TO.C,C104*%
X130430952Y-133207142D02*
X130383333Y-133254761D01*
X130240476Y-133302380D01*
X130145238Y-133302380D01*
X130002380Y-133254761D01*
X129907142Y-133159523D01*
X129859523Y-133064285D01*
X129811904Y-132873809D01*
X129811904Y-132730952D01*
X129859523Y-132540476D01*
X129907142Y-132445238D01*
X130002380Y-132350000D01*
X130145238Y-132302380D01*
X130240476Y-132302380D01*
X130383333Y-132350000D01*
X130430952Y-132397619D01*
X131383333Y-133302380D02*
X130811904Y-133302380D01*
X131097619Y-133302380D02*
X131097619Y-132302380D01*
X131002380Y-132445238D01*
X130907142Y-132540476D01*
X130811904Y-132588095D01*
X132002380Y-132302380D02*
X132097619Y-132302380D01*
X132192857Y-132350000D01*
X132240476Y-132397619D01*
X132288095Y-132492857D01*
X132335714Y-132683333D01*
X132335714Y-132921428D01*
X132288095Y-133111904D01*
X132240476Y-133207142D01*
X132192857Y-133254761D01*
X132097619Y-133302380D01*
X132002380Y-133302380D01*
X131907142Y-133254761D01*
X131859523Y-133207142D01*
X131811904Y-133111904D01*
X131764285Y-132921428D01*
X131764285Y-132683333D01*
X131811904Y-132492857D01*
X131859523Y-132397619D01*
X131907142Y-132350000D01*
X132002380Y-132302380D01*
X133192857Y-132635714D02*
X133192857Y-133302380D01*
X132954761Y-132254761D02*
X132716666Y-132969047D01*
X133335714Y-132969047D01*
%TO.C,U7*%
X144338095Y-127952380D02*
X144338095Y-128761904D01*
X144385714Y-128857142D01*
X144433333Y-128904761D01*
X144528571Y-128952380D01*
X144719047Y-128952380D01*
X144814285Y-128904761D01*
X144861904Y-128857142D01*
X144909523Y-128761904D01*
X144909523Y-127952380D01*
X145290476Y-127952380D02*
X145957142Y-127952380D01*
X145528571Y-128952380D01*
%TO.C,U6*%
X155138095Y-124827380D02*
X155138095Y-125636904D01*
X155185714Y-125732142D01*
X155233333Y-125779761D01*
X155328571Y-125827380D01*
X155519047Y-125827380D01*
X155614285Y-125779761D01*
X155661904Y-125732142D01*
X155709523Y-125636904D01*
X155709523Y-124827380D01*
X156614285Y-124827380D02*
X156423809Y-124827380D01*
X156328571Y-124875000D01*
X156280952Y-124922619D01*
X156185714Y-125065476D01*
X156138095Y-125255952D01*
X156138095Y-125636904D01*
X156185714Y-125732142D01*
X156233333Y-125779761D01*
X156328571Y-125827380D01*
X156519047Y-125827380D01*
X156614285Y-125779761D01*
X156661904Y-125732142D01*
X156709523Y-125636904D01*
X156709523Y-125398809D01*
X156661904Y-125303571D01*
X156614285Y-125255952D01*
X156519047Y-125208333D01*
X156328571Y-125208333D01*
X156233333Y-125255952D01*
X156185714Y-125303571D01*
X156138095Y-125398809D01*
%TO.C,C106*%
X130430952Y-131807142D02*
X130383333Y-131854761D01*
X130240476Y-131902380D01*
X130145238Y-131902380D01*
X130002380Y-131854761D01*
X129907142Y-131759523D01*
X129859523Y-131664285D01*
X129811904Y-131473809D01*
X129811904Y-131330952D01*
X129859523Y-131140476D01*
X129907142Y-131045238D01*
X130002380Y-130950000D01*
X130145238Y-130902380D01*
X130240476Y-130902380D01*
X130383333Y-130950000D01*
X130430952Y-130997619D01*
X131383333Y-131902380D02*
X130811904Y-131902380D01*
X131097619Y-131902380D02*
X131097619Y-130902380D01*
X131002380Y-131045238D01*
X130907142Y-131140476D01*
X130811904Y-131188095D01*
X132002380Y-130902380D02*
X132097619Y-130902380D01*
X132192857Y-130950000D01*
X132240476Y-130997619D01*
X132288095Y-131092857D01*
X132335714Y-131283333D01*
X132335714Y-131521428D01*
X132288095Y-131711904D01*
X132240476Y-131807142D01*
X132192857Y-131854761D01*
X132097619Y-131902380D01*
X132002380Y-131902380D01*
X131907142Y-131854761D01*
X131859523Y-131807142D01*
X131811904Y-131711904D01*
X131764285Y-131521428D01*
X131764285Y-131283333D01*
X131811904Y-131092857D01*
X131859523Y-130997619D01*
X131907142Y-130950000D01*
X132002380Y-130902380D01*
X133192857Y-130902380D02*
X133002380Y-130902380D01*
X132907142Y-130950000D01*
X132859523Y-130997619D01*
X132764285Y-131140476D01*
X132716666Y-131330952D01*
X132716666Y-131711904D01*
X132764285Y-131807142D01*
X132811904Y-131854761D01*
X132907142Y-131902380D01*
X133097619Y-131902380D01*
X133192857Y-131854761D01*
X133240476Y-131807142D01*
X133288095Y-131711904D01*
X133288095Y-131473809D01*
X133240476Y-131378571D01*
X133192857Y-131330952D01*
X133097619Y-131283333D01*
X132907142Y-131283333D01*
X132811904Y-131330952D01*
X132764285Y-131378571D01*
X132716666Y-131473809D01*
%TO.C,C101*%
X144755952Y-137032142D02*
X144708333Y-137079761D01*
X144565476Y-137127380D01*
X144470238Y-137127380D01*
X144327380Y-137079761D01*
X144232142Y-136984523D01*
X144184523Y-136889285D01*
X144136904Y-136698809D01*
X144136904Y-136555952D01*
X144184523Y-136365476D01*
X144232142Y-136270238D01*
X144327380Y-136175000D01*
X144470238Y-136127380D01*
X144565476Y-136127380D01*
X144708333Y-136175000D01*
X144755952Y-136222619D01*
X145708333Y-137127380D02*
X145136904Y-137127380D01*
X145422619Y-137127380D02*
X145422619Y-136127380D01*
X145327380Y-136270238D01*
X145232142Y-136365476D01*
X145136904Y-136413095D01*
X146327380Y-136127380D02*
X146422619Y-136127380D01*
X146517857Y-136175000D01*
X146565476Y-136222619D01*
X146613095Y-136317857D01*
X146660714Y-136508333D01*
X146660714Y-136746428D01*
X146613095Y-136936904D01*
X146565476Y-137032142D01*
X146517857Y-137079761D01*
X146422619Y-137127380D01*
X146327380Y-137127380D01*
X146232142Y-137079761D01*
X146184523Y-137032142D01*
X146136904Y-136936904D01*
X146089285Y-136746428D01*
X146089285Y-136508333D01*
X146136904Y-136317857D01*
X146184523Y-136222619D01*
X146232142Y-136175000D01*
X146327380Y-136127380D01*
X147613095Y-137127380D02*
X147041666Y-137127380D01*
X147327380Y-137127380D02*
X147327380Y-136127380D01*
X147232142Y-136270238D01*
X147136904Y-136365476D01*
X147041666Y-136413095D01*
%TO.C,C105*%
X138930952Y-131757142D02*
X138883333Y-131804761D01*
X138740476Y-131852380D01*
X138645238Y-131852380D01*
X138502380Y-131804761D01*
X138407142Y-131709523D01*
X138359523Y-131614285D01*
X138311904Y-131423809D01*
X138311904Y-131280952D01*
X138359523Y-131090476D01*
X138407142Y-130995238D01*
X138502380Y-130900000D01*
X138645238Y-130852380D01*
X138740476Y-130852380D01*
X138883333Y-130900000D01*
X138930952Y-130947619D01*
X139883333Y-131852380D02*
X139311904Y-131852380D01*
X139597619Y-131852380D02*
X139597619Y-130852380D01*
X139502380Y-130995238D01*
X139407142Y-131090476D01*
X139311904Y-131138095D01*
X140502380Y-130852380D02*
X140597619Y-130852380D01*
X140692857Y-130900000D01*
X140740476Y-130947619D01*
X140788095Y-131042857D01*
X140835714Y-131233333D01*
X140835714Y-131471428D01*
X140788095Y-131661904D01*
X140740476Y-131757142D01*
X140692857Y-131804761D01*
X140597619Y-131852380D01*
X140502380Y-131852380D01*
X140407142Y-131804761D01*
X140359523Y-131757142D01*
X140311904Y-131661904D01*
X140264285Y-131471428D01*
X140264285Y-131233333D01*
X140311904Y-131042857D01*
X140359523Y-130947619D01*
X140407142Y-130900000D01*
X140502380Y-130852380D01*
X141740476Y-130852380D02*
X141264285Y-130852380D01*
X141216666Y-131328571D01*
X141264285Y-131280952D01*
X141359523Y-131233333D01*
X141597619Y-131233333D01*
X141692857Y-131280952D01*
X141740476Y-131328571D01*
X141788095Y-131423809D01*
X141788095Y-131661904D01*
X141740476Y-131757142D01*
X141692857Y-131804761D01*
X141597619Y-131852380D01*
X141359523Y-131852380D01*
X141264285Y-131804761D01*
X141216666Y-131757142D01*
%TO.C,C102*%
X134880952Y-138707142D02*
X134833333Y-138754761D01*
X134690476Y-138802380D01*
X134595238Y-138802380D01*
X134452380Y-138754761D01*
X134357142Y-138659523D01*
X134309523Y-138564285D01*
X134261904Y-138373809D01*
X134261904Y-138230952D01*
X134309523Y-138040476D01*
X134357142Y-137945238D01*
X134452380Y-137850000D01*
X134595238Y-137802380D01*
X134690476Y-137802380D01*
X134833333Y-137850000D01*
X134880952Y-137897619D01*
X135833333Y-138802380D02*
X135261904Y-138802380D01*
X135547619Y-138802380D02*
X135547619Y-137802380D01*
X135452380Y-137945238D01*
X135357142Y-138040476D01*
X135261904Y-138088095D01*
X136452380Y-137802380D02*
X136547619Y-137802380D01*
X136642857Y-137850000D01*
X136690476Y-137897619D01*
X136738095Y-137992857D01*
X136785714Y-138183333D01*
X136785714Y-138421428D01*
X136738095Y-138611904D01*
X136690476Y-138707142D01*
X136642857Y-138754761D01*
X136547619Y-138802380D01*
X136452380Y-138802380D01*
X136357142Y-138754761D01*
X136309523Y-138707142D01*
X136261904Y-138611904D01*
X136214285Y-138421428D01*
X136214285Y-138183333D01*
X136261904Y-137992857D01*
X136309523Y-137897619D01*
X136357142Y-137850000D01*
X136452380Y-137802380D01*
X137166666Y-137897619D02*
X137214285Y-137850000D01*
X137309523Y-137802380D01*
X137547619Y-137802380D01*
X137642857Y-137850000D01*
X137690476Y-137897619D01*
X137738095Y-137992857D01*
X137738095Y-138088095D01*
X137690476Y-138230952D01*
X137119047Y-138802380D01*
X137738095Y-138802380D01*
D11*
%TO.C,C2*%
X117607836Y-66140000D02*
X117392164Y-66140000D01*
X117607836Y-66860000D02*
X117392164Y-66860000D01*
%TO.C,C3*%
X172407164Y-89240000D02*
X172622836Y-89240000D01*
X172407164Y-89960000D02*
X172622836Y-89960000D01*
%TO.C,C4*%
X176020000Y-80702836D02*
X176020000Y-80487164D01*
X175300000Y-80702836D02*
X175300000Y-80487164D01*
%TO.C,C5*%
X175700000Y-93390000D02*
X175700000Y-94390000D01*
X176440000Y-99595563D02*
X176440000Y-97910000D01*
X176440000Y-93204437D02*
X176440000Y-94890000D01*
X175200000Y-93890000D02*
X176200000Y-93890000D01*
X184960000Y-100660000D02*
X184960000Y-97910000D01*
X177504437Y-100660000D02*
X184960000Y-100660000D01*
X177504437Y-92140000D02*
X184960000Y-92140000D01*
X176440000Y-93204437D02*
X177504437Y-92140000D01*
X176440000Y-99595563D02*
X177504437Y-100660000D01*
X184960000Y-92140000D02*
X184960000Y-94890000D01*
%TO.C,C6*%
X167740000Y-95207836D02*
X167740000Y-94992164D01*
X168460000Y-95207836D02*
X168460000Y-94992164D01*
%TO.C,C7*%
X158890000Y-78307836D02*
X158890000Y-78092164D01*
X159610000Y-78307836D02*
X159610000Y-78092164D01*
%TO.C,D1*%
X149760000Y-135585000D02*
X149760000Y-132900000D01*
X147840000Y-132900000D02*
X147840000Y-135585000D01*
X147840000Y-135585000D02*
X149760000Y-135585000D01*
%TO.C,D2*%
X150565000Y-132185000D02*
X152035000Y-132185000D01*
X152035000Y-132185000D02*
X152035000Y-129900000D01*
X150565000Y-129900000D02*
X150565000Y-132185000D01*
%TO.C,D3*%
X155640000Y-81900000D02*
X155640000Y-84585000D01*
X157560000Y-84585000D02*
X157560000Y-81900000D01*
X155640000Y-84585000D02*
X157560000Y-84585000D01*
%TO.C,D4*%
X173350000Y-81350000D02*
X173350000Y-86750000D01*
X170050000Y-81350000D02*
X170050000Y-86750000D01*
X173350000Y-81350000D02*
X170050000Y-81350000D01*
%TO.C,J1*%
X164665000Y-104665000D02*
X161135000Y-104665000D01*
X164665000Y-111135000D02*
X164665000Y-111070000D01*
X161135000Y-111135000D02*
X161135000Y-111070000D01*
X161135000Y-104730000D02*
X161135000Y-104665000D01*
X165990000Y-111070000D02*
X164665000Y-111070000D01*
X164665000Y-111135000D02*
X161135000Y-111135000D01*
X164665000Y-104730000D02*
X164665000Y-104665000D01*
%TO.C,J2*%
X180610000Y-145690000D02*
X180610000Y-147460000D01*
X180610000Y-149740000D02*
X180610000Y-150000000D01*
X172990000Y-150000000D02*
X172990000Y-149740000D01*
X180610000Y-145690000D02*
X180230000Y-145690000D01*
X172990000Y-147460000D02*
X172990000Y-145690000D01*
X172990000Y-145690000D02*
X173370000Y-145690000D01*
%TO.C,J3*%
X189440000Y-66010000D02*
X189440000Y-67348233D01*
X189440000Y-80651767D02*
X189440000Y-82348233D01*
X189440000Y-61565000D02*
X189440000Y-63990000D01*
X189440000Y-71651767D02*
X189440000Y-73348233D01*
X189440000Y-83651767D02*
X189440000Y-85348233D01*
X198560000Y-92435000D02*
X189440000Y-92435000D01*
X189440000Y-77651767D02*
X189440000Y-79348233D01*
X199560000Y-62565000D02*
X199560000Y-91435000D01*
X189440000Y-86651767D02*
X189440000Y-88348233D01*
X189440000Y-61565000D02*
X198560000Y-61565000D01*
X198560000Y-61565000D02*
X199560000Y-62565000D01*
X189440000Y-92435000D02*
X189440000Y-89651767D01*
X189440000Y-68651767D02*
X189440000Y-70348233D01*
X189440000Y-74651767D02*
X189440000Y-76348233D01*
X199560000Y-91435000D02*
X198560000Y-92435000D01*
%TO.C,J6*%
X168425000Y-148610000D02*
X167425000Y-149610000D01*
X155338233Y-139490000D02*
X153641767Y-139490000D01*
X149338233Y-139490000D02*
X147641767Y-139490000D01*
X161338233Y-139490000D02*
X159641767Y-139490000D01*
X137555000Y-148610000D02*
X137555000Y-139490000D01*
X167425000Y-149610000D02*
X138555000Y-149610000D01*
X138555000Y-149610000D02*
X137555000Y-148610000D01*
X137555000Y-139490000D02*
X140338233Y-139490000D01*
X163980000Y-139490000D02*
X162641767Y-139490000D01*
X168425000Y-139490000D02*
X166000000Y-139490000D01*
X168425000Y-139490000D02*
X168425000Y-148610000D01*
X152338233Y-139490000D02*
X150641767Y-139490000D01*
X158338233Y-139490000D02*
X156641767Y-139490000D01*
X143338233Y-139490000D02*
X141641767Y-139490000D01*
X146338233Y-139490000D02*
X144641767Y-139490000D01*
%TO.C,J7*%
X101370000Y-107935000D02*
X100370000Y-106935000D01*
X110490000Y-107935000D02*
X110490000Y-105510000D01*
X101370000Y-98065000D02*
X110490000Y-98065000D01*
X110490000Y-103490000D02*
X110490000Y-102151767D01*
X100370000Y-106935000D02*
X100370000Y-99065000D01*
X100370000Y-99065000D02*
X101370000Y-98065000D01*
X110490000Y-107935000D02*
X101370000Y-107935000D01*
X110490000Y-98065000D02*
X110490000Y-100848233D01*
%TO.C,J8*%
X100370000Y-120635000D02*
X100370000Y-112765000D01*
X100370000Y-112765000D02*
X101370000Y-111765000D01*
X110490000Y-117190000D02*
X110490000Y-115851767D01*
X101370000Y-111765000D02*
X110490000Y-111765000D01*
X110490000Y-121635000D02*
X110490000Y-119210000D01*
X110490000Y-121635000D02*
X101370000Y-121635000D01*
X101370000Y-121635000D02*
X100370000Y-120635000D01*
X110490000Y-111765000D02*
X110490000Y-114548233D01*
%TO.C,J9*%
X110490000Y-131590000D02*
X110490000Y-130251767D01*
X101370000Y-126165000D02*
X110490000Y-126165000D01*
X100370000Y-135035000D02*
X100370000Y-127165000D01*
X101370000Y-136035000D02*
X100370000Y-135035000D01*
X110490000Y-126165000D02*
X110490000Y-128948233D01*
X110490000Y-136035000D02*
X110490000Y-133610000D01*
X100370000Y-127165000D02*
X101370000Y-126165000D01*
X110490000Y-136035000D02*
X101370000Y-136035000D01*
%TO.C,L1*%
X174900000Y-97300000D02*
X168900000Y-97300000D01*
X174900000Y-91200000D02*
X174900000Y-97300000D01*
X168900000Y-91200000D02*
X174900000Y-91200000D01*
X168900000Y-97300000D02*
X168900000Y-91200000D01*
%TO.C,R2*%
X152337258Y-132777500D02*
X151862742Y-132777500D01*
X152337258Y-133822500D02*
X151862742Y-133822500D01*
%TO.C,R9*%
X161162742Y-91977500D02*
X161637258Y-91977500D01*
X161162742Y-93022500D02*
X161637258Y-93022500D01*
%TO.C,R10*%
X156277500Y-94362742D02*
X156277500Y-94837258D01*
X157322500Y-94362742D02*
X157322500Y-94837258D01*
%TO.C,R11*%
X119049758Y-65222500D02*
X118575242Y-65222500D01*
X119049758Y-64177500D02*
X118575242Y-64177500D01*
%TO.C,R12*%
X119037258Y-68922500D02*
X118562742Y-68922500D01*
X119037258Y-67877500D02*
X118562742Y-67877500D01*
%TO.C,R13*%
X156277500Y-98662742D02*
X156277500Y-99137258D01*
X157322500Y-98662742D02*
X157322500Y-99137258D01*
%TO.C,R14*%
X159977500Y-99762742D02*
X159977500Y-100237258D01*
X161022500Y-99762742D02*
X161022500Y-100237258D01*
%TO.C,R16*%
X157122500Y-86862742D02*
X157122500Y-87337258D01*
X156077500Y-86862742D02*
X156077500Y-87337258D01*
%TO.C,R17*%
X180702742Y-83157500D02*
X181177258Y-83157500D01*
X180702742Y-84202500D02*
X181177258Y-84202500D01*
D10*
%TO.C,U5*%
X178875000Y-88475000D02*
X178730000Y-88475000D01*
X173725000Y-84325000D02*
X173870000Y-84325000D01*
X173725000Y-88475000D02*
X173725000Y-84325000D01*
X173725000Y-88475000D02*
X173775000Y-88475000D01*
X178875000Y-88475000D02*
X178875000Y-84325000D01*
X173775000Y-88475000D02*
X173775000Y-89875000D01*
X178875000Y-84325000D02*
X178730000Y-84325000D01*
D11*
%TO.C,U1*%
X149410000Y-108290000D02*
X149410000Y-109240000D01*
X148460000Y-118510000D02*
X149410000Y-118510000D01*
X139190000Y-109240000D02*
X137850000Y-109240000D01*
X148460000Y-108290000D02*
X149410000Y-108290000D01*
X139190000Y-118510000D02*
X139190000Y-117560000D01*
X140140000Y-118510000D02*
X139190000Y-118510000D01*
X139190000Y-108290000D02*
X139190000Y-109240000D01*
X140140000Y-108290000D02*
X139190000Y-108290000D01*
X149410000Y-118510000D02*
X149410000Y-117560000D01*
%TO.C,U4*%
X158790000Y-89200000D02*
X158790000Y-83190000D01*
X165610000Y-83190000D02*
X164350000Y-83190000D01*
X158790000Y-83190000D02*
X160050000Y-83190000D01*
X165610000Y-86950000D02*
X165610000Y-83190000D01*
%TO.C,U2*%
X163500000Y-94390000D02*
X159900000Y-94390000D01*
X163500000Y-97610000D02*
X165700000Y-97610000D01*
X163500000Y-97610000D02*
X161300000Y-97610000D01*
X163500000Y-94390000D02*
X165700000Y-94390000D01*
%TO.C,U3*%
X121050000Y-63895000D02*
X128950000Y-63895000D01*
X121050000Y-69305000D02*
X121050000Y-63895000D01*
X128950000Y-68505000D02*
X128150000Y-69305000D01*
X128150000Y-69305000D02*
X121050000Y-69305000D01*
X128950000Y-63895000D02*
X128950000Y-68505000D01*
%TO.C,R1*%
X152337258Y-135422500D02*
X151862742Y-135422500D01*
X152337258Y-134377500D02*
X151862742Y-134377500D01*
%TO.C,J11*%
X189510000Y-121835000D02*
X189510000Y-119051767D01*
X199630000Y-120835000D02*
X198630000Y-121835000D01*
X198630000Y-121835000D02*
X189510000Y-121835000D01*
X198630000Y-111965000D02*
X199630000Y-112965000D01*
X189510000Y-111965000D02*
X198630000Y-111965000D01*
X199630000Y-112965000D02*
X199630000Y-120835000D01*
X189510000Y-111965000D02*
X189510000Y-114390000D01*
X189510000Y-116410000D02*
X189510000Y-117748233D01*
%TO.C,J10*%
X189510000Y-98065000D02*
X198630000Y-98065000D01*
X199630000Y-99065000D02*
X199630000Y-106935000D01*
X189510000Y-102510000D02*
X189510000Y-103848233D01*
X198630000Y-107935000D02*
X189510000Y-107935000D01*
X189510000Y-98065000D02*
X189510000Y-100490000D01*
X199630000Y-106935000D02*
X198630000Y-107935000D01*
X198630000Y-98065000D02*
X199630000Y-99065000D01*
X189510000Y-107935000D02*
X189510000Y-105151767D01*
%TO.C,J12*%
X198630000Y-136035000D02*
X189510000Y-136035000D01*
X199630000Y-127165000D02*
X199630000Y-135035000D01*
X189510000Y-126165000D02*
X189510000Y-128590000D01*
X189510000Y-126165000D02*
X198630000Y-126165000D01*
X199630000Y-135035000D02*
X198630000Y-136035000D01*
X189510000Y-136035000D02*
X189510000Y-133251767D01*
X189510000Y-130610000D02*
X189510000Y-131948233D01*
X198630000Y-126165000D02*
X199630000Y-127165000D01*
%TO.C,J5*%
X101140000Y-92535000D02*
X100140000Y-91535000D01*
X110260000Y-61665000D02*
X110260000Y-64448233D01*
X100140000Y-62665000D02*
X101140000Y-61665000D01*
X110260000Y-67448233D02*
X110260000Y-65751767D01*
X110260000Y-70448233D02*
X110260000Y-68751767D01*
X110260000Y-79448233D02*
X110260000Y-77751767D01*
X101140000Y-61665000D02*
X110260000Y-61665000D01*
X110260000Y-76448233D02*
X110260000Y-74751767D01*
X110260000Y-92535000D02*
X101140000Y-92535000D01*
X110260000Y-85448233D02*
X110260000Y-83751767D01*
X110260000Y-92535000D02*
X110260000Y-90110000D01*
X100140000Y-91535000D02*
X100140000Y-62665000D01*
X110260000Y-73448233D02*
X110260000Y-71751767D01*
X110260000Y-82448233D02*
X110260000Y-80751767D01*
X110260000Y-88090000D02*
X110260000Y-86751767D01*
%TO.C,J13*%
X132335000Y-139490000D02*
X129910000Y-139490000D01*
X131335000Y-149610000D02*
X123465000Y-149610000D01*
X123465000Y-149610000D02*
X122465000Y-148610000D01*
X132335000Y-148610000D02*
X131335000Y-149610000D01*
X122465000Y-148610000D02*
X122465000Y-139490000D01*
X122465000Y-139490000D02*
X125248233Y-139490000D01*
X132335000Y-139490000D02*
X132335000Y-148610000D01*
X127890000Y-139490000D02*
X126551767Y-139490000D01*
%TO.C,JP3*%
X123600000Y-126700000D02*
X124200000Y-126700000D01*
X124900000Y-127400000D02*
X124900000Y-128800000D01*
X122900000Y-128800000D02*
X122900000Y-127400000D01*
X124200000Y-129500000D02*
X123600000Y-129500000D01*
X122900000Y-128800000D02*
G75*
G03*
X123600000Y-129500000I699999J-1D01*
G01*
X124900000Y-127400000D02*
G75*
G03*
X124200000Y-126700000I-699999J1D01*
G01*
X123600000Y-126700000D02*
G75*
G03*
X122900000Y-127400000I-1J-699999D01*
G01*
X124200000Y-129500000D02*
G75*
G03*
X124900000Y-128800000I1J699999D01*
G01*
%TO.C,JP4*%
X122900000Y-133200000D02*
X122900000Y-131800000D01*
X124200000Y-133900000D02*
X123600000Y-133900000D01*
X123600000Y-131100000D02*
X124200000Y-131100000D01*
X124900000Y-131800000D02*
X124900000Y-133200000D01*
X124200000Y-133900000D02*
G75*
G03*
X124900000Y-133200000I1J699999D01*
G01*
X123600000Y-131100000D02*
G75*
G03*
X122900000Y-131800000I-1J-699999D01*
G01*
X122900000Y-133200000D02*
G75*
G03*
X123600000Y-133900000I699999J-1D01*
G01*
X124900000Y-131800000D02*
G75*
G03*
X124200000Y-131100000I-699999J1D01*
G01*
%TO.C,R21*%
X121037258Y-133722500D02*
X120562742Y-133722500D01*
X121037258Y-132677500D02*
X120562742Y-132677500D01*
%TO.C,C1*%
X121842836Y-63000000D02*
X121627164Y-63000000D01*
X121842836Y-62280000D02*
X121627164Y-62280000D01*
%TO.C,C8*%
X152620000Y-109267836D02*
X152620000Y-109052164D01*
X151900000Y-109267836D02*
X151900000Y-109052164D01*
%TO.C,C9*%
X153490000Y-109192836D02*
X153490000Y-108977164D01*
X154210000Y-109192836D02*
X154210000Y-108977164D01*
%TO.C,C10*%
X151280000Y-119457164D02*
X151280000Y-119672836D01*
X150560000Y-119457164D02*
X150560000Y-119672836D01*
%TO.C,C12*%
X140172836Y-105920000D02*
X139957164Y-105920000D01*
X140172836Y-105200000D02*
X139957164Y-105200000D01*
%TO.C,C13*%
X135712836Y-114370000D02*
X135497164Y-114370000D01*
X135712836Y-113650000D02*
X135497164Y-113650000D01*
%TO.C,C11*%
X140722836Y-121040000D02*
X140507164Y-121040000D01*
X140722836Y-121760000D02*
X140507164Y-121760000D01*
%TO.C,R18*%
X183932500Y-84245242D02*
X183932500Y-84719758D01*
X182887500Y-84245242D02*
X182887500Y-84719758D01*
%TO.C,Q1*%
X114500000Y-99940000D02*
X113850000Y-99940000D01*
X114500000Y-99940000D02*
X115150000Y-99940000D01*
X114500000Y-103060000D02*
X116175000Y-103060000D01*
X114500000Y-103060000D02*
X113850000Y-103060000D01*
%TO.C,Q2*%
X114550000Y-116760000D02*
X116225000Y-116760000D01*
X114550000Y-116760000D02*
X113900000Y-116760000D01*
X114550000Y-113640000D02*
X113900000Y-113640000D01*
X114550000Y-113640000D02*
X115200000Y-113640000D01*
%TO.C,Q3*%
X114700000Y-131160000D02*
X114050000Y-131160000D01*
X114700000Y-128040000D02*
X114050000Y-128040000D01*
X114700000Y-128040000D02*
X115350000Y-128040000D01*
X114700000Y-131160000D02*
X116375000Y-131160000D01*
%TO.C,Q4*%
X185500000Y-102940000D02*
X186150000Y-102940000D01*
X185500000Y-106060000D02*
X184850000Y-106060000D01*
X185500000Y-102940000D02*
X183825000Y-102940000D01*
X185500000Y-106060000D02*
X186150000Y-106060000D01*
%TO.C,Q5*%
X185500000Y-116840000D02*
X183825000Y-116840000D01*
X185500000Y-116840000D02*
X186150000Y-116840000D01*
X185500000Y-119960000D02*
X186150000Y-119960000D01*
X185500000Y-119960000D02*
X184850000Y-119960000D01*
%TO.C,Q6*%
X185500000Y-131040000D02*
X186150000Y-131040000D01*
X185500000Y-134160000D02*
X186150000Y-134160000D01*
X185500000Y-134160000D02*
X184850000Y-134160000D01*
X185500000Y-131040000D02*
X183825000Y-131040000D01*
%TO.C,C18*%
X130630000Y-66337164D02*
X130630000Y-66552836D01*
X129910000Y-66337164D02*
X129910000Y-66552836D01*
%TO.C,R15*%
X180622500Y-88749758D02*
X180622500Y-88275242D01*
X179577500Y-88749758D02*
X179577500Y-88275242D01*
%TO.C,C103*%
X141685000Y-133540000D02*
X139815000Y-133540000D01*
X139815000Y-133540000D02*
X139815000Y-137450000D01*
X141685000Y-137450000D02*
X141685000Y-133540000D01*
D10*
%TO.C,U8*%
X133725000Y-134025000D02*
X133725000Y-130675000D01*
X137075000Y-134025000D02*
X136775000Y-134025000D01*
X133725000Y-130675000D02*
X134025000Y-130675000D01*
X137075000Y-134025000D02*
X137075000Y-130675000D01*
X137075000Y-130675000D02*
X136775000Y-130675000D01*
X133725000Y-134025000D02*
X133950000Y-134025000D01*
X133950000Y-134025000D02*
X133950000Y-135250000D01*
D11*
%TO.C,C14*%
X157012836Y-123140000D02*
X156797164Y-123140000D01*
X157012836Y-123860000D02*
X156797164Y-123860000D01*
%TO.C,R20*%
X153952500Y-122687742D02*
X153952500Y-123162258D01*
X154997500Y-122687742D02*
X154997500Y-123162258D01*
%TO.C,C15*%
X158787164Y-128710000D02*
X159002836Y-128710000D01*
X158787164Y-127990000D02*
X159002836Y-127990000D01*
%TO.C,R19*%
X153422500Y-122687742D02*
X153422500Y-123162258D01*
X152377500Y-122687742D02*
X152377500Y-123162258D01*
%TO.C,C104*%
X133285000Y-137500000D02*
X133285000Y-133590000D01*
X133285000Y-133590000D02*
X131415000Y-133590000D01*
X131415000Y-133590000D02*
X131415000Y-137500000D01*
D10*
%TO.C,U7*%
X142175000Y-133975000D02*
X142175000Y-130625000D01*
X145525000Y-133975000D02*
X145525000Y-130625000D01*
X145525000Y-130625000D02*
X145225000Y-130625000D01*
X142400000Y-133975000D02*
X142400000Y-135200000D01*
X142175000Y-133975000D02*
X142400000Y-133975000D01*
X145525000Y-133975000D02*
X145225000Y-133975000D01*
X142175000Y-130625000D02*
X142475000Y-130625000D01*
D11*
%TO.C,U6*%
X156860000Y-126215000D02*
X157510000Y-126215000D01*
X154940000Y-126215000D02*
X154290000Y-126215000D01*
X154940000Y-128935000D02*
X154290000Y-128935000D01*
X157510000Y-126215000D02*
X157510000Y-126365000D01*
X156860000Y-128935000D02*
X157510000Y-128935000D01*
X157510000Y-128935000D02*
X157510000Y-128785000D01*
X154290000Y-128935000D02*
X154290000Y-128785000D01*
%TO.C,C106*%
X132422164Y-129790000D02*
X132637836Y-129790000D01*
X132422164Y-130510000D02*
X132637836Y-130510000D01*
%TO.C,C101*%
X142990000Y-136572164D02*
X142990000Y-136787836D01*
X143710000Y-136572164D02*
X143710000Y-136787836D01*
%TO.C,C105*%
X140842164Y-129740000D02*
X141057836Y-129740000D01*
X140842164Y-130460000D02*
X141057836Y-130460000D01*
%TO.C,C102*%
X134540000Y-136592164D02*
X134540000Y-136807836D01*
X135260000Y-136592164D02*
X135260000Y-136807836D01*
%TD*%
M02*
